M48
;GenerationSoftware,Autodesk,EAGLE,9.6.2*%
;CreationDate,2022-03-11T18:21:18Z*%
FMAT,2
ICI,OFF
METRIC,TZ,000.000
T10C0.350
T9C0.600
T8C0.650
T7C0.700
T6C0.730
T5C0.813
T4C1.016
T3C1.090
T2C3.200
%
G90
M71
T2
X97028Y72898
X97028Y3810
X3810Y3810
X35560Y72898
X106426Y72898
X123698Y72898
X123698Y3810
X106426Y3810
T3
X108204Y26924
X106704Y28194
X108204Y29464
T4
X47244Y66294
X68580Y69850
X71120Y69850
X76200Y69850
X78740Y69850
X60960Y47752
X47244Y68834
X42164Y66294
X42164Y68834
X107950Y58674
X107950Y61214
X55880Y47752
X58420Y47752
X58928Y57658
X94742Y38608
X94742Y36068
X94742Y33528
X94742Y30988
X94742Y23368
X94742Y20828
X94742Y18288
X94742Y15748
X94742Y13208
X77470Y57658
X74930Y57658
X72390Y57658
X69850Y57658
X2540Y51308
X117094Y23622
X114554Y23622
X112014Y23622
X47498Y55118
X44958Y55118
X42418Y55118
X39878Y55118
X2540Y53848
X119634Y23622
X6731Y72009
X6731Y69469
X17272Y5334
X19812Y5334
X22352Y5334
X24892Y5334
X27432Y5334
X29972Y5334
X104648Y47244
X29972Y69850
X73660Y69850
X61468Y57658
X64008Y57658
X2540Y19304
X2540Y16764
X104648Y52324
X104648Y49784
X29972Y72390
X104648Y44704
X33782Y5080
X36322Y5080
X38862Y5080
X41402Y5080
X43942Y5080
X46482Y5080
T5
X88900Y30988
X88900Y5588
X88900Y8128
X88900Y10668
X88900Y13208
X88900Y15748
X88900Y18288
X88900Y20828
X88900Y23368
X88900Y25908
X12700Y10668
X88900Y28448
X12700Y13208
X88900Y33528
X88900Y36068
X88900Y38608
X88900Y41148
X88900Y43688
X88900Y46228
X88900Y48768
X88900Y51308
X88900Y53848
X12700Y5588
X12700Y8128
X12700Y41148
X12700Y43688
X12700Y46228
X12700Y48768
X12700Y51308
X12700Y53848
X36322Y43053
X36322Y38227
X10668Y73279
X10668Y68199
X24130Y73660
X24130Y68580
X12700Y38608
X12700Y36068
X12700Y33528
X12700Y30988
X12700Y28448
X12700Y25908
X12700Y23368
X12700Y20828
X12700Y18288
X12700Y15748
T6
X28100Y52070
X28100Y49530
X28100Y46990
X20160Y46990
X20160Y49530
X20160Y52070
X20160Y54610
X28100Y54610
T7
X2159Y71850
X2159Y69850
T8
X121412Y39878
X121412Y36449
T9
X50546Y55372
T10
X17272Y58801
X30861Y40894
X25908Y57404
X52832Y68072
X49276Y53340
X48006Y56896
X44704Y58674
X52324Y29591
X19050Y68580
X55245Y50800
X44958Y42291
X51689Y68072
X51308Y43688
X111379Y39243
X117094Y43942
X45466Y39370
X45974Y34798
X44704Y33274
X13843Y72771
X53086Y49276
X47111Y37725
X41164Y32496
X122262Y48514
X46736Y43942
X44958Y48514
X114427Y30480
X110236Y51054
X17145Y63881
X108458Y43942
X107442Y32512
X50800Y35560
X43434Y30734
X41656Y38862
X57150Y43180
X46609Y48514
X26924Y61976
X6223Y61341
X40894Y39370
X40894Y44704
X51816Y35814
X50292Y32512
X50165Y7112
X49403Y34925
X46990Y36830
X40386Y31750
X61976Y38608
X47244Y38608
X41910Y33274
X56388Y34544
X49276Y43434
X48260Y43942
M30