G04 EAGLE Gerber RS-274X export*
G04 #@! %TF.Part,Single*
G04 #@! %TF.FileFunction,Soldermask,Top,1*
G04 #@! %TF.FilePolarity,Negative*
G04 #@! %TF.GenerationSoftware,Autodesk,EAGLE,9.6.2*
G04 #@! %TF.CreationDate,2022-03-11T18:21:18Z*
G75*
%MOMM*%
%FSLAX34Y34*%
%LPD*%
%INSoldermask Top*%
%IPNEG*%
%AMOC8*
5,1,8,0,0,1.08239X$1,22.5*%
G01*
%ADD10C,3.352800*%
%ADD11R,1.252400X1.152400*%
%ADD12R,1.152400X1.252400*%
%ADD13P,1.896997X8X112.500000*%
%ADD14R,1.627400X0.452400*%
%ADD15R,0.452400X1.627400*%
%ADD16R,1.302400X0.752400*%
%ADD17R,0.852400X1.677400*%
%ADD18R,1.282400X1.282400*%
%ADD19C,1.282400*%
%ADD20C,2.032000*%
%ADD21R,1.252400X1.252400*%
%ADD22C,1.252400*%
%ADD23C,0.449434*%
%ADD24C,1.787400*%
%ADD25C,1.371600*%
%ADD26R,1.676400X0.914400*%
%ADD27R,1.320800X1.752600*%
%ADD28R,0.152400X1.828800*%
%ADD29C,1.371600*%
%ADD30C,1.752400*%
%ADD31R,1.352400X0.702400*%


D10*
X970280Y728980D03*
X970280Y38100D03*
X38100Y38100D03*
X355600Y728980D03*
X1064260Y728980D03*
X1236980Y728980D03*
X1236980Y38100D03*
X1064260Y38100D03*
D11*
X152790Y624840D03*
X169790Y624840D03*
D12*
X146050Y605400D03*
X146050Y588400D03*
X513080Y313300D03*
X513080Y296300D03*
X533400Y313300D03*
X533400Y296300D03*
D11*
X489340Y50800D03*
X506340Y50800D03*
X465210Y81280D03*
X482210Y81280D03*
D12*
X1066800Y353940D03*
X1066800Y336940D03*
X1082040Y353940D03*
X1082040Y336940D03*
D11*
X1144660Y322580D03*
X1161660Y322580D03*
X517280Y701040D03*
X534280Y701040D03*
X1180220Y327660D03*
X1197220Y327660D03*
D12*
X290830Y657470D03*
X290830Y640470D03*
X137160Y698890D03*
X137160Y715890D03*
X299720Y546980D03*
X299720Y529980D03*
D13*
X241300Y685800D03*
X241300Y736600D03*
X106680Y681990D03*
X106680Y732790D03*
D12*
X203200Y719700D03*
X203200Y702700D03*
D11*
X464430Y316230D03*
X447430Y316230D03*
D12*
X547370Y331080D03*
X547370Y314080D03*
D11*
X555380Y444500D03*
X572380Y444500D03*
X448700Y471170D03*
X465700Y471170D03*
D12*
X269240Y657470D03*
X269240Y640470D03*
D11*
X309000Y382270D03*
X326000Y382270D03*
X309000Y430530D03*
X326000Y430530D03*
X251070Y637540D03*
X234070Y637540D03*
D12*
X162560Y657470D03*
X162560Y640470D03*
X161290Y605400D03*
X161290Y588400D03*
X416560Y359800D03*
X416560Y376800D03*
X269240Y604130D03*
X269240Y587130D03*
D11*
X252340Y586740D03*
X235340Y586740D03*
D14*
X437920Y431200D03*
X437920Y426200D03*
X437920Y421200D03*
X437920Y416200D03*
X437920Y411200D03*
X437920Y406200D03*
X437920Y401200D03*
X437920Y396200D03*
X437920Y391200D03*
X437920Y386200D03*
X437920Y381200D03*
X437920Y376200D03*
X437920Y371200D03*
X437920Y366200D03*
X437920Y361200D03*
X437920Y356200D03*
D15*
X457800Y336320D03*
X462800Y336320D03*
X467800Y336320D03*
X472800Y336320D03*
X477800Y336320D03*
X482800Y336320D03*
X487800Y336320D03*
X492800Y336320D03*
X497800Y336320D03*
X502800Y336320D03*
X507800Y336320D03*
X512800Y336320D03*
X517800Y336320D03*
X522800Y336320D03*
X527800Y336320D03*
X532800Y336320D03*
D14*
X552680Y356200D03*
X552680Y361200D03*
X552680Y366200D03*
X552680Y371200D03*
X552680Y376200D03*
X552680Y381200D03*
X552680Y386200D03*
X552680Y391200D03*
X552680Y396200D03*
X552680Y401200D03*
X552680Y406200D03*
X552680Y411200D03*
X552680Y416200D03*
X552680Y421200D03*
X552680Y426200D03*
X552680Y431200D03*
D15*
X532800Y451080D03*
X527800Y451080D03*
X522800Y451080D03*
X517800Y451080D03*
X512800Y451080D03*
X507800Y451080D03*
X502800Y451080D03*
X497800Y451080D03*
X492800Y451080D03*
X487800Y451080D03*
X482800Y451080D03*
X477800Y451080D03*
X472800Y451080D03*
X467800Y451080D03*
X462800Y451080D03*
X457800Y451080D03*
D16*
X190700Y657200D03*
X190700Y647700D03*
X190700Y638200D03*
X215700Y638200D03*
X215700Y657200D03*
X190700Y606400D03*
X190700Y596900D03*
X190700Y587400D03*
X215700Y587400D03*
X215700Y606400D03*
D17*
X1098550Y353880D03*
X1111250Y353880D03*
X1123950Y353880D03*
X1136650Y353880D03*
X1149350Y353880D03*
X1162050Y353880D03*
X1174750Y353880D03*
X1187450Y353880D03*
X1187450Y408120D03*
X1174750Y408120D03*
X1162050Y408120D03*
X1149350Y408120D03*
X1136650Y408120D03*
X1123950Y408120D03*
X1111250Y408120D03*
X1098550Y408120D03*
D18*
X201600Y546100D03*
D19*
X201600Y520700D03*
X201600Y495300D03*
X201600Y469900D03*
X281000Y469900D03*
X281000Y495300D03*
X281000Y520700D03*
X281000Y546100D03*
D20*
X698500Y576580D03*
X723900Y576580D03*
X749300Y576580D03*
X774700Y576580D03*
X947420Y132080D03*
X947420Y157480D03*
X947420Y182880D03*
X947420Y208280D03*
X947420Y233680D03*
X947420Y309880D03*
X947420Y335280D03*
X947420Y360680D03*
X947420Y386080D03*
D21*
X21590Y698500D03*
D22*
X21590Y718500D03*
D20*
X685800Y698500D03*
X711200Y698500D03*
X736600Y698500D03*
X762000Y698500D03*
X787400Y698500D03*
X472440Y662940D03*
X472440Y688340D03*
X421640Y662940D03*
X421640Y688340D03*
X1079500Y586740D03*
X1079500Y612140D03*
X558800Y477520D03*
X584200Y477520D03*
X609600Y477520D03*
X299720Y723900D03*
X299720Y698500D03*
X589280Y576580D03*
X614680Y576580D03*
X640080Y576580D03*
X25400Y193040D03*
X25400Y167640D03*
X1046480Y523240D03*
X1046480Y497840D03*
X1046480Y472440D03*
X1046480Y447040D03*
X337820Y50800D03*
X363220Y50800D03*
X388620Y50800D03*
X414020Y50800D03*
X439420Y50800D03*
X464820Y50800D03*
X1196340Y236220D03*
X1170940Y236220D03*
X1145540Y236220D03*
X1120140Y236220D03*
X474980Y551180D03*
X449580Y551180D03*
X424180Y551180D03*
X398780Y551180D03*
X25400Y538480D03*
X25400Y513080D03*
D23*
X44745Y617045D02*
X51775Y617045D01*
X51775Y610015D01*
X44745Y610015D01*
X44745Y617045D01*
X44745Y614284D02*
X51775Y614284D01*
X51775Y634585D02*
X44745Y634585D01*
X51775Y634585D02*
X51775Y627555D01*
X44745Y627555D01*
X44745Y634585D01*
X44745Y631824D02*
X51775Y631824D01*
X72685Y617045D02*
X79715Y617045D01*
X79715Y610015D01*
X72685Y610015D01*
X72685Y617045D01*
X72685Y614284D02*
X79715Y614284D01*
X79715Y634585D02*
X72685Y634585D01*
X79715Y634585D02*
X79715Y627555D01*
X72685Y627555D01*
X72685Y634585D01*
X72685Y631824D02*
X79715Y631824D01*
X468925Y590375D02*
X475955Y590375D01*
X475955Y583345D01*
X468925Y583345D01*
X468925Y590375D01*
X468925Y587614D02*
X475955Y587614D01*
X475955Y607915D02*
X468925Y607915D01*
X475955Y607915D02*
X475955Y600885D01*
X468925Y600885D01*
X468925Y607915D01*
X468925Y605154D02*
X475955Y605154D01*
X425155Y590375D02*
X418125Y590375D01*
X425155Y590375D02*
X425155Y583345D01*
X418125Y583345D01*
X418125Y590375D01*
X418125Y587614D02*
X425155Y587614D01*
X425155Y607915D02*
X418125Y607915D01*
X425155Y607915D02*
X425155Y600885D01*
X418125Y600885D01*
X418125Y607915D01*
X418125Y605154D02*
X425155Y605154D01*
X1098845Y528145D02*
X1105875Y528145D01*
X1105875Y521115D01*
X1098845Y521115D01*
X1098845Y528145D01*
X1098845Y525384D02*
X1105875Y525384D01*
X1105875Y545685D02*
X1098845Y545685D01*
X1105875Y545685D02*
X1105875Y538655D01*
X1098845Y538655D01*
X1098845Y545685D01*
X1098845Y542924D02*
X1105875Y542924D01*
D24*
X1082040Y294640D03*
X1067040Y281940D03*
X1082040Y269240D03*
D25*
X363220Y382270D03*
X363220Y430530D03*
D12*
X585860Y454660D03*
X602860Y454660D03*
X846700Y208280D03*
X829700Y208280D03*
D11*
X492760Y504580D03*
X492760Y521580D03*
D12*
X471560Y723900D03*
X488560Y723900D03*
X544440Y665480D03*
X527440Y665480D03*
X48650Y651510D03*
X65650Y651510D03*
X115180Y632460D03*
X98180Y632460D03*
X185810Y736600D03*
X202810Y736600D03*
X621910Y530860D03*
X604910Y530860D03*
D11*
X472440Y621420D03*
X472440Y638420D03*
X421640Y622690D03*
X421640Y639690D03*
X1079500Y559680D03*
X1079500Y542680D03*
D12*
X1242940Y454660D03*
X1225940Y454660D03*
X400440Y419100D03*
X417440Y419100D03*
D11*
X1132840Y294250D03*
X1132840Y277250D03*
X436880Y516500D03*
X436880Y499500D03*
X464820Y516500D03*
X464820Y499500D03*
D12*
X1123560Y472440D03*
X1106560Y472440D03*
X1128640Y497840D03*
X1111640Y497840D03*
X251070Y652780D03*
X234070Y652780D03*
X252340Y607060D03*
X235340Y607060D03*
D11*
X1156970Y277250D03*
X1156970Y294250D03*
D12*
X847480Y462280D03*
X864480Y462280D03*
D11*
X1181100Y300600D03*
X1181100Y283600D03*
X1198880Y300600D03*
X1198880Y283600D03*
D12*
X864480Y556260D03*
X847480Y556260D03*
D26*
X568960Y720090D03*
X624840Y720090D03*
X568960Y681990D03*
X624840Y681990D03*
D27*
X1186180Y454660D03*
X1201420Y454660D03*
D28*
X1193800Y454660D03*
D27*
X1186180Y485140D03*
X1201420Y485140D03*
D28*
X1193800Y485140D03*
D29*
X133096Y538480D02*
X120904Y538480D01*
X120904Y513080D02*
X133096Y513080D01*
X133096Y487680D02*
X120904Y487680D01*
X120904Y462280D02*
X133096Y462280D01*
X133096Y436880D02*
X120904Y436880D01*
X120904Y411480D02*
X133096Y411480D01*
X133096Y386080D02*
X120904Y386080D01*
X120904Y360680D02*
X133096Y360680D01*
X133096Y335280D02*
X120904Y335280D01*
X120904Y309880D02*
X133096Y309880D01*
X133096Y284480D02*
X120904Y284480D01*
X120904Y259080D02*
X133096Y259080D01*
X133096Y233680D02*
X120904Y233680D01*
X120904Y208280D02*
X133096Y208280D01*
X133096Y182880D02*
X120904Y182880D01*
X120904Y157480D02*
X133096Y157480D01*
X133096Y132080D02*
X120904Y132080D01*
X120904Y106680D02*
X133096Y106680D01*
X133096Y81280D02*
X120904Y81280D01*
X120904Y55880D02*
X133096Y55880D01*
X882904Y538480D02*
X895096Y538480D01*
X895096Y513080D02*
X882904Y513080D01*
X882904Y487680D02*
X895096Y487680D01*
X895096Y462280D02*
X882904Y462280D01*
X882904Y436880D02*
X895096Y436880D01*
X895096Y411480D02*
X882904Y411480D01*
X882904Y386080D02*
X895096Y386080D01*
X895096Y360680D02*
X882904Y360680D01*
X882904Y335280D02*
X895096Y335280D01*
X895096Y309880D02*
X882904Y309880D01*
X882904Y284480D02*
X895096Y284480D01*
X895096Y259080D02*
X882904Y259080D01*
X882904Y233680D02*
X895096Y233680D01*
X895096Y208280D02*
X882904Y208280D01*
X882904Y182880D02*
X895096Y182880D01*
X895096Y157480D02*
X882904Y157480D01*
X882904Y132080D02*
X895096Y132080D01*
X895096Y106680D02*
X882904Y106680D01*
X882904Y81280D02*
X895096Y81280D01*
X895096Y55880D02*
X882904Y55880D01*
D30*
X977900Y271780D03*
X391160Y500380D03*
X411480Y469900D03*
X492760Y485140D03*
X516890Y725170D03*
X353060Y637540D03*
X256540Y358140D03*
X1041400Y360680D03*
D31*
X152099Y720700D03*
X152099Y711200D03*
X152099Y701700D03*
X178101Y701700D03*
X178101Y720700D03*
D12*
X847480Y436880D03*
X864480Y436880D03*
X847480Y411480D03*
X864480Y411480D03*
X1084580Y408060D03*
X1084580Y425060D03*
X1069340Y408060D03*
X1069340Y425060D03*
D20*
X67310Y720090D03*
X67310Y694690D03*
D11*
X363220Y93100D03*
X363220Y110100D03*
X388620Y93100D03*
X388620Y110100D03*
X414020Y93100D03*
X414020Y110100D03*
X439420Y93100D03*
X439420Y110100D03*
X736600Y673980D03*
X736600Y656980D03*
X762000Y673980D03*
X762000Y656980D03*
D20*
X172720Y53340D03*
X198120Y53340D03*
X223520Y53340D03*
X248920Y53340D03*
X274320Y53340D03*
X299720Y53340D03*
M02*
