G04 EAGLE Gerber RS-274X export*
G04 #@! %TF.Part,Single*
G04 #@! %TF.FileFunction,Profile,NP*
G04 #@! %TF.FilePolarity,Positive*
G04 #@! %TF.GenerationSoftware,Autodesk,EAGLE,9.6.2*
G04 #@! %TF.CreationDate,2022-03-11T18:21:18Z*
G75*
%MOMM*%
%FSLAX34Y34*%
%LPD*%
%INBoard Outline*%
%IPPOS*%
%AMOC8*
5,1,8,0,0,1.08239X$1,22.5*%
G01*
%ADD10C,0.000000*%
%ADD11C,0.254000*%
%ADD12C,0.254000*%


D10*
X0Y0D02*
X1270000Y0D01*
X1270000Y762000D01*
X0Y762000D01*
X0Y0D01*
D11*
X1013460Y731520D02*
X1013460Y751840D01*
X1013460Y731520D02*
X1013462Y731391D01*
X1013468Y731262D01*
X1013478Y731134D01*
X1013491Y731005D01*
X1013509Y730878D01*
X1013531Y730751D01*
X1013556Y730624D01*
X1013585Y730499D01*
X1013618Y730374D01*
X1013655Y730250D01*
X1013695Y730128D01*
X1013740Y730007D01*
X1013788Y729887D01*
X1013839Y729769D01*
X1013894Y729652D01*
X1013953Y729537D01*
X1014015Y729424D01*
X1014081Y729313D01*
X1014150Y729204D01*
X1014222Y729098D01*
X1014297Y728993D01*
X1014376Y728891D01*
X1014457Y728791D01*
X1014542Y728694D01*
X1014629Y728599D01*
X1014720Y728507D01*
X1014813Y728418D01*
X1014909Y728331D01*
X1015007Y728248D01*
X1015108Y728168D01*
X1015211Y728091D01*
X1015317Y728017D01*
X1015425Y727946D01*
X1015535Y727878D01*
X1015647Y727814D01*
X1015761Y727754D01*
X1015876Y727697D01*
X1015993Y727643D01*
X1016112Y727593D01*
X1016233Y727547D01*
X1016354Y727504D01*
X1016477Y727465D01*
X1016601Y727430D01*
X1016726Y727399D01*
X1016852Y727371D01*
X1016979Y727348D01*
X1017107Y727328D01*
X1017235Y727312D01*
X1017363Y727300D01*
X1017492Y727292D01*
X1017621Y727288D01*
X1017750Y727287D01*
X1017878Y727291D01*
X1018007Y727299D01*
X1018136Y727310D01*
X1018264Y727326D01*
X1018391Y727345D01*
X1018518Y727368D01*
X1018644Y727395D01*
X1018769Y727426D01*
X1018893Y727461D01*
X1019017Y727499D01*
X1019138Y727541D01*
X1019259Y727587D01*
X1019378Y727637D01*
X1019495Y727690D01*
X1019611Y727747D01*
X1019725Y727807D01*
X1019838Y727870D01*
X1019948Y727937D01*
X1020056Y728008D01*
X1020162Y728081D01*
X1020265Y728158D01*
X1020366Y728238D01*
X1020465Y728321D01*
X1020561Y728407D01*
X1020655Y728496D01*
X1020746Y728587D01*
X1020833Y728682D01*
X1020918Y728779D01*
X1021000Y728878D01*
X1021079Y728980D01*
X1021080Y728980D02*
X1021080Y751840D01*
X1021078Y751962D01*
X1021072Y752084D01*
X1021062Y752206D01*
X1021049Y752327D01*
X1021031Y752448D01*
X1021010Y752568D01*
X1020984Y752688D01*
X1020955Y752806D01*
X1020923Y752924D01*
X1020886Y753041D01*
X1020846Y753156D01*
X1020802Y753270D01*
X1020754Y753382D01*
X1020703Y753493D01*
X1020648Y753602D01*
X1020590Y753710D01*
X1020528Y753815D01*
X1020463Y753918D01*
X1020395Y754020D01*
X1020323Y754119D01*
X1020249Y754215D01*
X1020171Y754310D01*
X1020090Y754401D01*
X1020007Y754491D01*
X1019921Y754577D01*
X1019831Y754660D01*
X1019740Y754741D01*
X1019645Y754819D01*
X1019549Y754893D01*
X1019450Y754965D01*
X1019348Y755033D01*
X1019245Y755098D01*
X1019140Y755160D01*
X1019032Y755218D01*
X1018923Y755273D01*
X1018812Y755324D01*
X1018700Y755372D01*
X1018586Y755416D01*
X1018471Y755456D01*
X1018354Y755493D01*
X1018236Y755525D01*
X1018118Y755554D01*
X1017998Y755580D01*
X1017878Y755601D01*
X1017757Y755619D01*
X1017636Y755632D01*
X1017514Y755642D01*
X1017392Y755648D01*
X1017270Y755650D01*
X1017148Y755648D01*
X1017026Y755642D01*
X1016904Y755632D01*
X1016783Y755619D01*
X1016662Y755601D01*
X1016542Y755580D01*
X1016422Y755554D01*
X1016304Y755525D01*
X1016186Y755493D01*
X1016069Y755456D01*
X1015954Y755416D01*
X1015840Y755372D01*
X1015728Y755324D01*
X1015617Y755273D01*
X1015508Y755218D01*
X1015400Y755160D01*
X1015295Y755098D01*
X1015192Y755033D01*
X1015090Y754965D01*
X1014991Y754893D01*
X1014895Y754819D01*
X1014800Y754741D01*
X1014709Y754660D01*
X1014619Y754577D01*
X1014533Y754491D01*
X1014450Y754401D01*
X1014369Y754310D01*
X1014291Y754215D01*
X1014217Y754119D01*
X1014145Y754020D01*
X1014077Y753918D01*
X1014012Y753815D01*
X1013950Y753710D01*
X1013892Y753602D01*
X1013837Y753493D01*
X1013786Y753382D01*
X1013738Y753270D01*
X1013694Y753156D01*
X1013654Y753041D01*
X1013617Y752924D01*
X1013585Y752806D01*
X1013556Y752688D01*
X1013530Y752568D01*
X1013509Y752448D01*
X1013491Y752327D01*
X1013478Y752206D01*
X1013468Y752084D01*
X1013462Y751962D01*
X1013460Y751840D01*
X1013460Y716280D02*
X1013460Y695960D01*
X1013462Y695831D01*
X1013468Y695702D01*
X1013478Y695574D01*
X1013491Y695445D01*
X1013509Y695318D01*
X1013531Y695191D01*
X1013556Y695064D01*
X1013585Y694939D01*
X1013618Y694814D01*
X1013655Y694690D01*
X1013695Y694568D01*
X1013740Y694447D01*
X1013788Y694327D01*
X1013839Y694209D01*
X1013894Y694092D01*
X1013953Y693977D01*
X1014015Y693864D01*
X1014081Y693753D01*
X1014150Y693644D01*
X1014222Y693538D01*
X1014297Y693433D01*
X1014376Y693331D01*
X1014457Y693231D01*
X1014542Y693134D01*
X1014629Y693039D01*
X1014720Y692947D01*
X1014813Y692858D01*
X1014909Y692771D01*
X1015007Y692688D01*
X1015108Y692608D01*
X1015211Y692531D01*
X1015317Y692457D01*
X1015425Y692386D01*
X1015535Y692318D01*
X1015647Y692254D01*
X1015761Y692194D01*
X1015876Y692137D01*
X1015993Y692083D01*
X1016112Y692033D01*
X1016233Y691987D01*
X1016354Y691944D01*
X1016477Y691905D01*
X1016601Y691870D01*
X1016726Y691839D01*
X1016852Y691811D01*
X1016979Y691788D01*
X1017107Y691768D01*
X1017235Y691752D01*
X1017363Y691740D01*
X1017492Y691732D01*
X1017621Y691728D01*
X1017750Y691727D01*
X1017878Y691731D01*
X1018007Y691739D01*
X1018136Y691750D01*
X1018264Y691766D01*
X1018391Y691785D01*
X1018518Y691808D01*
X1018644Y691835D01*
X1018769Y691866D01*
X1018893Y691901D01*
X1019017Y691939D01*
X1019138Y691981D01*
X1019259Y692027D01*
X1019378Y692077D01*
X1019495Y692130D01*
X1019611Y692187D01*
X1019725Y692247D01*
X1019838Y692310D01*
X1019948Y692377D01*
X1020056Y692448D01*
X1020162Y692521D01*
X1020265Y692598D01*
X1020366Y692678D01*
X1020465Y692761D01*
X1020561Y692847D01*
X1020655Y692936D01*
X1020746Y693027D01*
X1020833Y693122D01*
X1020918Y693219D01*
X1021000Y693318D01*
X1021079Y693420D01*
X1021080Y693420D02*
X1021080Y716280D01*
X1021078Y716402D01*
X1021072Y716524D01*
X1021062Y716646D01*
X1021049Y716767D01*
X1021031Y716888D01*
X1021010Y717008D01*
X1020984Y717128D01*
X1020955Y717246D01*
X1020923Y717364D01*
X1020886Y717481D01*
X1020846Y717596D01*
X1020802Y717710D01*
X1020754Y717822D01*
X1020703Y717933D01*
X1020648Y718042D01*
X1020590Y718150D01*
X1020528Y718255D01*
X1020463Y718358D01*
X1020395Y718460D01*
X1020323Y718559D01*
X1020249Y718655D01*
X1020171Y718750D01*
X1020090Y718841D01*
X1020007Y718931D01*
X1019921Y719017D01*
X1019831Y719100D01*
X1019740Y719181D01*
X1019645Y719259D01*
X1019549Y719333D01*
X1019450Y719405D01*
X1019348Y719473D01*
X1019245Y719538D01*
X1019140Y719600D01*
X1019032Y719658D01*
X1018923Y719713D01*
X1018812Y719764D01*
X1018700Y719812D01*
X1018586Y719856D01*
X1018471Y719896D01*
X1018354Y719933D01*
X1018236Y719965D01*
X1018118Y719994D01*
X1017998Y720020D01*
X1017878Y720041D01*
X1017757Y720059D01*
X1017636Y720072D01*
X1017514Y720082D01*
X1017392Y720088D01*
X1017270Y720090D01*
X1017148Y720088D01*
X1017026Y720082D01*
X1016904Y720072D01*
X1016783Y720059D01*
X1016662Y720041D01*
X1016542Y720020D01*
X1016422Y719994D01*
X1016304Y719965D01*
X1016186Y719933D01*
X1016069Y719896D01*
X1015954Y719856D01*
X1015840Y719812D01*
X1015728Y719764D01*
X1015617Y719713D01*
X1015508Y719658D01*
X1015400Y719600D01*
X1015295Y719538D01*
X1015192Y719473D01*
X1015090Y719405D01*
X1014991Y719333D01*
X1014895Y719259D01*
X1014800Y719181D01*
X1014709Y719100D01*
X1014619Y719017D01*
X1014533Y718931D01*
X1014450Y718841D01*
X1014369Y718750D01*
X1014291Y718655D01*
X1014217Y718559D01*
X1014145Y718460D01*
X1014077Y718358D01*
X1014012Y718255D01*
X1013950Y718150D01*
X1013892Y718042D01*
X1013837Y717933D01*
X1013786Y717822D01*
X1013738Y717710D01*
X1013694Y717596D01*
X1013654Y717481D01*
X1013617Y717364D01*
X1013585Y717246D01*
X1013556Y717128D01*
X1013530Y717008D01*
X1013509Y716888D01*
X1013491Y716767D01*
X1013478Y716646D01*
X1013468Y716524D01*
X1013462Y716402D01*
X1013460Y716280D01*
X1013460Y680720D02*
X1013460Y660400D01*
X1013462Y660271D01*
X1013468Y660142D01*
X1013478Y660014D01*
X1013491Y659885D01*
X1013509Y659758D01*
X1013531Y659631D01*
X1013556Y659504D01*
X1013585Y659379D01*
X1013618Y659254D01*
X1013655Y659130D01*
X1013695Y659008D01*
X1013740Y658887D01*
X1013788Y658767D01*
X1013839Y658649D01*
X1013894Y658532D01*
X1013953Y658417D01*
X1014015Y658304D01*
X1014081Y658193D01*
X1014150Y658084D01*
X1014222Y657978D01*
X1014297Y657873D01*
X1014376Y657771D01*
X1014457Y657671D01*
X1014542Y657574D01*
X1014629Y657479D01*
X1014720Y657387D01*
X1014813Y657298D01*
X1014909Y657211D01*
X1015007Y657128D01*
X1015108Y657048D01*
X1015211Y656971D01*
X1015317Y656897D01*
X1015425Y656826D01*
X1015535Y656758D01*
X1015647Y656694D01*
X1015761Y656634D01*
X1015876Y656577D01*
X1015993Y656523D01*
X1016112Y656473D01*
X1016233Y656427D01*
X1016354Y656384D01*
X1016477Y656345D01*
X1016601Y656310D01*
X1016726Y656279D01*
X1016852Y656251D01*
X1016979Y656228D01*
X1017107Y656208D01*
X1017235Y656192D01*
X1017363Y656180D01*
X1017492Y656172D01*
X1017621Y656168D01*
X1017750Y656167D01*
X1017878Y656171D01*
X1018007Y656179D01*
X1018136Y656190D01*
X1018264Y656206D01*
X1018391Y656225D01*
X1018518Y656248D01*
X1018644Y656275D01*
X1018769Y656306D01*
X1018893Y656341D01*
X1019017Y656379D01*
X1019138Y656421D01*
X1019259Y656467D01*
X1019378Y656517D01*
X1019495Y656570D01*
X1019611Y656627D01*
X1019725Y656687D01*
X1019838Y656750D01*
X1019948Y656817D01*
X1020056Y656888D01*
X1020162Y656961D01*
X1020265Y657038D01*
X1020366Y657118D01*
X1020465Y657201D01*
X1020561Y657287D01*
X1020655Y657376D01*
X1020746Y657467D01*
X1020833Y657562D01*
X1020918Y657659D01*
X1021000Y657758D01*
X1021079Y657860D01*
X1021080Y657860D02*
X1021080Y680720D01*
X1021078Y680842D01*
X1021072Y680964D01*
X1021062Y681086D01*
X1021049Y681207D01*
X1021031Y681328D01*
X1021010Y681448D01*
X1020984Y681568D01*
X1020955Y681686D01*
X1020923Y681804D01*
X1020886Y681921D01*
X1020846Y682036D01*
X1020802Y682150D01*
X1020754Y682262D01*
X1020703Y682373D01*
X1020648Y682482D01*
X1020590Y682590D01*
X1020528Y682695D01*
X1020463Y682798D01*
X1020395Y682900D01*
X1020323Y682999D01*
X1020249Y683095D01*
X1020171Y683190D01*
X1020090Y683281D01*
X1020007Y683371D01*
X1019921Y683457D01*
X1019831Y683540D01*
X1019740Y683621D01*
X1019645Y683699D01*
X1019549Y683773D01*
X1019450Y683845D01*
X1019348Y683913D01*
X1019245Y683978D01*
X1019140Y684040D01*
X1019032Y684098D01*
X1018923Y684153D01*
X1018812Y684204D01*
X1018700Y684252D01*
X1018586Y684296D01*
X1018471Y684336D01*
X1018354Y684373D01*
X1018236Y684405D01*
X1018118Y684434D01*
X1017998Y684460D01*
X1017878Y684481D01*
X1017757Y684499D01*
X1017636Y684512D01*
X1017514Y684522D01*
X1017392Y684528D01*
X1017270Y684530D01*
X1017148Y684528D01*
X1017026Y684522D01*
X1016904Y684512D01*
X1016783Y684499D01*
X1016662Y684481D01*
X1016542Y684460D01*
X1016422Y684434D01*
X1016304Y684405D01*
X1016186Y684373D01*
X1016069Y684336D01*
X1015954Y684296D01*
X1015840Y684252D01*
X1015728Y684204D01*
X1015617Y684153D01*
X1015508Y684098D01*
X1015400Y684040D01*
X1015295Y683978D01*
X1015192Y683913D01*
X1015090Y683845D01*
X1014991Y683773D01*
X1014895Y683699D01*
X1014800Y683621D01*
X1014709Y683540D01*
X1014619Y683457D01*
X1014533Y683371D01*
X1014450Y683281D01*
X1014369Y683190D01*
X1014291Y683095D01*
X1014217Y682999D01*
X1014145Y682900D01*
X1014077Y682798D01*
X1014012Y682695D01*
X1013950Y682590D01*
X1013892Y682482D01*
X1013837Y682373D01*
X1013786Y682262D01*
X1013738Y682150D01*
X1013694Y682036D01*
X1013654Y681921D01*
X1013617Y681804D01*
X1013585Y681686D01*
X1013556Y681568D01*
X1013530Y681448D01*
X1013509Y681328D01*
X1013491Y681207D01*
X1013478Y681086D01*
X1013468Y680964D01*
X1013462Y680842D01*
X1013460Y680720D01*
X1013460Y645160D02*
X1013460Y624840D01*
X1013462Y624711D01*
X1013468Y624582D01*
X1013478Y624454D01*
X1013491Y624325D01*
X1013509Y624198D01*
X1013531Y624071D01*
X1013556Y623944D01*
X1013585Y623819D01*
X1013618Y623694D01*
X1013655Y623570D01*
X1013695Y623448D01*
X1013740Y623327D01*
X1013788Y623207D01*
X1013839Y623089D01*
X1013894Y622972D01*
X1013953Y622857D01*
X1014015Y622744D01*
X1014081Y622633D01*
X1014150Y622524D01*
X1014222Y622418D01*
X1014297Y622313D01*
X1014376Y622211D01*
X1014457Y622111D01*
X1014542Y622014D01*
X1014629Y621919D01*
X1014720Y621827D01*
X1014813Y621738D01*
X1014909Y621651D01*
X1015007Y621568D01*
X1015108Y621488D01*
X1015211Y621411D01*
X1015317Y621337D01*
X1015425Y621266D01*
X1015535Y621198D01*
X1015647Y621134D01*
X1015761Y621074D01*
X1015876Y621017D01*
X1015993Y620963D01*
X1016112Y620913D01*
X1016233Y620867D01*
X1016354Y620824D01*
X1016477Y620785D01*
X1016601Y620750D01*
X1016726Y620719D01*
X1016852Y620691D01*
X1016979Y620668D01*
X1017107Y620648D01*
X1017235Y620632D01*
X1017363Y620620D01*
X1017492Y620612D01*
X1017621Y620608D01*
X1017750Y620607D01*
X1017878Y620611D01*
X1018007Y620619D01*
X1018136Y620630D01*
X1018264Y620646D01*
X1018391Y620665D01*
X1018518Y620688D01*
X1018644Y620715D01*
X1018769Y620746D01*
X1018893Y620781D01*
X1019017Y620819D01*
X1019138Y620861D01*
X1019259Y620907D01*
X1019378Y620957D01*
X1019495Y621010D01*
X1019611Y621067D01*
X1019725Y621127D01*
X1019838Y621190D01*
X1019948Y621257D01*
X1020056Y621328D01*
X1020162Y621401D01*
X1020265Y621478D01*
X1020366Y621558D01*
X1020465Y621641D01*
X1020561Y621727D01*
X1020655Y621816D01*
X1020746Y621907D01*
X1020833Y622002D01*
X1020918Y622099D01*
X1021000Y622198D01*
X1021079Y622300D01*
X1021080Y622300D02*
X1021080Y645160D01*
X1021078Y645282D01*
X1021072Y645404D01*
X1021062Y645526D01*
X1021049Y645647D01*
X1021031Y645768D01*
X1021010Y645888D01*
X1020984Y646008D01*
X1020955Y646126D01*
X1020923Y646244D01*
X1020886Y646361D01*
X1020846Y646476D01*
X1020802Y646590D01*
X1020754Y646702D01*
X1020703Y646813D01*
X1020648Y646922D01*
X1020590Y647030D01*
X1020528Y647135D01*
X1020463Y647238D01*
X1020395Y647340D01*
X1020323Y647439D01*
X1020249Y647535D01*
X1020171Y647630D01*
X1020090Y647721D01*
X1020007Y647811D01*
X1019921Y647897D01*
X1019831Y647980D01*
X1019740Y648061D01*
X1019645Y648139D01*
X1019549Y648213D01*
X1019450Y648285D01*
X1019348Y648353D01*
X1019245Y648418D01*
X1019140Y648480D01*
X1019032Y648538D01*
X1018923Y648593D01*
X1018812Y648644D01*
X1018700Y648692D01*
X1018586Y648736D01*
X1018471Y648776D01*
X1018354Y648813D01*
X1018236Y648845D01*
X1018118Y648874D01*
X1017998Y648900D01*
X1017878Y648921D01*
X1017757Y648939D01*
X1017636Y648952D01*
X1017514Y648962D01*
X1017392Y648968D01*
X1017270Y648970D01*
X1017148Y648968D01*
X1017026Y648962D01*
X1016904Y648952D01*
X1016783Y648939D01*
X1016662Y648921D01*
X1016542Y648900D01*
X1016422Y648874D01*
X1016304Y648845D01*
X1016186Y648813D01*
X1016069Y648776D01*
X1015954Y648736D01*
X1015840Y648692D01*
X1015728Y648644D01*
X1015617Y648593D01*
X1015508Y648538D01*
X1015400Y648480D01*
X1015295Y648418D01*
X1015192Y648353D01*
X1015090Y648285D01*
X1014991Y648213D01*
X1014895Y648139D01*
X1014800Y648061D01*
X1014709Y647980D01*
X1014619Y647897D01*
X1014533Y647811D01*
X1014450Y647721D01*
X1014369Y647630D01*
X1014291Y647535D01*
X1014217Y647439D01*
X1014145Y647340D01*
X1014077Y647238D01*
X1014012Y647135D01*
X1013950Y647030D01*
X1013892Y646922D01*
X1013837Y646813D01*
X1013786Y646702D01*
X1013738Y646590D01*
X1013694Y646476D01*
X1013654Y646361D01*
X1013617Y646244D01*
X1013585Y646126D01*
X1013556Y646008D01*
X1013530Y645888D01*
X1013509Y645768D01*
X1013491Y645647D01*
X1013478Y645526D01*
X1013468Y645404D01*
X1013462Y645282D01*
X1013460Y645160D01*
X1013460Y609600D02*
X1013460Y589280D01*
X1013462Y589151D01*
X1013468Y589022D01*
X1013478Y588894D01*
X1013491Y588765D01*
X1013509Y588638D01*
X1013531Y588511D01*
X1013556Y588384D01*
X1013585Y588259D01*
X1013618Y588134D01*
X1013655Y588010D01*
X1013695Y587888D01*
X1013740Y587767D01*
X1013788Y587647D01*
X1013839Y587529D01*
X1013894Y587412D01*
X1013953Y587297D01*
X1014015Y587184D01*
X1014081Y587073D01*
X1014150Y586964D01*
X1014222Y586858D01*
X1014297Y586753D01*
X1014376Y586651D01*
X1014457Y586551D01*
X1014542Y586454D01*
X1014629Y586359D01*
X1014720Y586267D01*
X1014813Y586178D01*
X1014909Y586091D01*
X1015007Y586008D01*
X1015108Y585928D01*
X1015211Y585851D01*
X1015317Y585777D01*
X1015425Y585706D01*
X1015535Y585638D01*
X1015647Y585574D01*
X1015761Y585514D01*
X1015876Y585457D01*
X1015993Y585403D01*
X1016112Y585353D01*
X1016233Y585307D01*
X1016354Y585264D01*
X1016477Y585225D01*
X1016601Y585190D01*
X1016726Y585159D01*
X1016852Y585131D01*
X1016979Y585108D01*
X1017107Y585088D01*
X1017235Y585072D01*
X1017363Y585060D01*
X1017492Y585052D01*
X1017621Y585048D01*
X1017750Y585047D01*
X1017878Y585051D01*
X1018007Y585059D01*
X1018136Y585070D01*
X1018264Y585086D01*
X1018391Y585105D01*
X1018518Y585128D01*
X1018644Y585155D01*
X1018769Y585186D01*
X1018893Y585221D01*
X1019017Y585259D01*
X1019138Y585301D01*
X1019259Y585347D01*
X1019378Y585397D01*
X1019495Y585450D01*
X1019611Y585507D01*
X1019725Y585567D01*
X1019838Y585630D01*
X1019948Y585697D01*
X1020056Y585768D01*
X1020162Y585841D01*
X1020265Y585918D01*
X1020366Y585998D01*
X1020465Y586081D01*
X1020561Y586167D01*
X1020655Y586256D01*
X1020746Y586347D01*
X1020833Y586442D01*
X1020918Y586539D01*
X1021000Y586638D01*
X1021079Y586740D01*
X1021080Y586740D02*
X1021080Y609600D01*
X1021078Y609722D01*
X1021072Y609844D01*
X1021062Y609966D01*
X1021049Y610087D01*
X1021031Y610208D01*
X1021010Y610328D01*
X1020984Y610448D01*
X1020955Y610566D01*
X1020923Y610684D01*
X1020886Y610801D01*
X1020846Y610916D01*
X1020802Y611030D01*
X1020754Y611142D01*
X1020703Y611253D01*
X1020648Y611362D01*
X1020590Y611470D01*
X1020528Y611575D01*
X1020463Y611678D01*
X1020395Y611780D01*
X1020323Y611879D01*
X1020249Y611975D01*
X1020171Y612070D01*
X1020090Y612161D01*
X1020007Y612251D01*
X1019921Y612337D01*
X1019831Y612420D01*
X1019740Y612501D01*
X1019645Y612579D01*
X1019549Y612653D01*
X1019450Y612725D01*
X1019348Y612793D01*
X1019245Y612858D01*
X1019140Y612920D01*
X1019032Y612978D01*
X1018923Y613033D01*
X1018812Y613084D01*
X1018700Y613132D01*
X1018586Y613176D01*
X1018471Y613216D01*
X1018354Y613253D01*
X1018236Y613285D01*
X1018118Y613314D01*
X1017998Y613340D01*
X1017878Y613361D01*
X1017757Y613379D01*
X1017636Y613392D01*
X1017514Y613402D01*
X1017392Y613408D01*
X1017270Y613410D01*
X1017148Y613408D01*
X1017026Y613402D01*
X1016904Y613392D01*
X1016783Y613379D01*
X1016662Y613361D01*
X1016542Y613340D01*
X1016422Y613314D01*
X1016304Y613285D01*
X1016186Y613253D01*
X1016069Y613216D01*
X1015954Y613176D01*
X1015840Y613132D01*
X1015728Y613084D01*
X1015617Y613033D01*
X1015508Y612978D01*
X1015400Y612920D01*
X1015295Y612858D01*
X1015192Y612793D01*
X1015090Y612725D01*
X1014991Y612653D01*
X1014895Y612579D01*
X1014800Y612501D01*
X1014709Y612420D01*
X1014619Y612337D01*
X1014533Y612251D01*
X1014450Y612161D01*
X1014369Y612070D01*
X1014291Y611975D01*
X1014217Y611879D01*
X1014145Y611780D01*
X1014077Y611678D01*
X1014012Y611575D01*
X1013950Y611470D01*
X1013892Y611362D01*
X1013837Y611253D01*
X1013786Y611142D01*
X1013738Y611030D01*
X1013694Y610916D01*
X1013654Y610801D01*
X1013617Y610684D01*
X1013585Y610566D01*
X1013556Y610448D01*
X1013530Y610328D01*
X1013509Y610208D01*
X1013491Y610087D01*
X1013478Y609966D01*
X1013468Y609844D01*
X1013462Y609722D01*
X1013460Y609600D01*
X1013460Y574040D02*
X1013460Y553720D01*
X1013462Y553591D01*
X1013468Y553462D01*
X1013478Y553334D01*
X1013491Y553205D01*
X1013509Y553078D01*
X1013531Y552951D01*
X1013556Y552824D01*
X1013585Y552699D01*
X1013618Y552574D01*
X1013655Y552450D01*
X1013695Y552328D01*
X1013740Y552207D01*
X1013788Y552087D01*
X1013839Y551969D01*
X1013894Y551852D01*
X1013953Y551737D01*
X1014015Y551624D01*
X1014081Y551513D01*
X1014150Y551404D01*
X1014222Y551298D01*
X1014297Y551193D01*
X1014376Y551091D01*
X1014457Y550991D01*
X1014542Y550894D01*
X1014629Y550799D01*
X1014720Y550707D01*
X1014813Y550618D01*
X1014909Y550531D01*
X1015007Y550448D01*
X1015108Y550368D01*
X1015211Y550291D01*
X1015317Y550217D01*
X1015425Y550146D01*
X1015535Y550078D01*
X1015647Y550014D01*
X1015761Y549954D01*
X1015876Y549897D01*
X1015993Y549843D01*
X1016112Y549793D01*
X1016233Y549747D01*
X1016354Y549704D01*
X1016477Y549665D01*
X1016601Y549630D01*
X1016726Y549599D01*
X1016852Y549571D01*
X1016979Y549548D01*
X1017107Y549528D01*
X1017235Y549512D01*
X1017363Y549500D01*
X1017492Y549492D01*
X1017621Y549488D01*
X1017750Y549487D01*
X1017878Y549491D01*
X1018007Y549499D01*
X1018136Y549510D01*
X1018264Y549526D01*
X1018391Y549545D01*
X1018518Y549568D01*
X1018644Y549595D01*
X1018769Y549626D01*
X1018893Y549661D01*
X1019017Y549699D01*
X1019138Y549741D01*
X1019259Y549787D01*
X1019378Y549837D01*
X1019495Y549890D01*
X1019611Y549947D01*
X1019725Y550007D01*
X1019838Y550070D01*
X1019948Y550137D01*
X1020056Y550208D01*
X1020162Y550281D01*
X1020265Y550358D01*
X1020366Y550438D01*
X1020465Y550521D01*
X1020561Y550607D01*
X1020655Y550696D01*
X1020746Y550787D01*
X1020833Y550882D01*
X1020918Y550979D01*
X1021000Y551078D01*
X1021079Y551180D01*
X1021080Y551180D02*
X1021080Y574040D01*
X1021078Y574162D01*
X1021072Y574284D01*
X1021062Y574406D01*
X1021049Y574527D01*
X1021031Y574648D01*
X1021010Y574768D01*
X1020984Y574888D01*
X1020955Y575006D01*
X1020923Y575124D01*
X1020886Y575241D01*
X1020846Y575356D01*
X1020802Y575470D01*
X1020754Y575582D01*
X1020703Y575693D01*
X1020648Y575802D01*
X1020590Y575910D01*
X1020528Y576015D01*
X1020463Y576118D01*
X1020395Y576220D01*
X1020323Y576319D01*
X1020249Y576415D01*
X1020171Y576510D01*
X1020090Y576601D01*
X1020007Y576691D01*
X1019921Y576777D01*
X1019831Y576860D01*
X1019740Y576941D01*
X1019645Y577019D01*
X1019549Y577093D01*
X1019450Y577165D01*
X1019348Y577233D01*
X1019245Y577298D01*
X1019140Y577360D01*
X1019032Y577418D01*
X1018923Y577473D01*
X1018812Y577524D01*
X1018700Y577572D01*
X1018586Y577616D01*
X1018471Y577656D01*
X1018354Y577693D01*
X1018236Y577725D01*
X1018118Y577754D01*
X1017998Y577780D01*
X1017878Y577801D01*
X1017757Y577819D01*
X1017636Y577832D01*
X1017514Y577842D01*
X1017392Y577848D01*
X1017270Y577850D01*
X1017148Y577848D01*
X1017026Y577842D01*
X1016904Y577832D01*
X1016783Y577819D01*
X1016662Y577801D01*
X1016542Y577780D01*
X1016422Y577754D01*
X1016304Y577725D01*
X1016186Y577693D01*
X1016069Y577656D01*
X1015954Y577616D01*
X1015840Y577572D01*
X1015728Y577524D01*
X1015617Y577473D01*
X1015508Y577418D01*
X1015400Y577360D01*
X1015295Y577298D01*
X1015192Y577233D01*
X1015090Y577165D01*
X1014991Y577093D01*
X1014895Y577019D01*
X1014800Y576941D01*
X1014709Y576860D01*
X1014619Y576777D01*
X1014533Y576691D01*
X1014450Y576601D01*
X1014369Y576510D01*
X1014291Y576415D01*
X1014217Y576319D01*
X1014145Y576220D01*
X1014077Y576118D01*
X1014012Y576015D01*
X1013950Y575910D01*
X1013892Y575802D01*
X1013837Y575693D01*
X1013786Y575582D01*
X1013738Y575470D01*
X1013694Y575356D01*
X1013654Y575241D01*
X1013617Y575124D01*
X1013585Y575006D01*
X1013556Y574888D01*
X1013530Y574768D01*
X1013509Y574648D01*
X1013491Y574527D01*
X1013478Y574406D01*
X1013468Y574284D01*
X1013462Y574162D01*
X1013460Y574040D01*
X1013460Y538480D02*
X1013460Y518160D01*
X1013462Y518031D01*
X1013468Y517902D01*
X1013478Y517774D01*
X1013491Y517645D01*
X1013509Y517518D01*
X1013531Y517391D01*
X1013556Y517264D01*
X1013585Y517139D01*
X1013618Y517014D01*
X1013655Y516890D01*
X1013695Y516768D01*
X1013740Y516647D01*
X1013788Y516527D01*
X1013839Y516409D01*
X1013894Y516292D01*
X1013953Y516177D01*
X1014015Y516064D01*
X1014081Y515953D01*
X1014150Y515844D01*
X1014222Y515738D01*
X1014297Y515633D01*
X1014376Y515531D01*
X1014457Y515431D01*
X1014542Y515334D01*
X1014629Y515239D01*
X1014720Y515147D01*
X1014813Y515058D01*
X1014909Y514971D01*
X1015007Y514888D01*
X1015108Y514808D01*
X1015211Y514731D01*
X1015317Y514657D01*
X1015425Y514586D01*
X1015535Y514518D01*
X1015647Y514454D01*
X1015761Y514394D01*
X1015876Y514337D01*
X1015993Y514283D01*
X1016112Y514233D01*
X1016233Y514187D01*
X1016354Y514144D01*
X1016477Y514105D01*
X1016601Y514070D01*
X1016726Y514039D01*
X1016852Y514011D01*
X1016979Y513988D01*
X1017107Y513968D01*
X1017235Y513952D01*
X1017363Y513940D01*
X1017492Y513932D01*
X1017621Y513928D01*
X1017750Y513927D01*
X1017878Y513931D01*
X1018007Y513939D01*
X1018136Y513950D01*
X1018264Y513966D01*
X1018391Y513985D01*
X1018518Y514008D01*
X1018644Y514035D01*
X1018769Y514066D01*
X1018893Y514101D01*
X1019017Y514139D01*
X1019138Y514181D01*
X1019259Y514227D01*
X1019378Y514277D01*
X1019495Y514330D01*
X1019611Y514387D01*
X1019725Y514447D01*
X1019838Y514510D01*
X1019948Y514577D01*
X1020056Y514648D01*
X1020162Y514721D01*
X1020265Y514798D01*
X1020366Y514878D01*
X1020465Y514961D01*
X1020561Y515047D01*
X1020655Y515136D01*
X1020746Y515227D01*
X1020833Y515322D01*
X1020918Y515419D01*
X1021000Y515518D01*
X1021079Y515620D01*
X1021080Y515620D02*
X1021080Y538480D01*
X1021078Y538602D01*
X1021072Y538724D01*
X1021062Y538846D01*
X1021049Y538967D01*
X1021031Y539088D01*
X1021010Y539208D01*
X1020984Y539328D01*
X1020955Y539446D01*
X1020923Y539564D01*
X1020886Y539681D01*
X1020846Y539796D01*
X1020802Y539910D01*
X1020754Y540022D01*
X1020703Y540133D01*
X1020648Y540242D01*
X1020590Y540350D01*
X1020528Y540455D01*
X1020463Y540558D01*
X1020395Y540660D01*
X1020323Y540759D01*
X1020249Y540855D01*
X1020171Y540950D01*
X1020090Y541041D01*
X1020007Y541131D01*
X1019921Y541217D01*
X1019831Y541300D01*
X1019740Y541381D01*
X1019645Y541459D01*
X1019549Y541533D01*
X1019450Y541605D01*
X1019348Y541673D01*
X1019245Y541738D01*
X1019140Y541800D01*
X1019032Y541858D01*
X1018923Y541913D01*
X1018812Y541964D01*
X1018700Y542012D01*
X1018586Y542056D01*
X1018471Y542096D01*
X1018354Y542133D01*
X1018236Y542165D01*
X1018118Y542194D01*
X1017998Y542220D01*
X1017878Y542241D01*
X1017757Y542259D01*
X1017636Y542272D01*
X1017514Y542282D01*
X1017392Y542288D01*
X1017270Y542290D01*
X1017148Y542288D01*
X1017026Y542282D01*
X1016904Y542272D01*
X1016783Y542259D01*
X1016662Y542241D01*
X1016542Y542220D01*
X1016422Y542194D01*
X1016304Y542165D01*
X1016186Y542133D01*
X1016069Y542096D01*
X1015954Y542056D01*
X1015840Y542012D01*
X1015728Y541964D01*
X1015617Y541913D01*
X1015508Y541858D01*
X1015400Y541800D01*
X1015295Y541738D01*
X1015192Y541673D01*
X1015090Y541605D01*
X1014991Y541533D01*
X1014895Y541459D01*
X1014800Y541381D01*
X1014709Y541300D01*
X1014619Y541217D01*
X1014533Y541131D01*
X1014450Y541041D01*
X1014369Y540950D01*
X1014291Y540855D01*
X1014217Y540759D01*
X1014145Y540660D01*
X1014077Y540558D01*
X1014012Y540455D01*
X1013950Y540350D01*
X1013892Y540242D01*
X1013837Y540133D01*
X1013786Y540022D01*
X1013738Y539910D01*
X1013694Y539796D01*
X1013654Y539681D01*
X1013617Y539564D01*
X1013585Y539446D01*
X1013556Y539328D01*
X1013530Y539208D01*
X1013509Y539088D01*
X1013491Y538967D01*
X1013478Y538846D01*
X1013468Y538724D01*
X1013462Y538602D01*
X1013460Y538480D01*
X1013460Y502920D02*
X1013460Y482600D01*
X1013462Y482471D01*
X1013468Y482342D01*
X1013478Y482214D01*
X1013491Y482085D01*
X1013509Y481958D01*
X1013531Y481831D01*
X1013556Y481704D01*
X1013585Y481579D01*
X1013618Y481454D01*
X1013655Y481330D01*
X1013695Y481208D01*
X1013740Y481087D01*
X1013788Y480967D01*
X1013839Y480849D01*
X1013894Y480732D01*
X1013953Y480617D01*
X1014015Y480504D01*
X1014081Y480393D01*
X1014150Y480284D01*
X1014222Y480178D01*
X1014297Y480073D01*
X1014376Y479971D01*
X1014457Y479871D01*
X1014542Y479774D01*
X1014629Y479679D01*
X1014720Y479587D01*
X1014813Y479498D01*
X1014909Y479411D01*
X1015007Y479328D01*
X1015108Y479248D01*
X1015211Y479171D01*
X1015317Y479097D01*
X1015425Y479026D01*
X1015535Y478958D01*
X1015647Y478894D01*
X1015761Y478834D01*
X1015876Y478777D01*
X1015993Y478723D01*
X1016112Y478673D01*
X1016233Y478627D01*
X1016354Y478584D01*
X1016477Y478545D01*
X1016601Y478510D01*
X1016726Y478479D01*
X1016852Y478451D01*
X1016979Y478428D01*
X1017107Y478408D01*
X1017235Y478392D01*
X1017363Y478380D01*
X1017492Y478372D01*
X1017621Y478368D01*
X1017750Y478367D01*
X1017878Y478371D01*
X1018007Y478379D01*
X1018136Y478390D01*
X1018264Y478406D01*
X1018391Y478425D01*
X1018518Y478448D01*
X1018644Y478475D01*
X1018769Y478506D01*
X1018893Y478541D01*
X1019017Y478579D01*
X1019138Y478621D01*
X1019259Y478667D01*
X1019378Y478717D01*
X1019495Y478770D01*
X1019611Y478827D01*
X1019725Y478887D01*
X1019838Y478950D01*
X1019948Y479017D01*
X1020056Y479088D01*
X1020162Y479161D01*
X1020265Y479238D01*
X1020366Y479318D01*
X1020465Y479401D01*
X1020561Y479487D01*
X1020655Y479576D01*
X1020746Y479667D01*
X1020833Y479762D01*
X1020918Y479859D01*
X1021000Y479958D01*
X1021079Y480060D01*
X1021080Y480060D02*
X1021080Y502920D01*
X1021078Y503042D01*
X1021072Y503164D01*
X1021062Y503286D01*
X1021049Y503407D01*
X1021031Y503528D01*
X1021010Y503648D01*
X1020984Y503768D01*
X1020955Y503886D01*
X1020923Y504004D01*
X1020886Y504121D01*
X1020846Y504236D01*
X1020802Y504350D01*
X1020754Y504462D01*
X1020703Y504573D01*
X1020648Y504682D01*
X1020590Y504790D01*
X1020528Y504895D01*
X1020463Y504998D01*
X1020395Y505100D01*
X1020323Y505199D01*
X1020249Y505295D01*
X1020171Y505390D01*
X1020090Y505481D01*
X1020007Y505571D01*
X1019921Y505657D01*
X1019831Y505740D01*
X1019740Y505821D01*
X1019645Y505899D01*
X1019549Y505973D01*
X1019450Y506045D01*
X1019348Y506113D01*
X1019245Y506178D01*
X1019140Y506240D01*
X1019032Y506298D01*
X1018923Y506353D01*
X1018812Y506404D01*
X1018700Y506452D01*
X1018586Y506496D01*
X1018471Y506536D01*
X1018354Y506573D01*
X1018236Y506605D01*
X1018118Y506634D01*
X1017998Y506660D01*
X1017878Y506681D01*
X1017757Y506699D01*
X1017636Y506712D01*
X1017514Y506722D01*
X1017392Y506728D01*
X1017270Y506730D01*
X1017148Y506728D01*
X1017026Y506722D01*
X1016904Y506712D01*
X1016783Y506699D01*
X1016662Y506681D01*
X1016542Y506660D01*
X1016422Y506634D01*
X1016304Y506605D01*
X1016186Y506573D01*
X1016069Y506536D01*
X1015954Y506496D01*
X1015840Y506452D01*
X1015728Y506404D01*
X1015617Y506353D01*
X1015508Y506298D01*
X1015400Y506240D01*
X1015295Y506178D01*
X1015192Y506113D01*
X1015090Y506045D01*
X1014991Y505973D01*
X1014895Y505899D01*
X1014800Y505821D01*
X1014709Y505740D01*
X1014619Y505657D01*
X1014533Y505571D01*
X1014450Y505481D01*
X1014369Y505390D01*
X1014291Y505295D01*
X1014217Y505199D01*
X1014145Y505100D01*
X1014077Y504998D01*
X1014012Y504895D01*
X1013950Y504790D01*
X1013892Y504682D01*
X1013837Y504573D01*
X1013786Y504462D01*
X1013738Y504350D01*
X1013694Y504236D01*
X1013654Y504121D01*
X1013617Y504004D01*
X1013585Y503886D01*
X1013556Y503768D01*
X1013530Y503648D01*
X1013509Y503528D01*
X1013491Y503407D01*
X1013478Y503286D01*
X1013468Y503164D01*
X1013462Y503042D01*
X1013460Y502920D01*
X1013460Y467360D02*
X1013460Y447040D01*
X1013462Y446911D01*
X1013468Y446782D01*
X1013478Y446654D01*
X1013491Y446525D01*
X1013509Y446398D01*
X1013531Y446271D01*
X1013556Y446144D01*
X1013585Y446019D01*
X1013618Y445894D01*
X1013655Y445770D01*
X1013695Y445648D01*
X1013740Y445527D01*
X1013788Y445407D01*
X1013839Y445289D01*
X1013894Y445172D01*
X1013953Y445057D01*
X1014015Y444944D01*
X1014081Y444833D01*
X1014150Y444724D01*
X1014222Y444618D01*
X1014297Y444513D01*
X1014376Y444411D01*
X1014457Y444311D01*
X1014542Y444214D01*
X1014629Y444119D01*
X1014720Y444027D01*
X1014813Y443938D01*
X1014909Y443851D01*
X1015007Y443768D01*
X1015108Y443688D01*
X1015211Y443611D01*
X1015317Y443537D01*
X1015425Y443466D01*
X1015535Y443398D01*
X1015647Y443334D01*
X1015761Y443274D01*
X1015876Y443217D01*
X1015993Y443163D01*
X1016112Y443113D01*
X1016233Y443067D01*
X1016354Y443024D01*
X1016477Y442985D01*
X1016601Y442950D01*
X1016726Y442919D01*
X1016852Y442891D01*
X1016979Y442868D01*
X1017107Y442848D01*
X1017235Y442832D01*
X1017363Y442820D01*
X1017492Y442812D01*
X1017621Y442808D01*
X1017750Y442807D01*
X1017878Y442811D01*
X1018007Y442819D01*
X1018136Y442830D01*
X1018264Y442846D01*
X1018391Y442865D01*
X1018518Y442888D01*
X1018644Y442915D01*
X1018769Y442946D01*
X1018893Y442981D01*
X1019017Y443019D01*
X1019138Y443061D01*
X1019259Y443107D01*
X1019378Y443157D01*
X1019495Y443210D01*
X1019611Y443267D01*
X1019725Y443327D01*
X1019838Y443390D01*
X1019948Y443457D01*
X1020056Y443528D01*
X1020162Y443601D01*
X1020265Y443678D01*
X1020366Y443758D01*
X1020465Y443841D01*
X1020561Y443927D01*
X1020655Y444016D01*
X1020746Y444107D01*
X1020833Y444202D01*
X1020918Y444299D01*
X1021000Y444398D01*
X1021079Y444500D01*
X1021080Y444500D02*
X1021080Y467360D01*
X1021078Y467482D01*
X1021072Y467604D01*
X1021062Y467726D01*
X1021049Y467847D01*
X1021031Y467968D01*
X1021010Y468088D01*
X1020984Y468208D01*
X1020955Y468326D01*
X1020923Y468444D01*
X1020886Y468561D01*
X1020846Y468676D01*
X1020802Y468790D01*
X1020754Y468902D01*
X1020703Y469013D01*
X1020648Y469122D01*
X1020590Y469230D01*
X1020528Y469335D01*
X1020463Y469438D01*
X1020395Y469540D01*
X1020323Y469639D01*
X1020249Y469735D01*
X1020171Y469830D01*
X1020090Y469921D01*
X1020007Y470011D01*
X1019921Y470097D01*
X1019831Y470180D01*
X1019740Y470261D01*
X1019645Y470339D01*
X1019549Y470413D01*
X1019450Y470485D01*
X1019348Y470553D01*
X1019245Y470618D01*
X1019140Y470680D01*
X1019032Y470738D01*
X1018923Y470793D01*
X1018812Y470844D01*
X1018700Y470892D01*
X1018586Y470936D01*
X1018471Y470976D01*
X1018354Y471013D01*
X1018236Y471045D01*
X1018118Y471074D01*
X1017998Y471100D01*
X1017878Y471121D01*
X1017757Y471139D01*
X1017636Y471152D01*
X1017514Y471162D01*
X1017392Y471168D01*
X1017270Y471170D01*
X1017148Y471168D01*
X1017026Y471162D01*
X1016904Y471152D01*
X1016783Y471139D01*
X1016662Y471121D01*
X1016542Y471100D01*
X1016422Y471074D01*
X1016304Y471045D01*
X1016186Y471013D01*
X1016069Y470976D01*
X1015954Y470936D01*
X1015840Y470892D01*
X1015728Y470844D01*
X1015617Y470793D01*
X1015508Y470738D01*
X1015400Y470680D01*
X1015295Y470618D01*
X1015192Y470553D01*
X1015090Y470485D01*
X1014991Y470413D01*
X1014895Y470339D01*
X1014800Y470261D01*
X1014709Y470180D01*
X1014619Y470097D01*
X1014533Y470011D01*
X1014450Y469921D01*
X1014369Y469830D01*
X1014291Y469735D01*
X1014217Y469639D01*
X1014145Y469540D01*
X1014077Y469438D01*
X1014012Y469335D01*
X1013950Y469230D01*
X1013892Y469122D01*
X1013837Y469013D01*
X1013786Y468902D01*
X1013738Y468790D01*
X1013694Y468676D01*
X1013654Y468561D01*
X1013617Y468444D01*
X1013585Y468326D01*
X1013556Y468208D01*
X1013530Y468088D01*
X1013509Y467968D01*
X1013491Y467847D01*
X1013478Y467726D01*
X1013468Y467604D01*
X1013462Y467482D01*
X1013460Y467360D01*
X1013460Y431800D02*
X1013460Y411480D01*
X1013462Y411351D01*
X1013468Y411222D01*
X1013478Y411094D01*
X1013491Y410965D01*
X1013509Y410838D01*
X1013531Y410711D01*
X1013556Y410584D01*
X1013585Y410459D01*
X1013618Y410334D01*
X1013655Y410210D01*
X1013695Y410088D01*
X1013740Y409967D01*
X1013788Y409847D01*
X1013839Y409729D01*
X1013894Y409612D01*
X1013953Y409497D01*
X1014015Y409384D01*
X1014081Y409273D01*
X1014150Y409164D01*
X1014222Y409058D01*
X1014297Y408953D01*
X1014376Y408851D01*
X1014457Y408751D01*
X1014542Y408654D01*
X1014629Y408559D01*
X1014720Y408467D01*
X1014813Y408378D01*
X1014909Y408291D01*
X1015007Y408208D01*
X1015108Y408128D01*
X1015211Y408051D01*
X1015317Y407977D01*
X1015425Y407906D01*
X1015535Y407838D01*
X1015647Y407774D01*
X1015761Y407714D01*
X1015876Y407657D01*
X1015993Y407603D01*
X1016112Y407553D01*
X1016233Y407507D01*
X1016354Y407464D01*
X1016477Y407425D01*
X1016601Y407390D01*
X1016726Y407359D01*
X1016852Y407331D01*
X1016979Y407308D01*
X1017107Y407288D01*
X1017235Y407272D01*
X1017363Y407260D01*
X1017492Y407252D01*
X1017621Y407248D01*
X1017750Y407247D01*
X1017878Y407251D01*
X1018007Y407259D01*
X1018136Y407270D01*
X1018264Y407286D01*
X1018391Y407305D01*
X1018518Y407328D01*
X1018644Y407355D01*
X1018769Y407386D01*
X1018893Y407421D01*
X1019017Y407459D01*
X1019138Y407501D01*
X1019259Y407547D01*
X1019378Y407597D01*
X1019495Y407650D01*
X1019611Y407707D01*
X1019725Y407767D01*
X1019838Y407830D01*
X1019948Y407897D01*
X1020056Y407968D01*
X1020162Y408041D01*
X1020265Y408118D01*
X1020366Y408198D01*
X1020465Y408281D01*
X1020561Y408367D01*
X1020655Y408456D01*
X1020746Y408547D01*
X1020833Y408642D01*
X1020918Y408739D01*
X1021000Y408838D01*
X1021079Y408940D01*
X1021080Y408940D02*
X1021080Y431800D01*
X1021078Y431922D01*
X1021072Y432044D01*
X1021062Y432166D01*
X1021049Y432287D01*
X1021031Y432408D01*
X1021010Y432528D01*
X1020984Y432648D01*
X1020955Y432766D01*
X1020923Y432884D01*
X1020886Y433001D01*
X1020846Y433116D01*
X1020802Y433230D01*
X1020754Y433342D01*
X1020703Y433453D01*
X1020648Y433562D01*
X1020590Y433670D01*
X1020528Y433775D01*
X1020463Y433878D01*
X1020395Y433980D01*
X1020323Y434079D01*
X1020249Y434175D01*
X1020171Y434270D01*
X1020090Y434361D01*
X1020007Y434451D01*
X1019921Y434537D01*
X1019831Y434620D01*
X1019740Y434701D01*
X1019645Y434779D01*
X1019549Y434853D01*
X1019450Y434925D01*
X1019348Y434993D01*
X1019245Y435058D01*
X1019140Y435120D01*
X1019032Y435178D01*
X1018923Y435233D01*
X1018812Y435284D01*
X1018700Y435332D01*
X1018586Y435376D01*
X1018471Y435416D01*
X1018354Y435453D01*
X1018236Y435485D01*
X1018118Y435514D01*
X1017998Y435540D01*
X1017878Y435561D01*
X1017757Y435579D01*
X1017636Y435592D01*
X1017514Y435602D01*
X1017392Y435608D01*
X1017270Y435610D01*
X1017148Y435608D01*
X1017026Y435602D01*
X1016904Y435592D01*
X1016783Y435579D01*
X1016662Y435561D01*
X1016542Y435540D01*
X1016422Y435514D01*
X1016304Y435485D01*
X1016186Y435453D01*
X1016069Y435416D01*
X1015954Y435376D01*
X1015840Y435332D01*
X1015728Y435284D01*
X1015617Y435233D01*
X1015508Y435178D01*
X1015400Y435120D01*
X1015295Y435058D01*
X1015192Y434993D01*
X1015090Y434925D01*
X1014991Y434853D01*
X1014895Y434779D01*
X1014800Y434701D01*
X1014709Y434620D01*
X1014619Y434537D01*
X1014533Y434451D01*
X1014450Y434361D01*
X1014369Y434270D01*
X1014291Y434175D01*
X1014217Y434079D01*
X1014145Y433980D01*
X1014077Y433878D01*
X1014012Y433775D01*
X1013950Y433670D01*
X1013892Y433562D01*
X1013837Y433453D01*
X1013786Y433342D01*
X1013738Y433230D01*
X1013694Y433116D01*
X1013654Y433001D01*
X1013617Y432884D01*
X1013585Y432766D01*
X1013556Y432648D01*
X1013530Y432528D01*
X1013509Y432408D01*
X1013491Y432287D01*
X1013478Y432166D01*
X1013468Y432044D01*
X1013462Y431922D01*
X1013460Y431800D01*
X1013460Y396240D02*
X1013460Y375920D01*
X1013462Y375791D01*
X1013468Y375662D01*
X1013478Y375534D01*
X1013491Y375405D01*
X1013509Y375278D01*
X1013531Y375151D01*
X1013556Y375024D01*
X1013585Y374899D01*
X1013618Y374774D01*
X1013655Y374650D01*
X1013695Y374528D01*
X1013740Y374407D01*
X1013788Y374287D01*
X1013839Y374169D01*
X1013894Y374052D01*
X1013953Y373937D01*
X1014015Y373824D01*
X1014081Y373713D01*
X1014150Y373604D01*
X1014222Y373498D01*
X1014297Y373393D01*
X1014376Y373291D01*
X1014457Y373191D01*
X1014542Y373094D01*
X1014629Y372999D01*
X1014720Y372907D01*
X1014813Y372818D01*
X1014909Y372731D01*
X1015007Y372648D01*
X1015108Y372568D01*
X1015211Y372491D01*
X1015317Y372417D01*
X1015425Y372346D01*
X1015535Y372278D01*
X1015647Y372214D01*
X1015761Y372154D01*
X1015876Y372097D01*
X1015993Y372043D01*
X1016112Y371993D01*
X1016233Y371947D01*
X1016354Y371904D01*
X1016477Y371865D01*
X1016601Y371830D01*
X1016726Y371799D01*
X1016852Y371771D01*
X1016979Y371748D01*
X1017107Y371728D01*
X1017235Y371712D01*
X1017363Y371700D01*
X1017492Y371692D01*
X1017621Y371688D01*
X1017750Y371687D01*
X1017878Y371691D01*
X1018007Y371699D01*
X1018136Y371710D01*
X1018264Y371726D01*
X1018391Y371745D01*
X1018518Y371768D01*
X1018644Y371795D01*
X1018769Y371826D01*
X1018893Y371861D01*
X1019017Y371899D01*
X1019138Y371941D01*
X1019259Y371987D01*
X1019378Y372037D01*
X1019495Y372090D01*
X1019611Y372147D01*
X1019725Y372207D01*
X1019838Y372270D01*
X1019948Y372337D01*
X1020056Y372408D01*
X1020162Y372481D01*
X1020265Y372558D01*
X1020366Y372638D01*
X1020465Y372721D01*
X1020561Y372807D01*
X1020655Y372896D01*
X1020746Y372987D01*
X1020833Y373082D01*
X1020918Y373179D01*
X1021000Y373278D01*
X1021079Y373380D01*
X1021080Y373380D02*
X1021080Y396240D01*
X1021078Y396362D01*
X1021072Y396484D01*
X1021062Y396606D01*
X1021049Y396727D01*
X1021031Y396848D01*
X1021010Y396968D01*
X1020984Y397088D01*
X1020955Y397206D01*
X1020923Y397324D01*
X1020886Y397441D01*
X1020846Y397556D01*
X1020802Y397670D01*
X1020754Y397782D01*
X1020703Y397893D01*
X1020648Y398002D01*
X1020590Y398110D01*
X1020528Y398215D01*
X1020463Y398318D01*
X1020395Y398420D01*
X1020323Y398519D01*
X1020249Y398615D01*
X1020171Y398710D01*
X1020090Y398801D01*
X1020007Y398891D01*
X1019921Y398977D01*
X1019831Y399060D01*
X1019740Y399141D01*
X1019645Y399219D01*
X1019549Y399293D01*
X1019450Y399365D01*
X1019348Y399433D01*
X1019245Y399498D01*
X1019140Y399560D01*
X1019032Y399618D01*
X1018923Y399673D01*
X1018812Y399724D01*
X1018700Y399772D01*
X1018586Y399816D01*
X1018471Y399856D01*
X1018354Y399893D01*
X1018236Y399925D01*
X1018118Y399954D01*
X1017998Y399980D01*
X1017878Y400001D01*
X1017757Y400019D01*
X1017636Y400032D01*
X1017514Y400042D01*
X1017392Y400048D01*
X1017270Y400050D01*
X1017148Y400048D01*
X1017026Y400042D01*
X1016904Y400032D01*
X1016783Y400019D01*
X1016662Y400001D01*
X1016542Y399980D01*
X1016422Y399954D01*
X1016304Y399925D01*
X1016186Y399893D01*
X1016069Y399856D01*
X1015954Y399816D01*
X1015840Y399772D01*
X1015728Y399724D01*
X1015617Y399673D01*
X1015508Y399618D01*
X1015400Y399560D01*
X1015295Y399498D01*
X1015192Y399433D01*
X1015090Y399365D01*
X1014991Y399293D01*
X1014895Y399219D01*
X1014800Y399141D01*
X1014709Y399060D01*
X1014619Y398977D01*
X1014533Y398891D01*
X1014450Y398801D01*
X1014369Y398710D01*
X1014291Y398615D01*
X1014217Y398519D01*
X1014145Y398420D01*
X1014077Y398318D01*
X1014012Y398215D01*
X1013950Y398110D01*
X1013892Y398002D01*
X1013837Y397893D01*
X1013786Y397782D01*
X1013738Y397670D01*
X1013694Y397556D01*
X1013654Y397441D01*
X1013617Y397324D01*
X1013585Y397206D01*
X1013556Y397088D01*
X1013530Y396968D01*
X1013509Y396848D01*
X1013491Y396727D01*
X1013478Y396606D01*
X1013468Y396484D01*
X1013462Y396362D01*
X1013460Y396240D01*
X1013460Y360680D02*
X1013460Y340360D01*
X1013462Y340231D01*
X1013468Y340102D01*
X1013478Y339974D01*
X1013491Y339845D01*
X1013509Y339718D01*
X1013531Y339591D01*
X1013556Y339464D01*
X1013585Y339339D01*
X1013618Y339214D01*
X1013655Y339090D01*
X1013695Y338968D01*
X1013740Y338847D01*
X1013788Y338727D01*
X1013839Y338609D01*
X1013894Y338492D01*
X1013953Y338377D01*
X1014015Y338264D01*
X1014081Y338153D01*
X1014150Y338044D01*
X1014222Y337938D01*
X1014297Y337833D01*
X1014376Y337731D01*
X1014457Y337631D01*
X1014542Y337534D01*
X1014629Y337439D01*
X1014720Y337347D01*
X1014813Y337258D01*
X1014909Y337171D01*
X1015007Y337088D01*
X1015108Y337008D01*
X1015211Y336931D01*
X1015317Y336857D01*
X1015425Y336786D01*
X1015535Y336718D01*
X1015647Y336654D01*
X1015761Y336594D01*
X1015876Y336537D01*
X1015993Y336483D01*
X1016112Y336433D01*
X1016233Y336387D01*
X1016354Y336344D01*
X1016477Y336305D01*
X1016601Y336270D01*
X1016726Y336239D01*
X1016852Y336211D01*
X1016979Y336188D01*
X1017107Y336168D01*
X1017235Y336152D01*
X1017363Y336140D01*
X1017492Y336132D01*
X1017621Y336128D01*
X1017750Y336127D01*
X1017878Y336131D01*
X1018007Y336139D01*
X1018136Y336150D01*
X1018264Y336166D01*
X1018391Y336185D01*
X1018518Y336208D01*
X1018644Y336235D01*
X1018769Y336266D01*
X1018893Y336301D01*
X1019017Y336339D01*
X1019138Y336381D01*
X1019259Y336427D01*
X1019378Y336477D01*
X1019495Y336530D01*
X1019611Y336587D01*
X1019725Y336647D01*
X1019838Y336710D01*
X1019948Y336777D01*
X1020056Y336848D01*
X1020162Y336921D01*
X1020265Y336998D01*
X1020366Y337078D01*
X1020465Y337161D01*
X1020561Y337247D01*
X1020655Y337336D01*
X1020746Y337427D01*
X1020833Y337522D01*
X1020918Y337619D01*
X1021000Y337718D01*
X1021079Y337820D01*
X1021080Y337820D02*
X1021080Y360680D01*
X1021078Y360802D01*
X1021072Y360924D01*
X1021062Y361046D01*
X1021049Y361167D01*
X1021031Y361288D01*
X1021010Y361408D01*
X1020984Y361528D01*
X1020955Y361646D01*
X1020923Y361764D01*
X1020886Y361881D01*
X1020846Y361996D01*
X1020802Y362110D01*
X1020754Y362222D01*
X1020703Y362333D01*
X1020648Y362442D01*
X1020590Y362550D01*
X1020528Y362655D01*
X1020463Y362758D01*
X1020395Y362860D01*
X1020323Y362959D01*
X1020249Y363055D01*
X1020171Y363150D01*
X1020090Y363241D01*
X1020007Y363331D01*
X1019921Y363417D01*
X1019831Y363500D01*
X1019740Y363581D01*
X1019645Y363659D01*
X1019549Y363733D01*
X1019450Y363805D01*
X1019348Y363873D01*
X1019245Y363938D01*
X1019140Y364000D01*
X1019032Y364058D01*
X1018923Y364113D01*
X1018812Y364164D01*
X1018700Y364212D01*
X1018586Y364256D01*
X1018471Y364296D01*
X1018354Y364333D01*
X1018236Y364365D01*
X1018118Y364394D01*
X1017998Y364420D01*
X1017878Y364441D01*
X1017757Y364459D01*
X1017636Y364472D01*
X1017514Y364482D01*
X1017392Y364488D01*
X1017270Y364490D01*
X1017148Y364488D01*
X1017026Y364482D01*
X1016904Y364472D01*
X1016783Y364459D01*
X1016662Y364441D01*
X1016542Y364420D01*
X1016422Y364394D01*
X1016304Y364365D01*
X1016186Y364333D01*
X1016069Y364296D01*
X1015954Y364256D01*
X1015840Y364212D01*
X1015728Y364164D01*
X1015617Y364113D01*
X1015508Y364058D01*
X1015400Y364000D01*
X1015295Y363938D01*
X1015192Y363873D01*
X1015090Y363805D01*
X1014991Y363733D01*
X1014895Y363659D01*
X1014800Y363581D01*
X1014709Y363500D01*
X1014619Y363417D01*
X1014533Y363331D01*
X1014450Y363241D01*
X1014369Y363150D01*
X1014291Y363055D01*
X1014217Y362959D01*
X1014145Y362860D01*
X1014077Y362758D01*
X1014012Y362655D01*
X1013950Y362550D01*
X1013892Y362442D01*
X1013837Y362333D01*
X1013786Y362222D01*
X1013738Y362110D01*
X1013694Y361996D01*
X1013654Y361881D01*
X1013617Y361764D01*
X1013585Y361646D01*
X1013556Y361528D01*
X1013530Y361408D01*
X1013509Y361288D01*
X1013491Y361167D01*
X1013478Y361046D01*
X1013468Y360924D01*
X1013462Y360802D01*
X1013460Y360680D01*
X1013460Y325120D02*
X1013460Y304800D01*
X1013462Y304671D01*
X1013468Y304542D01*
X1013478Y304414D01*
X1013491Y304285D01*
X1013509Y304158D01*
X1013531Y304031D01*
X1013556Y303904D01*
X1013585Y303779D01*
X1013618Y303654D01*
X1013655Y303530D01*
X1013695Y303408D01*
X1013740Y303287D01*
X1013788Y303167D01*
X1013839Y303049D01*
X1013894Y302932D01*
X1013953Y302817D01*
X1014015Y302704D01*
X1014081Y302593D01*
X1014150Y302484D01*
X1014222Y302378D01*
X1014297Y302273D01*
X1014376Y302171D01*
X1014457Y302071D01*
X1014542Y301974D01*
X1014629Y301879D01*
X1014720Y301787D01*
X1014813Y301698D01*
X1014909Y301611D01*
X1015007Y301528D01*
X1015108Y301448D01*
X1015211Y301371D01*
X1015317Y301297D01*
X1015425Y301226D01*
X1015535Y301158D01*
X1015647Y301094D01*
X1015761Y301034D01*
X1015876Y300977D01*
X1015993Y300923D01*
X1016112Y300873D01*
X1016233Y300827D01*
X1016354Y300784D01*
X1016477Y300745D01*
X1016601Y300710D01*
X1016726Y300679D01*
X1016852Y300651D01*
X1016979Y300628D01*
X1017107Y300608D01*
X1017235Y300592D01*
X1017363Y300580D01*
X1017492Y300572D01*
X1017621Y300568D01*
X1017750Y300567D01*
X1017878Y300571D01*
X1018007Y300579D01*
X1018136Y300590D01*
X1018264Y300606D01*
X1018391Y300625D01*
X1018518Y300648D01*
X1018644Y300675D01*
X1018769Y300706D01*
X1018893Y300741D01*
X1019017Y300779D01*
X1019138Y300821D01*
X1019259Y300867D01*
X1019378Y300917D01*
X1019495Y300970D01*
X1019611Y301027D01*
X1019725Y301087D01*
X1019838Y301150D01*
X1019948Y301217D01*
X1020056Y301288D01*
X1020162Y301361D01*
X1020265Y301438D01*
X1020366Y301518D01*
X1020465Y301601D01*
X1020561Y301687D01*
X1020655Y301776D01*
X1020746Y301867D01*
X1020833Y301962D01*
X1020918Y302059D01*
X1021000Y302158D01*
X1021079Y302260D01*
X1021080Y302260D02*
X1021080Y325120D01*
X1021078Y325242D01*
X1021072Y325364D01*
X1021062Y325486D01*
X1021049Y325607D01*
X1021031Y325728D01*
X1021010Y325848D01*
X1020984Y325968D01*
X1020955Y326086D01*
X1020923Y326204D01*
X1020886Y326321D01*
X1020846Y326436D01*
X1020802Y326550D01*
X1020754Y326662D01*
X1020703Y326773D01*
X1020648Y326882D01*
X1020590Y326990D01*
X1020528Y327095D01*
X1020463Y327198D01*
X1020395Y327300D01*
X1020323Y327399D01*
X1020249Y327495D01*
X1020171Y327590D01*
X1020090Y327681D01*
X1020007Y327771D01*
X1019921Y327857D01*
X1019831Y327940D01*
X1019740Y328021D01*
X1019645Y328099D01*
X1019549Y328173D01*
X1019450Y328245D01*
X1019348Y328313D01*
X1019245Y328378D01*
X1019140Y328440D01*
X1019032Y328498D01*
X1018923Y328553D01*
X1018812Y328604D01*
X1018700Y328652D01*
X1018586Y328696D01*
X1018471Y328736D01*
X1018354Y328773D01*
X1018236Y328805D01*
X1018118Y328834D01*
X1017998Y328860D01*
X1017878Y328881D01*
X1017757Y328899D01*
X1017636Y328912D01*
X1017514Y328922D01*
X1017392Y328928D01*
X1017270Y328930D01*
X1017148Y328928D01*
X1017026Y328922D01*
X1016904Y328912D01*
X1016783Y328899D01*
X1016662Y328881D01*
X1016542Y328860D01*
X1016422Y328834D01*
X1016304Y328805D01*
X1016186Y328773D01*
X1016069Y328736D01*
X1015954Y328696D01*
X1015840Y328652D01*
X1015728Y328604D01*
X1015617Y328553D01*
X1015508Y328498D01*
X1015400Y328440D01*
X1015295Y328378D01*
X1015192Y328313D01*
X1015090Y328245D01*
X1014991Y328173D01*
X1014895Y328099D01*
X1014800Y328021D01*
X1014709Y327940D01*
X1014619Y327857D01*
X1014533Y327771D01*
X1014450Y327681D01*
X1014369Y327590D01*
X1014291Y327495D01*
X1014217Y327399D01*
X1014145Y327300D01*
X1014077Y327198D01*
X1014012Y327095D01*
X1013950Y326990D01*
X1013892Y326882D01*
X1013837Y326773D01*
X1013786Y326662D01*
X1013738Y326550D01*
X1013694Y326436D01*
X1013654Y326321D01*
X1013617Y326204D01*
X1013585Y326086D01*
X1013556Y325968D01*
X1013530Y325848D01*
X1013509Y325728D01*
X1013491Y325607D01*
X1013478Y325486D01*
X1013468Y325364D01*
X1013462Y325242D01*
X1013460Y325120D01*
X1013460Y289560D02*
X1013460Y269240D01*
X1013462Y269111D01*
X1013468Y268982D01*
X1013478Y268854D01*
X1013491Y268725D01*
X1013509Y268598D01*
X1013531Y268471D01*
X1013556Y268344D01*
X1013585Y268219D01*
X1013618Y268094D01*
X1013655Y267970D01*
X1013695Y267848D01*
X1013740Y267727D01*
X1013788Y267607D01*
X1013839Y267489D01*
X1013894Y267372D01*
X1013953Y267257D01*
X1014015Y267144D01*
X1014081Y267033D01*
X1014150Y266924D01*
X1014222Y266818D01*
X1014297Y266713D01*
X1014376Y266611D01*
X1014457Y266511D01*
X1014542Y266414D01*
X1014629Y266319D01*
X1014720Y266227D01*
X1014813Y266138D01*
X1014909Y266051D01*
X1015007Y265968D01*
X1015108Y265888D01*
X1015211Y265811D01*
X1015317Y265737D01*
X1015425Y265666D01*
X1015535Y265598D01*
X1015647Y265534D01*
X1015761Y265474D01*
X1015876Y265417D01*
X1015993Y265363D01*
X1016112Y265313D01*
X1016233Y265267D01*
X1016354Y265224D01*
X1016477Y265185D01*
X1016601Y265150D01*
X1016726Y265119D01*
X1016852Y265091D01*
X1016979Y265068D01*
X1017107Y265048D01*
X1017235Y265032D01*
X1017363Y265020D01*
X1017492Y265012D01*
X1017621Y265008D01*
X1017750Y265007D01*
X1017878Y265011D01*
X1018007Y265019D01*
X1018136Y265030D01*
X1018264Y265046D01*
X1018391Y265065D01*
X1018518Y265088D01*
X1018644Y265115D01*
X1018769Y265146D01*
X1018893Y265181D01*
X1019017Y265219D01*
X1019138Y265261D01*
X1019259Y265307D01*
X1019378Y265357D01*
X1019495Y265410D01*
X1019611Y265467D01*
X1019725Y265527D01*
X1019838Y265590D01*
X1019948Y265657D01*
X1020056Y265728D01*
X1020162Y265801D01*
X1020265Y265878D01*
X1020366Y265958D01*
X1020465Y266041D01*
X1020561Y266127D01*
X1020655Y266216D01*
X1020746Y266307D01*
X1020833Y266402D01*
X1020918Y266499D01*
X1021000Y266598D01*
X1021079Y266700D01*
X1021080Y266700D02*
X1021080Y289560D01*
X1021078Y289682D01*
X1021072Y289804D01*
X1021062Y289926D01*
X1021049Y290047D01*
X1021031Y290168D01*
X1021010Y290288D01*
X1020984Y290408D01*
X1020955Y290526D01*
X1020923Y290644D01*
X1020886Y290761D01*
X1020846Y290876D01*
X1020802Y290990D01*
X1020754Y291102D01*
X1020703Y291213D01*
X1020648Y291322D01*
X1020590Y291430D01*
X1020528Y291535D01*
X1020463Y291638D01*
X1020395Y291740D01*
X1020323Y291839D01*
X1020249Y291935D01*
X1020171Y292030D01*
X1020090Y292121D01*
X1020007Y292211D01*
X1019921Y292297D01*
X1019831Y292380D01*
X1019740Y292461D01*
X1019645Y292539D01*
X1019549Y292613D01*
X1019450Y292685D01*
X1019348Y292753D01*
X1019245Y292818D01*
X1019140Y292880D01*
X1019032Y292938D01*
X1018923Y292993D01*
X1018812Y293044D01*
X1018700Y293092D01*
X1018586Y293136D01*
X1018471Y293176D01*
X1018354Y293213D01*
X1018236Y293245D01*
X1018118Y293274D01*
X1017998Y293300D01*
X1017878Y293321D01*
X1017757Y293339D01*
X1017636Y293352D01*
X1017514Y293362D01*
X1017392Y293368D01*
X1017270Y293370D01*
X1017148Y293368D01*
X1017026Y293362D01*
X1016904Y293352D01*
X1016783Y293339D01*
X1016662Y293321D01*
X1016542Y293300D01*
X1016422Y293274D01*
X1016304Y293245D01*
X1016186Y293213D01*
X1016069Y293176D01*
X1015954Y293136D01*
X1015840Y293092D01*
X1015728Y293044D01*
X1015617Y292993D01*
X1015508Y292938D01*
X1015400Y292880D01*
X1015295Y292818D01*
X1015192Y292753D01*
X1015090Y292685D01*
X1014991Y292613D01*
X1014895Y292539D01*
X1014800Y292461D01*
X1014709Y292380D01*
X1014619Y292297D01*
X1014533Y292211D01*
X1014450Y292121D01*
X1014369Y292030D01*
X1014291Y291935D01*
X1014217Y291839D01*
X1014145Y291740D01*
X1014077Y291638D01*
X1014012Y291535D01*
X1013950Y291430D01*
X1013892Y291322D01*
X1013837Y291213D01*
X1013786Y291102D01*
X1013738Y290990D01*
X1013694Y290876D01*
X1013654Y290761D01*
X1013617Y290644D01*
X1013585Y290526D01*
X1013556Y290408D01*
X1013530Y290288D01*
X1013509Y290168D01*
X1013491Y290047D01*
X1013478Y289926D01*
X1013468Y289804D01*
X1013462Y289682D01*
X1013460Y289560D01*
X1013460Y254000D02*
X1013460Y233680D01*
X1013462Y233551D01*
X1013468Y233422D01*
X1013478Y233294D01*
X1013491Y233165D01*
X1013509Y233038D01*
X1013531Y232911D01*
X1013556Y232784D01*
X1013585Y232659D01*
X1013618Y232534D01*
X1013655Y232410D01*
X1013695Y232288D01*
X1013740Y232167D01*
X1013788Y232047D01*
X1013839Y231929D01*
X1013894Y231812D01*
X1013953Y231697D01*
X1014015Y231584D01*
X1014081Y231473D01*
X1014150Y231364D01*
X1014222Y231258D01*
X1014297Y231153D01*
X1014376Y231051D01*
X1014457Y230951D01*
X1014542Y230854D01*
X1014629Y230759D01*
X1014720Y230667D01*
X1014813Y230578D01*
X1014909Y230491D01*
X1015007Y230408D01*
X1015108Y230328D01*
X1015211Y230251D01*
X1015317Y230177D01*
X1015425Y230106D01*
X1015535Y230038D01*
X1015647Y229974D01*
X1015761Y229914D01*
X1015876Y229857D01*
X1015993Y229803D01*
X1016112Y229753D01*
X1016233Y229707D01*
X1016354Y229664D01*
X1016477Y229625D01*
X1016601Y229590D01*
X1016726Y229559D01*
X1016852Y229531D01*
X1016979Y229508D01*
X1017107Y229488D01*
X1017235Y229472D01*
X1017363Y229460D01*
X1017492Y229452D01*
X1017621Y229448D01*
X1017750Y229447D01*
X1017878Y229451D01*
X1018007Y229459D01*
X1018136Y229470D01*
X1018264Y229486D01*
X1018391Y229505D01*
X1018518Y229528D01*
X1018644Y229555D01*
X1018769Y229586D01*
X1018893Y229621D01*
X1019017Y229659D01*
X1019138Y229701D01*
X1019259Y229747D01*
X1019378Y229797D01*
X1019495Y229850D01*
X1019611Y229907D01*
X1019725Y229967D01*
X1019838Y230030D01*
X1019948Y230097D01*
X1020056Y230168D01*
X1020162Y230241D01*
X1020265Y230318D01*
X1020366Y230398D01*
X1020465Y230481D01*
X1020561Y230567D01*
X1020655Y230656D01*
X1020746Y230747D01*
X1020833Y230842D01*
X1020918Y230939D01*
X1021000Y231038D01*
X1021079Y231140D01*
X1021080Y231140D02*
X1021080Y254000D01*
X1021078Y254122D01*
X1021072Y254244D01*
X1021062Y254366D01*
X1021049Y254487D01*
X1021031Y254608D01*
X1021010Y254728D01*
X1020984Y254848D01*
X1020955Y254966D01*
X1020923Y255084D01*
X1020886Y255201D01*
X1020846Y255316D01*
X1020802Y255430D01*
X1020754Y255542D01*
X1020703Y255653D01*
X1020648Y255762D01*
X1020590Y255870D01*
X1020528Y255975D01*
X1020463Y256078D01*
X1020395Y256180D01*
X1020323Y256279D01*
X1020249Y256375D01*
X1020171Y256470D01*
X1020090Y256561D01*
X1020007Y256651D01*
X1019921Y256737D01*
X1019831Y256820D01*
X1019740Y256901D01*
X1019645Y256979D01*
X1019549Y257053D01*
X1019450Y257125D01*
X1019348Y257193D01*
X1019245Y257258D01*
X1019140Y257320D01*
X1019032Y257378D01*
X1018923Y257433D01*
X1018812Y257484D01*
X1018700Y257532D01*
X1018586Y257576D01*
X1018471Y257616D01*
X1018354Y257653D01*
X1018236Y257685D01*
X1018118Y257714D01*
X1017998Y257740D01*
X1017878Y257761D01*
X1017757Y257779D01*
X1017636Y257792D01*
X1017514Y257802D01*
X1017392Y257808D01*
X1017270Y257810D01*
X1017148Y257808D01*
X1017026Y257802D01*
X1016904Y257792D01*
X1016783Y257779D01*
X1016662Y257761D01*
X1016542Y257740D01*
X1016422Y257714D01*
X1016304Y257685D01*
X1016186Y257653D01*
X1016069Y257616D01*
X1015954Y257576D01*
X1015840Y257532D01*
X1015728Y257484D01*
X1015617Y257433D01*
X1015508Y257378D01*
X1015400Y257320D01*
X1015295Y257258D01*
X1015192Y257193D01*
X1015090Y257125D01*
X1014991Y257053D01*
X1014895Y256979D01*
X1014800Y256901D01*
X1014709Y256820D01*
X1014619Y256737D01*
X1014533Y256651D01*
X1014450Y256561D01*
X1014369Y256470D01*
X1014291Y256375D01*
X1014217Y256279D01*
X1014145Y256180D01*
X1014077Y256078D01*
X1014012Y255975D01*
X1013950Y255870D01*
X1013892Y255762D01*
X1013837Y255653D01*
X1013786Y255542D01*
X1013738Y255430D01*
X1013694Y255316D01*
X1013654Y255201D01*
X1013617Y255084D01*
X1013585Y254966D01*
X1013556Y254848D01*
X1013530Y254728D01*
X1013509Y254608D01*
X1013491Y254487D01*
X1013478Y254366D01*
X1013468Y254244D01*
X1013462Y254122D01*
X1013460Y254000D01*
X1013460Y218440D02*
X1013460Y198120D01*
X1013462Y197991D01*
X1013468Y197862D01*
X1013478Y197734D01*
X1013491Y197605D01*
X1013509Y197478D01*
X1013531Y197351D01*
X1013556Y197224D01*
X1013585Y197099D01*
X1013618Y196974D01*
X1013655Y196850D01*
X1013695Y196728D01*
X1013740Y196607D01*
X1013788Y196487D01*
X1013839Y196369D01*
X1013894Y196252D01*
X1013953Y196137D01*
X1014015Y196024D01*
X1014081Y195913D01*
X1014150Y195804D01*
X1014222Y195698D01*
X1014297Y195593D01*
X1014376Y195491D01*
X1014457Y195391D01*
X1014542Y195294D01*
X1014629Y195199D01*
X1014720Y195107D01*
X1014813Y195018D01*
X1014909Y194931D01*
X1015007Y194848D01*
X1015108Y194768D01*
X1015211Y194691D01*
X1015317Y194617D01*
X1015425Y194546D01*
X1015535Y194478D01*
X1015647Y194414D01*
X1015761Y194354D01*
X1015876Y194297D01*
X1015993Y194243D01*
X1016112Y194193D01*
X1016233Y194147D01*
X1016354Y194104D01*
X1016477Y194065D01*
X1016601Y194030D01*
X1016726Y193999D01*
X1016852Y193971D01*
X1016979Y193948D01*
X1017107Y193928D01*
X1017235Y193912D01*
X1017363Y193900D01*
X1017492Y193892D01*
X1017621Y193888D01*
X1017750Y193887D01*
X1017878Y193891D01*
X1018007Y193899D01*
X1018136Y193910D01*
X1018264Y193926D01*
X1018391Y193945D01*
X1018518Y193968D01*
X1018644Y193995D01*
X1018769Y194026D01*
X1018893Y194061D01*
X1019017Y194099D01*
X1019138Y194141D01*
X1019259Y194187D01*
X1019378Y194237D01*
X1019495Y194290D01*
X1019611Y194347D01*
X1019725Y194407D01*
X1019838Y194470D01*
X1019948Y194537D01*
X1020056Y194608D01*
X1020162Y194681D01*
X1020265Y194758D01*
X1020366Y194838D01*
X1020465Y194921D01*
X1020561Y195007D01*
X1020655Y195096D01*
X1020746Y195187D01*
X1020833Y195282D01*
X1020918Y195379D01*
X1021000Y195478D01*
X1021079Y195580D01*
X1021080Y195580D02*
X1021080Y218440D01*
X1021078Y218562D01*
X1021072Y218684D01*
X1021062Y218806D01*
X1021049Y218927D01*
X1021031Y219048D01*
X1021010Y219168D01*
X1020984Y219288D01*
X1020955Y219406D01*
X1020923Y219524D01*
X1020886Y219641D01*
X1020846Y219756D01*
X1020802Y219870D01*
X1020754Y219982D01*
X1020703Y220093D01*
X1020648Y220202D01*
X1020590Y220310D01*
X1020528Y220415D01*
X1020463Y220518D01*
X1020395Y220620D01*
X1020323Y220719D01*
X1020249Y220815D01*
X1020171Y220910D01*
X1020090Y221001D01*
X1020007Y221091D01*
X1019921Y221177D01*
X1019831Y221260D01*
X1019740Y221341D01*
X1019645Y221419D01*
X1019549Y221493D01*
X1019450Y221565D01*
X1019348Y221633D01*
X1019245Y221698D01*
X1019140Y221760D01*
X1019032Y221818D01*
X1018923Y221873D01*
X1018812Y221924D01*
X1018700Y221972D01*
X1018586Y222016D01*
X1018471Y222056D01*
X1018354Y222093D01*
X1018236Y222125D01*
X1018118Y222154D01*
X1017998Y222180D01*
X1017878Y222201D01*
X1017757Y222219D01*
X1017636Y222232D01*
X1017514Y222242D01*
X1017392Y222248D01*
X1017270Y222250D01*
X1017148Y222248D01*
X1017026Y222242D01*
X1016904Y222232D01*
X1016783Y222219D01*
X1016662Y222201D01*
X1016542Y222180D01*
X1016422Y222154D01*
X1016304Y222125D01*
X1016186Y222093D01*
X1016069Y222056D01*
X1015954Y222016D01*
X1015840Y221972D01*
X1015728Y221924D01*
X1015617Y221873D01*
X1015508Y221818D01*
X1015400Y221760D01*
X1015295Y221698D01*
X1015192Y221633D01*
X1015090Y221565D01*
X1014991Y221493D01*
X1014895Y221419D01*
X1014800Y221341D01*
X1014709Y221260D01*
X1014619Y221177D01*
X1014533Y221091D01*
X1014450Y221001D01*
X1014369Y220910D01*
X1014291Y220815D01*
X1014217Y220719D01*
X1014145Y220620D01*
X1014077Y220518D01*
X1014012Y220415D01*
X1013950Y220310D01*
X1013892Y220202D01*
X1013837Y220093D01*
X1013786Y219982D01*
X1013738Y219870D01*
X1013694Y219756D01*
X1013654Y219641D01*
X1013617Y219524D01*
X1013585Y219406D01*
X1013556Y219288D01*
X1013530Y219168D01*
X1013509Y219048D01*
X1013491Y218927D01*
X1013478Y218806D01*
X1013468Y218684D01*
X1013462Y218562D01*
X1013460Y218440D01*
X1013460Y182880D02*
X1013460Y162560D01*
X1013462Y162431D01*
X1013468Y162302D01*
X1013478Y162174D01*
X1013491Y162045D01*
X1013509Y161918D01*
X1013531Y161791D01*
X1013556Y161664D01*
X1013585Y161539D01*
X1013618Y161414D01*
X1013655Y161290D01*
X1013695Y161168D01*
X1013740Y161047D01*
X1013788Y160927D01*
X1013839Y160809D01*
X1013894Y160692D01*
X1013953Y160577D01*
X1014015Y160464D01*
X1014081Y160353D01*
X1014150Y160244D01*
X1014222Y160138D01*
X1014297Y160033D01*
X1014376Y159931D01*
X1014457Y159831D01*
X1014542Y159734D01*
X1014629Y159639D01*
X1014720Y159547D01*
X1014813Y159458D01*
X1014909Y159371D01*
X1015007Y159288D01*
X1015108Y159208D01*
X1015211Y159131D01*
X1015317Y159057D01*
X1015425Y158986D01*
X1015535Y158918D01*
X1015647Y158854D01*
X1015761Y158794D01*
X1015876Y158737D01*
X1015993Y158683D01*
X1016112Y158633D01*
X1016233Y158587D01*
X1016354Y158544D01*
X1016477Y158505D01*
X1016601Y158470D01*
X1016726Y158439D01*
X1016852Y158411D01*
X1016979Y158388D01*
X1017107Y158368D01*
X1017235Y158352D01*
X1017363Y158340D01*
X1017492Y158332D01*
X1017621Y158328D01*
X1017750Y158327D01*
X1017878Y158331D01*
X1018007Y158339D01*
X1018136Y158350D01*
X1018264Y158366D01*
X1018391Y158385D01*
X1018518Y158408D01*
X1018644Y158435D01*
X1018769Y158466D01*
X1018893Y158501D01*
X1019017Y158539D01*
X1019138Y158581D01*
X1019259Y158627D01*
X1019378Y158677D01*
X1019495Y158730D01*
X1019611Y158787D01*
X1019725Y158847D01*
X1019838Y158910D01*
X1019948Y158977D01*
X1020056Y159048D01*
X1020162Y159121D01*
X1020265Y159198D01*
X1020366Y159278D01*
X1020465Y159361D01*
X1020561Y159447D01*
X1020655Y159536D01*
X1020746Y159627D01*
X1020833Y159722D01*
X1020918Y159819D01*
X1021000Y159918D01*
X1021079Y160020D01*
X1021080Y160020D02*
X1021080Y182880D01*
X1021078Y183002D01*
X1021072Y183124D01*
X1021062Y183246D01*
X1021049Y183367D01*
X1021031Y183488D01*
X1021010Y183608D01*
X1020984Y183728D01*
X1020955Y183846D01*
X1020923Y183964D01*
X1020886Y184081D01*
X1020846Y184196D01*
X1020802Y184310D01*
X1020754Y184422D01*
X1020703Y184533D01*
X1020648Y184642D01*
X1020590Y184750D01*
X1020528Y184855D01*
X1020463Y184958D01*
X1020395Y185060D01*
X1020323Y185159D01*
X1020249Y185255D01*
X1020171Y185350D01*
X1020090Y185441D01*
X1020007Y185531D01*
X1019921Y185617D01*
X1019831Y185700D01*
X1019740Y185781D01*
X1019645Y185859D01*
X1019549Y185933D01*
X1019450Y186005D01*
X1019348Y186073D01*
X1019245Y186138D01*
X1019140Y186200D01*
X1019032Y186258D01*
X1018923Y186313D01*
X1018812Y186364D01*
X1018700Y186412D01*
X1018586Y186456D01*
X1018471Y186496D01*
X1018354Y186533D01*
X1018236Y186565D01*
X1018118Y186594D01*
X1017998Y186620D01*
X1017878Y186641D01*
X1017757Y186659D01*
X1017636Y186672D01*
X1017514Y186682D01*
X1017392Y186688D01*
X1017270Y186690D01*
X1017148Y186688D01*
X1017026Y186682D01*
X1016904Y186672D01*
X1016783Y186659D01*
X1016662Y186641D01*
X1016542Y186620D01*
X1016422Y186594D01*
X1016304Y186565D01*
X1016186Y186533D01*
X1016069Y186496D01*
X1015954Y186456D01*
X1015840Y186412D01*
X1015728Y186364D01*
X1015617Y186313D01*
X1015508Y186258D01*
X1015400Y186200D01*
X1015295Y186138D01*
X1015192Y186073D01*
X1015090Y186005D01*
X1014991Y185933D01*
X1014895Y185859D01*
X1014800Y185781D01*
X1014709Y185700D01*
X1014619Y185617D01*
X1014533Y185531D01*
X1014450Y185441D01*
X1014369Y185350D01*
X1014291Y185255D01*
X1014217Y185159D01*
X1014145Y185060D01*
X1014077Y184958D01*
X1014012Y184855D01*
X1013950Y184750D01*
X1013892Y184642D01*
X1013837Y184533D01*
X1013786Y184422D01*
X1013738Y184310D01*
X1013694Y184196D01*
X1013654Y184081D01*
X1013617Y183964D01*
X1013585Y183846D01*
X1013556Y183728D01*
X1013530Y183608D01*
X1013509Y183488D01*
X1013491Y183367D01*
X1013478Y183246D01*
X1013468Y183124D01*
X1013462Y183002D01*
X1013460Y182880D01*
X1013460Y147320D02*
X1013460Y127000D01*
X1013462Y126871D01*
X1013468Y126742D01*
X1013478Y126614D01*
X1013491Y126485D01*
X1013509Y126358D01*
X1013531Y126231D01*
X1013556Y126104D01*
X1013585Y125979D01*
X1013618Y125854D01*
X1013655Y125730D01*
X1013695Y125608D01*
X1013740Y125487D01*
X1013788Y125367D01*
X1013839Y125249D01*
X1013894Y125132D01*
X1013953Y125017D01*
X1014015Y124904D01*
X1014081Y124793D01*
X1014150Y124684D01*
X1014222Y124578D01*
X1014297Y124473D01*
X1014376Y124371D01*
X1014457Y124271D01*
X1014542Y124174D01*
X1014629Y124079D01*
X1014720Y123987D01*
X1014813Y123898D01*
X1014909Y123811D01*
X1015007Y123728D01*
X1015108Y123648D01*
X1015211Y123571D01*
X1015317Y123497D01*
X1015425Y123426D01*
X1015535Y123358D01*
X1015647Y123294D01*
X1015761Y123234D01*
X1015876Y123177D01*
X1015993Y123123D01*
X1016112Y123073D01*
X1016233Y123027D01*
X1016354Y122984D01*
X1016477Y122945D01*
X1016601Y122910D01*
X1016726Y122879D01*
X1016852Y122851D01*
X1016979Y122828D01*
X1017107Y122808D01*
X1017235Y122792D01*
X1017363Y122780D01*
X1017492Y122772D01*
X1017621Y122768D01*
X1017750Y122767D01*
X1017878Y122771D01*
X1018007Y122779D01*
X1018136Y122790D01*
X1018264Y122806D01*
X1018391Y122825D01*
X1018518Y122848D01*
X1018644Y122875D01*
X1018769Y122906D01*
X1018893Y122941D01*
X1019017Y122979D01*
X1019138Y123021D01*
X1019259Y123067D01*
X1019378Y123117D01*
X1019495Y123170D01*
X1019611Y123227D01*
X1019725Y123287D01*
X1019838Y123350D01*
X1019948Y123417D01*
X1020056Y123488D01*
X1020162Y123561D01*
X1020265Y123638D01*
X1020366Y123718D01*
X1020465Y123801D01*
X1020561Y123887D01*
X1020655Y123976D01*
X1020746Y124067D01*
X1020833Y124162D01*
X1020918Y124259D01*
X1021000Y124358D01*
X1021079Y124460D01*
X1021080Y124460D02*
X1021080Y147320D01*
X1021078Y147442D01*
X1021072Y147564D01*
X1021062Y147686D01*
X1021049Y147807D01*
X1021031Y147928D01*
X1021010Y148048D01*
X1020984Y148168D01*
X1020955Y148286D01*
X1020923Y148404D01*
X1020886Y148521D01*
X1020846Y148636D01*
X1020802Y148750D01*
X1020754Y148862D01*
X1020703Y148973D01*
X1020648Y149082D01*
X1020590Y149190D01*
X1020528Y149295D01*
X1020463Y149398D01*
X1020395Y149500D01*
X1020323Y149599D01*
X1020249Y149695D01*
X1020171Y149790D01*
X1020090Y149881D01*
X1020007Y149971D01*
X1019921Y150057D01*
X1019831Y150140D01*
X1019740Y150221D01*
X1019645Y150299D01*
X1019549Y150373D01*
X1019450Y150445D01*
X1019348Y150513D01*
X1019245Y150578D01*
X1019140Y150640D01*
X1019032Y150698D01*
X1018923Y150753D01*
X1018812Y150804D01*
X1018700Y150852D01*
X1018586Y150896D01*
X1018471Y150936D01*
X1018354Y150973D01*
X1018236Y151005D01*
X1018118Y151034D01*
X1017998Y151060D01*
X1017878Y151081D01*
X1017757Y151099D01*
X1017636Y151112D01*
X1017514Y151122D01*
X1017392Y151128D01*
X1017270Y151130D01*
X1017148Y151128D01*
X1017026Y151122D01*
X1016904Y151112D01*
X1016783Y151099D01*
X1016662Y151081D01*
X1016542Y151060D01*
X1016422Y151034D01*
X1016304Y151005D01*
X1016186Y150973D01*
X1016069Y150936D01*
X1015954Y150896D01*
X1015840Y150852D01*
X1015728Y150804D01*
X1015617Y150753D01*
X1015508Y150698D01*
X1015400Y150640D01*
X1015295Y150578D01*
X1015192Y150513D01*
X1015090Y150445D01*
X1014991Y150373D01*
X1014895Y150299D01*
X1014800Y150221D01*
X1014709Y150140D01*
X1014619Y150057D01*
X1014533Y149971D01*
X1014450Y149881D01*
X1014369Y149790D01*
X1014291Y149695D01*
X1014217Y149599D01*
X1014145Y149500D01*
X1014077Y149398D01*
X1014012Y149295D01*
X1013950Y149190D01*
X1013892Y149082D01*
X1013837Y148973D01*
X1013786Y148862D01*
X1013738Y148750D01*
X1013694Y148636D01*
X1013654Y148521D01*
X1013617Y148404D01*
X1013585Y148286D01*
X1013556Y148168D01*
X1013530Y148048D01*
X1013509Y147928D01*
X1013491Y147807D01*
X1013478Y147686D01*
X1013468Y147564D01*
X1013462Y147442D01*
X1013460Y147320D01*
X1013460Y111760D02*
X1013460Y91440D01*
X1013462Y91311D01*
X1013468Y91182D01*
X1013478Y91054D01*
X1013491Y90925D01*
X1013509Y90798D01*
X1013531Y90671D01*
X1013556Y90544D01*
X1013585Y90419D01*
X1013618Y90294D01*
X1013655Y90170D01*
X1013695Y90048D01*
X1013740Y89927D01*
X1013788Y89807D01*
X1013839Y89689D01*
X1013894Y89572D01*
X1013953Y89457D01*
X1014015Y89344D01*
X1014081Y89233D01*
X1014150Y89124D01*
X1014222Y89018D01*
X1014297Y88913D01*
X1014376Y88811D01*
X1014457Y88711D01*
X1014542Y88614D01*
X1014629Y88519D01*
X1014720Y88427D01*
X1014813Y88338D01*
X1014909Y88251D01*
X1015007Y88168D01*
X1015108Y88088D01*
X1015211Y88011D01*
X1015317Y87937D01*
X1015425Y87866D01*
X1015535Y87798D01*
X1015647Y87734D01*
X1015761Y87674D01*
X1015876Y87617D01*
X1015993Y87563D01*
X1016112Y87513D01*
X1016233Y87467D01*
X1016354Y87424D01*
X1016477Y87385D01*
X1016601Y87350D01*
X1016726Y87319D01*
X1016852Y87291D01*
X1016979Y87268D01*
X1017107Y87248D01*
X1017235Y87232D01*
X1017363Y87220D01*
X1017492Y87212D01*
X1017621Y87208D01*
X1017750Y87207D01*
X1017878Y87211D01*
X1018007Y87219D01*
X1018136Y87230D01*
X1018264Y87246D01*
X1018391Y87265D01*
X1018518Y87288D01*
X1018644Y87315D01*
X1018769Y87346D01*
X1018893Y87381D01*
X1019017Y87419D01*
X1019138Y87461D01*
X1019259Y87507D01*
X1019378Y87557D01*
X1019495Y87610D01*
X1019611Y87667D01*
X1019725Y87727D01*
X1019838Y87790D01*
X1019948Y87857D01*
X1020056Y87928D01*
X1020162Y88001D01*
X1020265Y88078D01*
X1020366Y88158D01*
X1020465Y88241D01*
X1020561Y88327D01*
X1020655Y88416D01*
X1020746Y88507D01*
X1020833Y88602D01*
X1020918Y88699D01*
X1021000Y88798D01*
X1021079Y88900D01*
X1021080Y88900D02*
X1021080Y111760D01*
X1021078Y111882D01*
X1021072Y112004D01*
X1021062Y112126D01*
X1021049Y112247D01*
X1021031Y112368D01*
X1021010Y112488D01*
X1020984Y112608D01*
X1020955Y112726D01*
X1020923Y112844D01*
X1020886Y112961D01*
X1020846Y113076D01*
X1020802Y113190D01*
X1020754Y113302D01*
X1020703Y113413D01*
X1020648Y113522D01*
X1020590Y113630D01*
X1020528Y113735D01*
X1020463Y113838D01*
X1020395Y113940D01*
X1020323Y114039D01*
X1020249Y114135D01*
X1020171Y114230D01*
X1020090Y114321D01*
X1020007Y114411D01*
X1019921Y114497D01*
X1019831Y114580D01*
X1019740Y114661D01*
X1019645Y114739D01*
X1019549Y114813D01*
X1019450Y114885D01*
X1019348Y114953D01*
X1019245Y115018D01*
X1019140Y115080D01*
X1019032Y115138D01*
X1018923Y115193D01*
X1018812Y115244D01*
X1018700Y115292D01*
X1018586Y115336D01*
X1018471Y115376D01*
X1018354Y115413D01*
X1018236Y115445D01*
X1018118Y115474D01*
X1017998Y115500D01*
X1017878Y115521D01*
X1017757Y115539D01*
X1017636Y115552D01*
X1017514Y115562D01*
X1017392Y115568D01*
X1017270Y115570D01*
X1017148Y115568D01*
X1017026Y115562D01*
X1016904Y115552D01*
X1016783Y115539D01*
X1016662Y115521D01*
X1016542Y115500D01*
X1016422Y115474D01*
X1016304Y115445D01*
X1016186Y115413D01*
X1016069Y115376D01*
X1015954Y115336D01*
X1015840Y115292D01*
X1015728Y115244D01*
X1015617Y115193D01*
X1015508Y115138D01*
X1015400Y115080D01*
X1015295Y115018D01*
X1015192Y114953D01*
X1015090Y114885D01*
X1014991Y114813D01*
X1014895Y114739D01*
X1014800Y114661D01*
X1014709Y114580D01*
X1014619Y114497D01*
X1014533Y114411D01*
X1014450Y114321D01*
X1014369Y114230D01*
X1014291Y114135D01*
X1014217Y114039D01*
X1014145Y113940D01*
X1014077Y113838D01*
X1014012Y113735D01*
X1013950Y113630D01*
X1013892Y113522D01*
X1013837Y113413D01*
X1013786Y113302D01*
X1013738Y113190D01*
X1013694Y113076D01*
X1013654Y112961D01*
X1013617Y112844D01*
X1013585Y112726D01*
X1013556Y112608D01*
X1013530Y112488D01*
X1013509Y112368D01*
X1013491Y112247D01*
X1013478Y112126D01*
X1013468Y112004D01*
X1013462Y111882D01*
X1013460Y111760D01*
X1013460Y76200D02*
X1013460Y55880D01*
X1013462Y55751D01*
X1013468Y55622D01*
X1013478Y55494D01*
X1013491Y55365D01*
X1013509Y55238D01*
X1013531Y55111D01*
X1013556Y54984D01*
X1013585Y54859D01*
X1013618Y54734D01*
X1013655Y54610D01*
X1013695Y54488D01*
X1013740Y54367D01*
X1013788Y54247D01*
X1013839Y54129D01*
X1013894Y54012D01*
X1013953Y53897D01*
X1014015Y53784D01*
X1014081Y53673D01*
X1014150Y53564D01*
X1014222Y53458D01*
X1014297Y53353D01*
X1014376Y53251D01*
X1014457Y53151D01*
X1014542Y53054D01*
X1014629Y52959D01*
X1014720Y52867D01*
X1014813Y52778D01*
X1014909Y52691D01*
X1015007Y52608D01*
X1015108Y52528D01*
X1015211Y52451D01*
X1015317Y52377D01*
X1015425Y52306D01*
X1015535Y52238D01*
X1015647Y52174D01*
X1015761Y52114D01*
X1015876Y52057D01*
X1015993Y52003D01*
X1016112Y51953D01*
X1016233Y51907D01*
X1016354Y51864D01*
X1016477Y51825D01*
X1016601Y51790D01*
X1016726Y51759D01*
X1016852Y51731D01*
X1016979Y51708D01*
X1017107Y51688D01*
X1017235Y51672D01*
X1017363Y51660D01*
X1017492Y51652D01*
X1017621Y51648D01*
X1017750Y51647D01*
X1017878Y51651D01*
X1018007Y51659D01*
X1018136Y51670D01*
X1018264Y51686D01*
X1018391Y51705D01*
X1018518Y51728D01*
X1018644Y51755D01*
X1018769Y51786D01*
X1018893Y51821D01*
X1019017Y51859D01*
X1019138Y51901D01*
X1019259Y51947D01*
X1019378Y51997D01*
X1019495Y52050D01*
X1019611Y52107D01*
X1019725Y52167D01*
X1019838Y52230D01*
X1019948Y52297D01*
X1020056Y52368D01*
X1020162Y52441D01*
X1020265Y52518D01*
X1020366Y52598D01*
X1020465Y52681D01*
X1020561Y52767D01*
X1020655Y52856D01*
X1020746Y52947D01*
X1020833Y53042D01*
X1020918Y53139D01*
X1021000Y53238D01*
X1021079Y53340D01*
X1021080Y53340D02*
X1021080Y76200D01*
X1021078Y76322D01*
X1021072Y76444D01*
X1021062Y76566D01*
X1021049Y76687D01*
X1021031Y76808D01*
X1021010Y76928D01*
X1020984Y77048D01*
X1020955Y77166D01*
X1020923Y77284D01*
X1020886Y77401D01*
X1020846Y77516D01*
X1020802Y77630D01*
X1020754Y77742D01*
X1020703Y77853D01*
X1020648Y77962D01*
X1020590Y78070D01*
X1020528Y78175D01*
X1020463Y78278D01*
X1020395Y78380D01*
X1020323Y78479D01*
X1020249Y78575D01*
X1020171Y78670D01*
X1020090Y78761D01*
X1020007Y78851D01*
X1019921Y78937D01*
X1019831Y79020D01*
X1019740Y79101D01*
X1019645Y79179D01*
X1019549Y79253D01*
X1019450Y79325D01*
X1019348Y79393D01*
X1019245Y79458D01*
X1019140Y79520D01*
X1019032Y79578D01*
X1018923Y79633D01*
X1018812Y79684D01*
X1018700Y79732D01*
X1018586Y79776D01*
X1018471Y79816D01*
X1018354Y79853D01*
X1018236Y79885D01*
X1018118Y79914D01*
X1017998Y79940D01*
X1017878Y79961D01*
X1017757Y79979D01*
X1017636Y79992D01*
X1017514Y80002D01*
X1017392Y80008D01*
X1017270Y80010D01*
X1017148Y80008D01*
X1017026Y80002D01*
X1016904Y79992D01*
X1016783Y79979D01*
X1016662Y79961D01*
X1016542Y79940D01*
X1016422Y79914D01*
X1016304Y79885D01*
X1016186Y79853D01*
X1016069Y79816D01*
X1015954Y79776D01*
X1015840Y79732D01*
X1015728Y79684D01*
X1015617Y79633D01*
X1015508Y79578D01*
X1015400Y79520D01*
X1015295Y79458D01*
X1015192Y79393D01*
X1015090Y79325D01*
X1014991Y79253D01*
X1014895Y79179D01*
X1014800Y79101D01*
X1014709Y79020D01*
X1014619Y78937D01*
X1014533Y78851D01*
X1014450Y78761D01*
X1014369Y78670D01*
X1014291Y78575D01*
X1014217Y78479D01*
X1014145Y78380D01*
X1014077Y78278D01*
X1014012Y78175D01*
X1013950Y78070D01*
X1013892Y77962D01*
X1013837Y77853D01*
X1013786Y77742D01*
X1013738Y77630D01*
X1013694Y77516D01*
X1013654Y77401D01*
X1013617Y77284D01*
X1013585Y77166D01*
X1013556Y77048D01*
X1013530Y76928D01*
X1013509Y76808D01*
X1013491Y76687D01*
X1013478Y76566D01*
X1013468Y76444D01*
X1013462Y76322D01*
X1013460Y76200D01*
X1013460Y40640D02*
X1013460Y20320D01*
X1013462Y20191D01*
X1013468Y20062D01*
X1013478Y19934D01*
X1013491Y19805D01*
X1013509Y19678D01*
X1013531Y19551D01*
X1013556Y19424D01*
X1013585Y19299D01*
X1013618Y19174D01*
X1013655Y19050D01*
X1013695Y18928D01*
X1013740Y18807D01*
X1013788Y18687D01*
X1013839Y18569D01*
X1013894Y18452D01*
X1013953Y18337D01*
X1014015Y18224D01*
X1014081Y18113D01*
X1014150Y18004D01*
X1014222Y17898D01*
X1014297Y17793D01*
X1014376Y17691D01*
X1014457Y17591D01*
X1014542Y17494D01*
X1014629Y17399D01*
X1014720Y17307D01*
X1014813Y17218D01*
X1014909Y17131D01*
X1015007Y17048D01*
X1015108Y16968D01*
X1015211Y16891D01*
X1015317Y16817D01*
X1015425Y16746D01*
X1015535Y16678D01*
X1015647Y16614D01*
X1015761Y16554D01*
X1015876Y16497D01*
X1015993Y16443D01*
X1016112Y16393D01*
X1016233Y16347D01*
X1016354Y16304D01*
X1016477Y16265D01*
X1016601Y16230D01*
X1016726Y16199D01*
X1016852Y16171D01*
X1016979Y16148D01*
X1017107Y16128D01*
X1017235Y16112D01*
X1017363Y16100D01*
X1017492Y16092D01*
X1017621Y16088D01*
X1017750Y16087D01*
X1017878Y16091D01*
X1018007Y16099D01*
X1018136Y16110D01*
X1018264Y16126D01*
X1018391Y16145D01*
X1018518Y16168D01*
X1018644Y16195D01*
X1018769Y16226D01*
X1018893Y16261D01*
X1019017Y16299D01*
X1019138Y16341D01*
X1019259Y16387D01*
X1019378Y16437D01*
X1019495Y16490D01*
X1019611Y16547D01*
X1019725Y16607D01*
X1019838Y16670D01*
X1019948Y16737D01*
X1020056Y16808D01*
X1020162Y16881D01*
X1020265Y16958D01*
X1020366Y17038D01*
X1020465Y17121D01*
X1020561Y17207D01*
X1020655Y17296D01*
X1020746Y17387D01*
X1020833Y17482D01*
X1020918Y17579D01*
X1021000Y17678D01*
X1021079Y17780D01*
X1021080Y17780D02*
X1021080Y40640D01*
X1021078Y40762D01*
X1021072Y40884D01*
X1021062Y41006D01*
X1021049Y41127D01*
X1021031Y41248D01*
X1021010Y41368D01*
X1020984Y41488D01*
X1020955Y41606D01*
X1020923Y41724D01*
X1020886Y41841D01*
X1020846Y41956D01*
X1020802Y42070D01*
X1020754Y42182D01*
X1020703Y42293D01*
X1020648Y42402D01*
X1020590Y42510D01*
X1020528Y42615D01*
X1020463Y42718D01*
X1020395Y42820D01*
X1020323Y42919D01*
X1020249Y43015D01*
X1020171Y43110D01*
X1020090Y43201D01*
X1020007Y43291D01*
X1019921Y43377D01*
X1019831Y43460D01*
X1019740Y43541D01*
X1019645Y43619D01*
X1019549Y43693D01*
X1019450Y43765D01*
X1019348Y43833D01*
X1019245Y43898D01*
X1019140Y43960D01*
X1019032Y44018D01*
X1018923Y44073D01*
X1018812Y44124D01*
X1018700Y44172D01*
X1018586Y44216D01*
X1018471Y44256D01*
X1018354Y44293D01*
X1018236Y44325D01*
X1018118Y44354D01*
X1017998Y44380D01*
X1017878Y44401D01*
X1017757Y44419D01*
X1017636Y44432D01*
X1017514Y44442D01*
X1017392Y44448D01*
X1017270Y44450D01*
X1017148Y44448D01*
X1017026Y44442D01*
X1016904Y44432D01*
X1016783Y44419D01*
X1016662Y44401D01*
X1016542Y44380D01*
X1016422Y44354D01*
X1016304Y44325D01*
X1016186Y44293D01*
X1016069Y44256D01*
X1015954Y44216D01*
X1015840Y44172D01*
X1015728Y44124D01*
X1015617Y44073D01*
X1015508Y44018D01*
X1015400Y43960D01*
X1015295Y43898D01*
X1015192Y43833D01*
X1015090Y43765D01*
X1014991Y43693D01*
X1014895Y43619D01*
X1014800Y43541D01*
X1014709Y43460D01*
X1014619Y43377D01*
X1014533Y43291D01*
X1014450Y43201D01*
X1014369Y43110D01*
X1014291Y43015D01*
X1014217Y42919D01*
X1014145Y42820D01*
X1014077Y42718D01*
X1014012Y42615D01*
X1013950Y42510D01*
X1013892Y42402D01*
X1013837Y42293D01*
X1013786Y42182D01*
X1013738Y42070D01*
X1013694Y41956D01*
X1013654Y41841D01*
X1013617Y41724D01*
X1013585Y41606D01*
X1013556Y41488D01*
X1013530Y41368D01*
X1013509Y41248D01*
X1013491Y41127D01*
X1013478Y41006D01*
X1013468Y40884D01*
X1013462Y40762D01*
X1013460Y40640D01*
D10*
X954278Y728980D02*
X954283Y729373D01*
X954297Y729765D01*
X954321Y730157D01*
X954355Y730548D01*
X954398Y730939D01*
X954451Y731328D01*
X954514Y731716D01*
X954585Y732102D01*
X954667Y732486D01*
X954758Y732868D01*
X954858Y733248D01*
X954967Y733625D01*
X955086Y734000D01*
X955213Y734371D01*
X955350Y734739D01*
X955496Y735104D01*
X955651Y735465D01*
X955814Y735822D01*
X955987Y736175D01*
X956167Y736523D01*
X956357Y736867D01*
X956555Y737207D01*
X956761Y737541D01*
X956975Y737870D01*
X957197Y738194D01*
X957427Y738512D01*
X957665Y738825D01*
X957910Y739132D01*
X958163Y739432D01*
X958423Y739726D01*
X958691Y740014D01*
X958965Y740295D01*
X959246Y740569D01*
X959534Y740837D01*
X959828Y741097D01*
X960128Y741350D01*
X960435Y741595D01*
X960748Y741833D01*
X961066Y742063D01*
X961390Y742285D01*
X961719Y742499D01*
X962053Y742705D01*
X962393Y742903D01*
X962737Y743093D01*
X963085Y743273D01*
X963438Y743446D01*
X963795Y743609D01*
X964156Y743764D01*
X964521Y743910D01*
X964889Y744047D01*
X965260Y744174D01*
X965635Y744293D01*
X966012Y744402D01*
X966392Y744502D01*
X966774Y744593D01*
X967158Y744675D01*
X967544Y744746D01*
X967932Y744809D01*
X968321Y744862D01*
X968712Y744905D01*
X969103Y744939D01*
X969495Y744963D01*
X969887Y744977D01*
X970280Y744982D01*
X970673Y744977D01*
X971065Y744963D01*
X971457Y744939D01*
X971848Y744905D01*
X972239Y744862D01*
X972628Y744809D01*
X973016Y744746D01*
X973402Y744675D01*
X973786Y744593D01*
X974168Y744502D01*
X974548Y744402D01*
X974925Y744293D01*
X975300Y744174D01*
X975671Y744047D01*
X976039Y743910D01*
X976404Y743764D01*
X976765Y743609D01*
X977122Y743446D01*
X977475Y743273D01*
X977823Y743093D01*
X978167Y742903D01*
X978507Y742705D01*
X978841Y742499D01*
X979170Y742285D01*
X979494Y742063D01*
X979812Y741833D01*
X980125Y741595D01*
X980432Y741350D01*
X980732Y741097D01*
X981026Y740837D01*
X981314Y740569D01*
X981595Y740295D01*
X981869Y740014D01*
X982137Y739726D01*
X982397Y739432D01*
X982650Y739132D01*
X982895Y738825D01*
X983133Y738512D01*
X983363Y738194D01*
X983585Y737870D01*
X983799Y737541D01*
X984005Y737207D01*
X984203Y736867D01*
X984393Y736523D01*
X984573Y736175D01*
X984746Y735822D01*
X984909Y735465D01*
X985064Y735104D01*
X985210Y734739D01*
X985347Y734371D01*
X985474Y734000D01*
X985593Y733625D01*
X985702Y733248D01*
X985802Y732868D01*
X985893Y732486D01*
X985975Y732102D01*
X986046Y731716D01*
X986109Y731328D01*
X986162Y730939D01*
X986205Y730548D01*
X986239Y730157D01*
X986263Y729765D01*
X986277Y729373D01*
X986282Y728980D01*
X986277Y728587D01*
X986263Y728195D01*
X986239Y727803D01*
X986205Y727412D01*
X986162Y727021D01*
X986109Y726632D01*
X986046Y726244D01*
X985975Y725858D01*
X985893Y725474D01*
X985802Y725092D01*
X985702Y724712D01*
X985593Y724335D01*
X985474Y723960D01*
X985347Y723589D01*
X985210Y723221D01*
X985064Y722856D01*
X984909Y722495D01*
X984746Y722138D01*
X984573Y721785D01*
X984393Y721437D01*
X984203Y721093D01*
X984005Y720753D01*
X983799Y720419D01*
X983585Y720090D01*
X983363Y719766D01*
X983133Y719448D01*
X982895Y719135D01*
X982650Y718828D01*
X982397Y718528D01*
X982137Y718234D01*
X981869Y717946D01*
X981595Y717665D01*
X981314Y717391D01*
X981026Y717123D01*
X980732Y716863D01*
X980432Y716610D01*
X980125Y716365D01*
X979812Y716127D01*
X979494Y715897D01*
X979170Y715675D01*
X978841Y715461D01*
X978507Y715255D01*
X978167Y715057D01*
X977823Y714867D01*
X977475Y714687D01*
X977122Y714514D01*
X976765Y714351D01*
X976404Y714196D01*
X976039Y714050D01*
X975671Y713913D01*
X975300Y713786D01*
X974925Y713667D01*
X974548Y713558D01*
X974168Y713458D01*
X973786Y713367D01*
X973402Y713285D01*
X973016Y713214D01*
X972628Y713151D01*
X972239Y713098D01*
X971848Y713055D01*
X971457Y713021D01*
X971065Y712997D01*
X970673Y712983D01*
X970280Y712978D01*
X969887Y712983D01*
X969495Y712997D01*
X969103Y713021D01*
X968712Y713055D01*
X968321Y713098D01*
X967932Y713151D01*
X967544Y713214D01*
X967158Y713285D01*
X966774Y713367D01*
X966392Y713458D01*
X966012Y713558D01*
X965635Y713667D01*
X965260Y713786D01*
X964889Y713913D01*
X964521Y714050D01*
X964156Y714196D01*
X963795Y714351D01*
X963438Y714514D01*
X963085Y714687D01*
X962737Y714867D01*
X962393Y715057D01*
X962053Y715255D01*
X961719Y715461D01*
X961390Y715675D01*
X961066Y715897D01*
X960748Y716127D01*
X960435Y716365D01*
X960128Y716610D01*
X959828Y716863D01*
X959534Y717123D01*
X959246Y717391D01*
X958965Y717665D01*
X958691Y717946D01*
X958423Y718234D01*
X958163Y718528D01*
X957910Y718828D01*
X957665Y719135D01*
X957427Y719448D01*
X957197Y719766D01*
X956975Y720090D01*
X956761Y720419D01*
X956555Y720753D01*
X956357Y721093D01*
X956167Y721437D01*
X955987Y721785D01*
X955814Y722138D01*
X955651Y722495D01*
X955496Y722856D01*
X955350Y723221D01*
X955213Y723589D01*
X955086Y723960D01*
X954967Y724335D01*
X954858Y724712D01*
X954758Y725092D01*
X954667Y725474D01*
X954585Y725858D01*
X954514Y726244D01*
X954451Y726632D01*
X954398Y727021D01*
X954355Y727412D01*
X954321Y727803D01*
X954297Y728195D01*
X954283Y728587D01*
X954278Y728980D01*
X954278Y38100D02*
X954283Y38493D01*
X954297Y38885D01*
X954321Y39277D01*
X954355Y39668D01*
X954398Y40059D01*
X954451Y40448D01*
X954514Y40836D01*
X954585Y41222D01*
X954667Y41606D01*
X954758Y41988D01*
X954858Y42368D01*
X954967Y42745D01*
X955086Y43120D01*
X955213Y43491D01*
X955350Y43859D01*
X955496Y44224D01*
X955651Y44585D01*
X955814Y44942D01*
X955987Y45295D01*
X956167Y45643D01*
X956357Y45987D01*
X956555Y46327D01*
X956761Y46661D01*
X956975Y46990D01*
X957197Y47314D01*
X957427Y47632D01*
X957665Y47945D01*
X957910Y48252D01*
X958163Y48552D01*
X958423Y48846D01*
X958691Y49134D01*
X958965Y49415D01*
X959246Y49689D01*
X959534Y49957D01*
X959828Y50217D01*
X960128Y50470D01*
X960435Y50715D01*
X960748Y50953D01*
X961066Y51183D01*
X961390Y51405D01*
X961719Y51619D01*
X962053Y51825D01*
X962393Y52023D01*
X962737Y52213D01*
X963085Y52393D01*
X963438Y52566D01*
X963795Y52729D01*
X964156Y52884D01*
X964521Y53030D01*
X964889Y53167D01*
X965260Y53294D01*
X965635Y53413D01*
X966012Y53522D01*
X966392Y53622D01*
X966774Y53713D01*
X967158Y53795D01*
X967544Y53866D01*
X967932Y53929D01*
X968321Y53982D01*
X968712Y54025D01*
X969103Y54059D01*
X969495Y54083D01*
X969887Y54097D01*
X970280Y54102D01*
X970673Y54097D01*
X971065Y54083D01*
X971457Y54059D01*
X971848Y54025D01*
X972239Y53982D01*
X972628Y53929D01*
X973016Y53866D01*
X973402Y53795D01*
X973786Y53713D01*
X974168Y53622D01*
X974548Y53522D01*
X974925Y53413D01*
X975300Y53294D01*
X975671Y53167D01*
X976039Y53030D01*
X976404Y52884D01*
X976765Y52729D01*
X977122Y52566D01*
X977475Y52393D01*
X977823Y52213D01*
X978167Y52023D01*
X978507Y51825D01*
X978841Y51619D01*
X979170Y51405D01*
X979494Y51183D01*
X979812Y50953D01*
X980125Y50715D01*
X980432Y50470D01*
X980732Y50217D01*
X981026Y49957D01*
X981314Y49689D01*
X981595Y49415D01*
X981869Y49134D01*
X982137Y48846D01*
X982397Y48552D01*
X982650Y48252D01*
X982895Y47945D01*
X983133Y47632D01*
X983363Y47314D01*
X983585Y46990D01*
X983799Y46661D01*
X984005Y46327D01*
X984203Y45987D01*
X984393Y45643D01*
X984573Y45295D01*
X984746Y44942D01*
X984909Y44585D01*
X985064Y44224D01*
X985210Y43859D01*
X985347Y43491D01*
X985474Y43120D01*
X985593Y42745D01*
X985702Y42368D01*
X985802Y41988D01*
X985893Y41606D01*
X985975Y41222D01*
X986046Y40836D01*
X986109Y40448D01*
X986162Y40059D01*
X986205Y39668D01*
X986239Y39277D01*
X986263Y38885D01*
X986277Y38493D01*
X986282Y38100D01*
X986277Y37707D01*
X986263Y37315D01*
X986239Y36923D01*
X986205Y36532D01*
X986162Y36141D01*
X986109Y35752D01*
X986046Y35364D01*
X985975Y34978D01*
X985893Y34594D01*
X985802Y34212D01*
X985702Y33832D01*
X985593Y33455D01*
X985474Y33080D01*
X985347Y32709D01*
X985210Y32341D01*
X985064Y31976D01*
X984909Y31615D01*
X984746Y31258D01*
X984573Y30905D01*
X984393Y30557D01*
X984203Y30213D01*
X984005Y29873D01*
X983799Y29539D01*
X983585Y29210D01*
X983363Y28886D01*
X983133Y28568D01*
X982895Y28255D01*
X982650Y27948D01*
X982397Y27648D01*
X982137Y27354D01*
X981869Y27066D01*
X981595Y26785D01*
X981314Y26511D01*
X981026Y26243D01*
X980732Y25983D01*
X980432Y25730D01*
X980125Y25485D01*
X979812Y25247D01*
X979494Y25017D01*
X979170Y24795D01*
X978841Y24581D01*
X978507Y24375D01*
X978167Y24177D01*
X977823Y23987D01*
X977475Y23807D01*
X977122Y23634D01*
X976765Y23471D01*
X976404Y23316D01*
X976039Y23170D01*
X975671Y23033D01*
X975300Y22906D01*
X974925Y22787D01*
X974548Y22678D01*
X974168Y22578D01*
X973786Y22487D01*
X973402Y22405D01*
X973016Y22334D01*
X972628Y22271D01*
X972239Y22218D01*
X971848Y22175D01*
X971457Y22141D01*
X971065Y22117D01*
X970673Y22103D01*
X970280Y22098D01*
X969887Y22103D01*
X969495Y22117D01*
X969103Y22141D01*
X968712Y22175D01*
X968321Y22218D01*
X967932Y22271D01*
X967544Y22334D01*
X967158Y22405D01*
X966774Y22487D01*
X966392Y22578D01*
X966012Y22678D01*
X965635Y22787D01*
X965260Y22906D01*
X964889Y23033D01*
X964521Y23170D01*
X964156Y23316D01*
X963795Y23471D01*
X963438Y23634D01*
X963085Y23807D01*
X962737Y23987D01*
X962393Y24177D01*
X962053Y24375D01*
X961719Y24581D01*
X961390Y24795D01*
X961066Y25017D01*
X960748Y25247D01*
X960435Y25485D01*
X960128Y25730D01*
X959828Y25983D01*
X959534Y26243D01*
X959246Y26511D01*
X958965Y26785D01*
X958691Y27066D01*
X958423Y27354D01*
X958163Y27648D01*
X957910Y27948D01*
X957665Y28255D01*
X957427Y28568D01*
X957197Y28886D01*
X956975Y29210D01*
X956761Y29539D01*
X956555Y29873D01*
X956357Y30213D01*
X956167Y30557D01*
X955987Y30905D01*
X955814Y31258D01*
X955651Y31615D01*
X955496Y31976D01*
X955350Y32341D01*
X955213Y32709D01*
X955086Y33080D01*
X954967Y33455D01*
X954858Y33832D01*
X954758Y34212D01*
X954667Y34594D01*
X954585Y34978D01*
X954514Y35364D01*
X954451Y35752D01*
X954398Y36141D01*
X954355Y36532D01*
X954321Y36923D01*
X954297Y37315D01*
X954283Y37707D01*
X954278Y38100D01*
X22098Y38100D02*
X22103Y38493D01*
X22117Y38885D01*
X22141Y39277D01*
X22175Y39668D01*
X22218Y40059D01*
X22271Y40448D01*
X22334Y40836D01*
X22405Y41222D01*
X22487Y41606D01*
X22578Y41988D01*
X22678Y42368D01*
X22787Y42745D01*
X22906Y43120D01*
X23033Y43491D01*
X23170Y43859D01*
X23316Y44224D01*
X23471Y44585D01*
X23634Y44942D01*
X23807Y45295D01*
X23987Y45643D01*
X24177Y45987D01*
X24375Y46327D01*
X24581Y46661D01*
X24795Y46990D01*
X25017Y47314D01*
X25247Y47632D01*
X25485Y47945D01*
X25730Y48252D01*
X25983Y48552D01*
X26243Y48846D01*
X26511Y49134D01*
X26785Y49415D01*
X27066Y49689D01*
X27354Y49957D01*
X27648Y50217D01*
X27948Y50470D01*
X28255Y50715D01*
X28568Y50953D01*
X28886Y51183D01*
X29210Y51405D01*
X29539Y51619D01*
X29873Y51825D01*
X30213Y52023D01*
X30557Y52213D01*
X30905Y52393D01*
X31258Y52566D01*
X31615Y52729D01*
X31976Y52884D01*
X32341Y53030D01*
X32709Y53167D01*
X33080Y53294D01*
X33455Y53413D01*
X33832Y53522D01*
X34212Y53622D01*
X34594Y53713D01*
X34978Y53795D01*
X35364Y53866D01*
X35752Y53929D01*
X36141Y53982D01*
X36532Y54025D01*
X36923Y54059D01*
X37315Y54083D01*
X37707Y54097D01*
X38100Y54102D01*
X38493Y54097D01*
X38885Y54083D01*
X39277Y54059D01*
X39668Y54025D01*
X40059Y53982D01*
X40448Y53929D01*
X40836Y53866D01*
X41222Y53795D01*
X41606Y53713D01*
X41988Y53622D01*
X42368Y53522D01*
X42745Y53413D01*
X43120Y53294D01*
X43491Y53167D01*
X43859Y53030D01*
X44224Y52884D01*
X44585Y52729D01*
X44942Y52566D01*
X45295Y52393D01*
X45643Y52213D01*
X45987Y52023D01*
X46327Y51825D01*
X46661Y51619D01*
X46990Y51405D01*
X47314Y51183D01*
X47632Y50953D01*
X47945Y50715D01*
X48252Y50470D01*
X48552Y50217D01*
X48846Y49957D01*
X49134Y49689D01*
X49415Y49415D01*
X49689Y49134D01*
X49957Y48846D01*
X50217Y48552D01*
X50470Y48252D01*
X50715Y47945D01*
X50953Y47632D01*
X51183Y47314D01*
X51405Y46990D01*
X51619Y46661D01*
X51825Y46327D01*
X52023Y45987D01*
X52213Y45643D01*
X52393Y45295D01*
X52566Y44942D01*
X52729Y44585D01*
X52884Y44224D01*
X53030Y43859D01*
X53167Y43491D01*
X53294Y43120D01*
X53413Y42745D01*
X53522Y42368D01*
X53622Y41988D01*
X53713Y41606D01*
X53795Y41222D01*
X53866Y40836D01*
X53929Y40448D01*
X53982Y40059D01*
X54025Y39668D01*
X54059Y39277D01*
X54083Y38885D01*
X54097Y38493D01*
X54102Y38100D01*
X54097Y37707D01*
X54083Y37315D01*
X54059Y36923D01*
X54025Y36532D01*
X53982Y36141D01*
X53929Y35752D01*
X53866Y35364D01*
X53795Y34978D01*
X53713Y34594D01*
X53622Y34212D01*
X53522Y33832D01*
X53413Y33455D01*
X53294Y33080D01*
X53167Y32709D01*
X53030Y32341D01*
X52884Y31976D01*
X52729Y31615D01*
X52566Y31258D01*
X52393Y30905D01*
X52213Y30557D01*
X52023Y30213D01*
X51825Y29873D01*
X51619Y29539D01*
X51405Y29210D01*
X51183Y28886D01*
X50953Y28568D01*
X50715Y28255D01*
X50470Y27948D01*
X50217Y27648D01*
X49957Y27354D01*
X49689Y27066D01*
X49415Y26785D01*
X49134Y26511D01*
X48846Y26243D01*
X48552Y25983D01*
X48252Y25730D01*
X47945Y25485D01*
X47632Y25247D01*
X47314Y25017D01*
X46990Y24795D01*
X46661Y24581D01*
X46327Y24375D01*
X45987Y24177D01*
X45643Y23987D01*
X45295Y23807D01*
X44942Y23634D01*
X44585Y23471D01*
X44224Y23316D01*
X43859Y23170D01*
X43491Y23033D01*
X43120Y22906D01*
X42745Y22787D01*
X42368Y22678D01*
X41988Y22578D01*
X41606Y22487D01*
X41222Y22405D01*
X40836Y22334D01*
X40448Y22271D01*
X40059Y22218D01*
X39668Y22175D01*
X39277Y22141D01*
X38885Y22117D01*
X38493Y22103D01*
X38100Y22098D01*
X37707Y22103D01*
X37315Y22117D01*
X36923Y22141D01*
X36532Y22175D01*
X36141Y22218D01*
X35752Y22271D01*
X35364Y22334D01*
X34978Y22405D01*
X34594Y22487D01*
X34212Y22578D01*
X33832Y22678D01*
X33455Y22787D01*
X33080Y22906D01*
X32709Y23033D01*
X32341Y23170D01*
X31976Y23316D01*
X31615Y23471D01*
X31258Y23634D01*
X30905Y23807D01*
X30557Y23987D01*
X30213Y24177D01*
X29873Y24375D01*
X29539Y24581D01*
X29210Y24795D01*
X28886Y25017D01*
X28568Y25247D01*
X28255Y25485D01*
X27948Y25730D01*
X27648Y25983D01*
X27354Y26243D01*
X27066Y26511D01*
X26785Y26785D01*
X26511Y27066D01*
X26243Y27354D01*
X25983Y27648D01*
X25730Y27948D01*
X25485Y28255D01*
X25247Y28568D01*
X25017Y28886D01*
X24795Y29210D01*
X24581Y29539D01*
X24375Y29873D01*
X24177Y30213D01*
X23987Y30557D01*
X23807Y30905D01*
X23634Y31258D01*
X23471Y31615D01*
X23316Y31976D01*
X23170Y32341D01*
X23033Y32709D01*
X22906Y33080D01*
X22787Y33455D01*
X22678Y33832D01*
X22578Y34212D01*
X22487Y34594D01*
X22405Y34978D01*
X22334Y35364D01*
X22271Y35752D01*
X22218Y36141D01*
X22175Y36532D01*
X22141Y36923D01*
X22117Y37315D01*
X22103Y37707D01*
X22098Y38100D01*
X339598Y728980D02*
X339603Y729373D01*
X339617Y729765D01*
X339641Y730157D01*
X339675Y730548D01*
X339718Y730939D01*
X339771Y731328D01*
X339834Y731716D01*
X339905Y732102D01*
X339987Y732486D01*
X340078Y732868D01*
X340178Y733248D01*
X340287Y733625D01*
X340406Y734000D01*
X340533Y734371D01*
X340670Y734739D01*
X340816Y735104D01*
X340971Y735465D01*
X341134Y735822D01*
X341307Y736175D01*
X341487Y736523D01*
X341677Y736867D01*
X341875Y737207D01*
X342081Y737541D01*
X342295Y737870D01*
X342517Y738194D01*
X342747Y738512D01*
X342985Y738825D01*
X343230Y739132D01*
X343483Y739432D01*
X343743Y739726D01*
X344011Y740014D01*
X344285Y740295D01*
X344566Y740569D01*
X344854Y740837D01*
X345148Y741097D01*
X345448Y741350D01*
X345755Y741595D01*
X346068Y741833D01*
X346386Y742063D01*
X346710Y742285D01*
X347039Y742499D01*
X347373Y742705D01*
X347713Y742903D01*
X348057Y743093D01*
X348405Y743273D01*
X348758Y743446D01*
X349115Y743609D01*
X349476Y743764D01*
X349841Y743910D01*
X350209Y744047D01*
X350580Y744174D01*
X350955Y744293D01*
X351332Y744402D01*
X351712Y744502D01*
X352094Y744593D01*
X352478Y744675D01*
X352864Y744746D01*
X353252Y744809D01*
X353641Y744862D01*
X354032Y744905D01*
X354423Y744939D01*
X354815Y744963D01*
X355207Y744977D01*
X355600Y744982D01*
X355993Y744977D01*
X356385Y744963D01*
X356777Y744939D01*
X357168Y744905D01*
X357559Y744862D01*
X357948Y744809D01*
X358336Y744746D01*
X358722Y744675D01*
X359106Y744593D01*
X359488Y744502D01*
X359868Y744402D01*
X360245Y744293D01*
X360620Y744174D01*
X360991Y744047D01*
X361359Y743910D01*
X361724Y743764D01*
X362085Y743609D01*
X362442Y743446D01*
X362795Y743273D01*
X363143Y743093D01*
X363487Y742903D01*
X363827Y742705D01*
X364161Y742499D01*
X364490Y742285D01*
X364814Y742063D01*
X365132Y741833D01*
X365445Y741595D01*
X365752Y741350D01*
X366052Y741097D01*
X366346Y740837D01*
X366634Y740569D01*
X366915Y740295D01*
X367189Y740014D01*
X367457Y739726D01*
X367717Y739432D01*
X367970Y739132D01*
X368215Y738825D01*
X368453Y738512D01*
X368683Y738194D01*
X368905Y737870D01*
X369119Y737541D01*
X369325Y737207D01*
X369523Y736867D01*
X369713Y736523D01*
X369893Y736175D01*
X370066Y735822D01*
X370229Y735465D01*
X370384Y735104D01*
X370530Y734739D01*
X370667Y734371D01*
X370794Y734000D01*
X370913Y733625D01*
X371022Y733248D01*
X371122Y732868D01*
X371213Y732486D01*
X371295Y732102D01*
X371366Y731716D01*
X371429Y731328D01*
X371482Y730939D01*
X371525Y730548D01*
X371559Y730157D01*
X371583Y729765D01*
X371597Y729373D01*
X371602Y728980D01*
X371597Y728587D01*
X371583Y728195D01*
X371559Y727803D01*
X371525Y727412D01*
X371482Y727021D01*
X371429Y726632D01*
X371366Y726244D01*
X371295Y725858D01*
X371213Y725474D01*
X371122Y725092D01*
X371022Y724712D01*
X370913Y724335D01*
X370794Y723960D01*
X370667Y723589D01*
X370530Y723221D01*
X370384Y722856D01*
X370229Y722495D01*
X370066Y722138D01*
X369893Y721785D01*
X369713Y721437D01*
X369523Y721093D01*
X369325Y720753D01*
X369119Y720419D01*
X368905Y720090D01*
X368683Y719766D01*
X368453Y719448D01*
X368215Y719135D01*
X367970Y718828D01*
X367717Y718528D01*
X367457Y718234D01*
X367189Y717946D01*
X366915Y717665D01*
X366634Y717391D01*
X366346Y717123D01*
X366052Y716863D01*
X365752Y716610D01*
X365445Y716365D01*
X365132Y716127D01*
X364814Y715897D01*
X364490Y715675D01*
X364161Y715461D01*
X363827Y715255D01*
X363487Y715057D01*
X363143Y714867D01*
X362795Y714687D01*
X362442Y714514D01*
X362085Y714351D01*
X361724Y714196D01*
X361359Y714050D01*
X360991Y713913D01*
X360620Y713786D01*
X360245Y713667D01*
X359868Y713558D01*
X359488Y713458D01*
X359106Y713367D01*
X358722Y713285D01*
X358336Y713214D01*
X357948Y713151D01*
X357559Y713098D01*
X357168Y713055D01*
X356777Y713021D01*
X356385Y712997D01*
X355993Y712983D01*
X355600Y712978D01*
X355207Y712983D01*
X354815Y712997D01*
X354423Y713021D01*
X354032Y713055D01*
X353641Y713098D01*
X353252Y713151D01*
X352864Y713214D01*
X352478Y713285D01*
X352094Y713367D01*
X351712Y713458D01*
X351332Y713558D01*
X350955Y713667D01*
X350580Y713786D01*
X350209Y713913D01*
X349841Y714050D01*
X349476Y714196D01*
X349115Y714351D01*
X348758Y714514D01*
X348405Y714687D01*
X348057Y714867D01*
X347713Y715057D01*
X347373Y715255D01*
X347039Y715461D01*
X346710Y715675D01*
X346386Y715897D01*
X346068Y716127D01*
X345755Y716365D01*
X345448Y716610D01*
X345148Y716863D01*
X344854Y717123D01*
X344566Y717391D01*
X344285Y717665D01*
X344011Y717946D01*
X343743Y718234D01*
X343483Y718528D01*
X343230Y718828D01*
X342985Y719135D01*
X342747Y719448D01*
X342517Y719766D01*
X342295Y720090D01*
X342081Y720419D01*
X341875Y720753D01*
X341677Y721093D01*
X341487Y721437D01*
X341307Y721785D01*
X341134Y722138D01*
X340971Y722495D01*
X340816Y722856D01*
X340670Y723221D01*
X340533Y723589D01*
X340406Y723960D01*
X340287Y724335D01*
X340178Y724712D01*
X340078Y725092D01*
X339987Y725474D01*
X339905Y725858D01*
X339834Y726244D01*
X339771Y726632D01*
X339718Y727021D01*
X339675Y727412D01*
X339641Y727803D01*
X339617Y728195D01*
X339603Y728587D01*
X339598Y728980D01*
X1048258Y728980D02*
X1048263Y729373D01*
X1048277Y729765D01*
X1048301Y730157D01*
X1048335Y730548D01*
X1048378Y730939D01*
X1048431Y731328D01*
X1048494Y731716D01*
X1048565Y732102D01*
X1048647Y732486D01*
X1048738Y732868D01*
X1048838Y733248D01*
X1048947Y733625D01*
X1049066Y734000D01*
X1049193Y734371D01*
X1049330Y734739D01*
X1049476Y735104D01*
X1049631Y735465D01*
X1049794Y735822D01*
X1049967Y736175D01*
X1050147Y736523D01*
X1050337Y736867D01*
X1050535Y737207D01*
X1050741Y737541D01*
X1050955Y737870D01*
X1051177Y738194D01*
X1051407Y738512D01*
X1051645Y738825D01*
X1051890Y739132D01*
X1052143Y739432D01*
X1052403Y739726D01*
X1052671Y740014D01*
X1052945Y740295D01*
X1053226Y740569D01*
X1053514Y740837D01*
X1053808Y741097D01*
X1054108Y741350D01*
X1054415Y741595D01*
X1054728Y741833D01*
X1055046Y742063D01*
X1055370Y742285D01*
X1055699Y742499D01*
X1056033Y742705D01*
X1056373Y742903D01*
X1056717Y743093D01*
X1057065Y743273D01*
X1057418Y743446D01*
X1057775Y743609D01*
X1058136Y743764D01*
X1058501Y743910D01*
X1058869Y744047D01*
X1059240Y744174D01*
X1059615Y744293D01*
X1059992Y744402D01*
X1060372Y744502D01*
X1060754Y744593D01*
X1061138Y744675D01*
X1061524Y744746D01*
X1061912Y744809D01*
X1062301Y744862D01*
X1062692Y744905D01*
X1063083Y744939D01*
X1063475Y744963D01*
X1063867Y744977D01*
X1064260Y744982D01*
X1064653Y744977D01*
X1065045Y744963D01*
X1065437Y744939D01*
X1065828Y744905D01*
X1066219Y744862D01*
X1066608Y744809D01*
X1066996Y744746D01*
X1067382Y744675D01*
X1067766Y744593D01*
X1068148Y744502D01*
X1068528Y744402D01*
X1068905Y744293D01*
X1069280Y744174D01*
X1069651Y744047D01*
X1070019Y743910D01*
X1070384Y743764D01*
X1070745Y743609D01*
X1071102Y743446D01*
X1071455Y743273D01*
X1071803Y743093D01*
X1072147Y742903D01*
X1072487Y742705D01*
X1072821Y742499D01*
X1073150Y742285D01*
X1073474Y742063D01*
X1073792Y741833D01*
X1074105Y741595D01*
X1074412Y741350D01*
X1074712Y741097D01*
X1075006Y740837D01*
X1075294Y740569D01*
X1075575Y740295D01*
X1075849Y740014D01*
X1076117Y739726D01*
X1076377Y739432D01*
X1076630Y739132D01*
X1076875Y738825D01*
X1077113Y738512D01*
X1077343Y738194D01*
X1077565Y737870D01*
X1077779Y737541D01*
X1077985Y737207D01*
X1078183Y736867D01*
X1078373Y736523D01*
X1078553Y736175D01*
X1078726Y735822D01*
X1078889Y735465D01*
X1079044Y735104D01*
X1079190Y734739D01*
X1079327Y734371D01*
X1079454Y734000D01*
X1079573Y733625D01*
X1079682Y733248D01*
X1079782Y732868D01*
X1079873Y732486D01*
X1079955Y732102D01*
X1080026Y731716D01*
X1080089Y731328D01*
X1080142Y730939D01*
X1080185Y730548D01*
X1080219Y730157D01*
X1080243Y729765D01*
X1080257Y729373D01*
X1080262Y728980D01*
X1080257Y728587D01*
X1080243Y728195D01*
X1080219Y727803D01*
X1080185Y727412D01*
X1080142Y727021D01*
X1080089Y726632D01*
X1080026Y726244D01*
X1079955Y725858D01*
X1079873Y725474D01*
X1079782Y725092D01*
X1079682Y724712D01*
X1079573Y724335D01*
X1079454Y723960D01*
X1079327Y723589D01*
X1079190Y723221D01*
X1079044Y722856D01*
X1078889Y722495D01*
X1078726Y722138D01*
X1078553Y721785D01*
X1078373Y721437D01*
X1078183Y721093D01*
X1077985Y720753D01*
X1077779Y720419D01*
X1077565Y720090D01*
X1077343Y719766D01*
X1077113Y719448D01*
X1076875Y719135D01*
X1076630Y718828D01*
X1076377Y718528D01*
X1076117Y718234D01*
X1075849Y717946D01*
X1075575Y717665D01*
X1075294Y717391D01*
X1075006Y717123D01*
X1074712Y716863D01*
X1074412Y716610D01*
X1074105Y716365D01*
X1073792Y716127D01*
X1073474Y715897D01*
X1073150Y715675D01*
X1072821Y715461D01*
X1072487Y715255D01*
X1072147Y715057D01*
X1071803Y714867D01*
X1071455Y714687D01*
X1071102Y714514D01*
X1070745Y714351D01*
X1070384Y714196D01*
X1070019Y714050D01*
X1069651Y713913D01*
X1069280Y713786D01*
X1068905Y713667D01*
X1068528Y713558D01*
X1068148Y713458D01*
X1067766Y713367D01*
X1067382Y713285D01*
X1066996Y713214D01*
X1066608Y713151D01*
X1066219Y713098D01*
X1065828Y713055D01*
X1065437Y713021D01*
X1065045Y712997D01*
X1064653Y712983D01*
X1064260Y712978D01*
X1063867Y712983D01*
X1063475Y712997D01*
X1063083Y713021D01*
X1062692Y713055D01*
X1062301Y713098D01*
X1061912Y713151D01*
X1061524Y713214D01*
X1061138Y713285D01*
X1060754Y713367D01*
X1060372Y713458D01*
X1059992Y713558D01*
X1059615Y713667D01*
X1059240Y713786D01*
X1058869Y713913D01*
X1058501Y714050D01*
X1058136Y714196D01*
X1057775Y714351D01*
X1057418Y714514D01*
X1057065Y714687D01*
X1056717Y714867D01*
X1056373Y715057D01*
X1056033Y715255D01*
X1055699Y715461D01*
X1055370Y715675D01*
X1055046Y715897D01*
X1054728Y716127D01*
X1054415Y716365D01*
X1054108Y716610D01*
X1053808Y716863D01*
X1053514Y717123D01*
X1053226Y717391D01*
X1052945Y717665D01*
X1052671Y717946D01*
X1052403Y718234D01*
X1052143Y718528D01*
X1051890Y718828D01*
X1051645Y719135D01*
X1051407Y719448D01*
X1051177Y719766D01*
X1050955Y720090D01*
X1050741Y720419D01*
X1050535Y720753D01*
X1050337Y721093D01*
X1050147Y721437D01*
X1049967Y721785D01*
X1049794Y722138D01*
X1049631Y722495D01*
X1049476Y722856D01*
X1049330Y723221D01*
X1049193Y723589D01*
X1049066Y723960D01*
X1048947Y724335D01*
X1048838Y724712D01*
X1048738Y725092D01*
X1048647Y725474D01*
X1048565Y725858D01*
X1048494Y726244D01*
X1048431Y726632D01*
X1048378Y727021D01*
X1048335Y727412D01*
X1048301Y727803D01*
X1048277Y728195D01*
X1048263Y728587D01*
X1048258Y728980D01*
X1220978Y728980D02*
X1220983Y729373D01*
X1220997Y729765D01*
X1221021Y730157D01*
X1221055Y730548D01*
X1221098Y730939D01*
X1221151Y731328D01*
X1221214Y731716D01*
X1221285Y732102D01*
X1221367Y732486D01*
X1221458Y732868D01*
X1221558Y733248D01*
X1221667Y733625D01*
X1221786Y734000D01*
X1221913Y734371D01*
X1222050Y734739D01*
X1222196Y735104D01*
X1222351Y735465D01*
X1222514Y735822D01*
X1222687Y736175D01*
X1222867Y736523D01*
X1223057Y736867D01*
X1223255Y737207D01*
X1223461Y737541D01*
X1223675Y737870D01*
X1223897Y738194D01*
X1224127Y738512D01*
X1224365Y738825D01*
X1224610Y739132D01*
X1224863Y739432D01*
X1225123Y739726D01*
X1225391Y740014D01*
X1225665Y740295D01*
X1225946Y740569D01*
X1226234Y740837D01*
X1226528Y741097D01*
X1226828Y741350D01*
X1227135Y741595D01*
X1227448Y741833D01*
X1227766Y742063D01*
X1228090Y742285D01*
X1228419Y742499D01*
X1228753Y742705D01*
X1229093Y742903D01*
X1229437Y743093D01*
X1229785Y743273D01*
X1230138Y743446D01*
X1230495Y743609D01*
X1230856Y743764D01*
X1231221Y743910D01*
X1231589Y744047D01*
X1231960Y744174D01*
X1232335Y744293D01*
X1232712Y744402D01*
X1233092Y744502D01*
X1233474Y744593D01*
X1233858Y744675D01*
X1234244Y744746D01*
X1234632Y744809D01*
X1235021Y744862D01*
X1235412Y744905D01*
X1235803Y744939D01*
X1236195Y744963D01*
X1236587Y744977D01*
X1236980Y744982D01*
X1237373Y744977D01*
X1237765Y744963D01*
X1238157Y744939D01*
X1238548Y744905D01*
X1238939Y744862D01*
X1239328Y744809D01*
X1239716Y744746D01*
X1240102Y744675D01*
X1240486Y744593D01*
X1240868Y744502D01*
X1241248Y744402D01*
X1241625Y744293D01*
X1242000Y744174D01*
X1242371Y744047D01*
X1242739Y743910D01*
X1243104Y743764D01*
X1243465Y743609D01*
X1243822Y743446D01*
X1244175Y743273D01*
X1244523Y743093D01*
X1244867Y742903D01*
X1245207Y742705D01*
X1245541Y742499D01*
X1245870Y742285D01*
X1246194Y742063D01*
X1246512Y741833D01*
X1246825Y741595D01*
X1247132Y741350D01*
X1247432Y741097D01*
X1247726Y740837D01*
X1248014Y740569D01*
X1248295Y740295D01*
X1248569Y740014D01*
X1248837Y739726D01*
X1249097Y739432D01*
X1249350Y739132D01*
X1249595Y738825D01*
X1249833Y738512D01*
X1250063Y738194D01*
X1250285Y737870D01*
X1250499Y737541D01*
X1250705Y737207D01*
X1250903Y736867D01*
X1251093Y736523D01*
X1251273Y736175D01*
X1251446Y735822D01*
X1251609Y735465D01*
X1251764Y735104D01*
X1251910Y734739D01*
X1252047Y734371D01*
X1252174Y734000D01*
X1252293Y733625D01*
X1252402Y733248D01*
X1252502Y732868D01*
X1252593Y732486D01*
X1252675Y732102D01*
X1252746Y731716D01*
X1252809Y731328D01*
X1252862Y730939D01*
X1252905Y730548D01*
X1252939Y730157D01*
X1252963Y729765D01*
X1252977Y729373D01*
X1252982Y728980D01*
X1252977Y728587D01*
X1252963Y728195D01*
X1252939Y727803D01*
X1252905Y727412D01*
X1252862Y727021D01*
X1252809Y726632D01*
X1252746Y726244D01*
X1252675Y725858D01*
X1252593Y725474D01*
X1252502Y725092D01*
X1252402Y724712D01*
X1252293Y724335D01*
X1252174Y723960D01*
X1252047Y723589D01*
X1251910Y723221D01*
X1251764Y722856D01*
X1251609Y722495D01*
X1251446Y722138D01*
X1251273Y721785D01*
X1251093Y721437D01*
X1250903Y721093D01*
X1250705Y720753D01*
X1250499Y720419D01*
X1250285Y720090D01*
X1250063Y719766D01*
X1249833Y719448D01*
X1249595Y719135D01*
X1249350Y718828D01*
X1249097Y718528D01*
X1248837Y718234D01*
X1248569Y717946D01*
X1248295Y717665D01*
X1248014Y717391D01*
X1247726Y717123D01*
X1247432Y716863D01*
X1247132Y716610D01*
X1246825Y716365D01*
X1246512Y716127D01*
X1246194Y715897D01*
X1245870Y715675D01*
X1245541Y715461D01*
X1245207Y715255D01*
X1244867Y715057D01*
X1244523Y714867D01*
X1244175Y714687D01*
X1243822Y714514D01*
X1243465Y714351D01*
X1243104Y714196D01*
X1242739Y714050D01*
X1242371Y713913D01*
X1242000Y713786D01*
X1241625Y713667D01*
X1241248Y713558D01*
X1240868Y713458D01*
X1240486Y713367D01*
X1240102Y713285D01*
X1239716Y713214D01*
X1239328Y713151D01*
X1238939Y713098D01*
X1238548Y713055D01*
X1238157Y713021D01*
X1237765Y712997D01*
X1237373Y712983D01*
X1236980Y712978D01*
X1236587Y712983D01*
X1236195Y712997D01*
X1235803Y713021D01*
X1235412Y713055D01*
X1235021Y713098D01*
X1234632Y713151D01*
X1234244Y713214D01*
X1233858Y713285D01*
X1233474Y713367D01*
X1233092Y713458D01*
X1232712Y713558D01*
X1232335Y713667D01*
X1231960Y713786D01*
X1231589Y713913D01*
X1231221Y714050D01*
X1230856Y714196D01*
X1230495Y714351D01*
X1230138Y714514D01*
X1229785Y714687D01*
X1229437Y714867D01*
X1229093Y715057D01*
X1228753Y715255D01*
X1228419Y715461D01*
X1228090Y715675D01*
X1227766Y715897D01*
X1227448Y716127D01*
X1227135Y716365D01*
X1226828Y716610D01*
X1226528Y716863D01*
X1226234Y717123D01*
X1225946Y717391D01*
X1225665Y717665D01*
X1225391Y717946D01*
X1225123Y718234D01*
X1224863Y718528D01*
X1224610Y718828D01*
X1224365Y719135D01*
X1224127Y719448D01*
X1223897Y719766D01*
X1223675Y720090D01*
X1223461Y720419D01*
X1223255Y720753D01*
X1223057Y721093D01*
X1222867Y721437D01*
X1222687Y721785D01*
X1222514Y722138D01*
X1222351Y722495D01*
X1222196Y722856D01*
X1222050Y723221D01*
X1221913Y723589D01*
X1221786Y723960D01*
X1221667Y724335D01*
X1221558Y724712D01*
X1221458Y725092D01*
X1221367Y725474D01*
X1221285Y725858D01*
X1221214Y726244D01*
X1221151Y726632D01*
X1221098Y727021D01*
X1221055Y727412D01*
X1221021Y727803D01*
X1220997Y728195D01*
X1220983Y728587D01*
X1220978Y728980D01*
X1220978Y38100D02*
X1220983Y38493D01*
X1220997Y38885D01*
X1221021Y39277D01*
X1221055Y39668D01*
X1221098Y40059D01*
X1221151Y40448D01*
X1221214Y40836D01*
X1221285Y41222D01*
X1221367Y41606D01*
X1221458Y41988D01*
X1221558Y42368D01*
X1221667Y42745D01*
X1221786Y43120D01*
X1221913Y43491D01*
X1222050Y43859D01*
X1222196Y44224D01*
X1222351Y44585D01*
X1222514Y44942D01*
X1222687Y45295D01*
X1222867Y45643D01*
X1223057Y45987D01*
X1223255Y46327D01*
X1223461Y46661D01*
X1223675Y46990D01*
X1223897Y47314D01*
X1224127Y47632D01*
X1224365Y47945D01*
X1224610Y48252D01*
X1224863Y48552D01*
X1225123Y48846D01*
X1225391Y49134D01*
X1225665Y49415D01*
X1225946Y49689D01*
X1226234Y49957D01*
X1226528Y50217D01*
X1226828Y50470D01*
X1227135Y50715D01*
X1227448Y50953D01*
X1227766Y51183D01*
X1228090Y51405D01*
X1228419Y51619D01*
X1228753Y51825D01*
X1229093Y52023D01*
X1229437Y52213D01*
X1229785Y52393D01*
X1230138Y52566D01*
X1230495Y52729D01*
X1230856Y52884D01*
X1231221Y53030D01*
X1231589Y53167D01*
X1231960Y53294D01*
X1232335Y53413D01*
X1232712Y53522D01*
X1233092Y53622D01*
X1233474Y53713D01*
X1233858Y53795D01*
X1234244Y53866D01*
X1234632Y53929D01*
X1235021Y53982D01*
X1235412Y54025D01*
X1235803Y54059D01*
X1236195Y54083D01*
X1236587Y54097D01*
X1236980Y54102D01*
X1237373Y54097D01*
X1237765Y54083D01*
X1238157Y54059D01*
X1238548Y54025D01*
X1238939Y53982D01*
X1239328Y53929D01*
X1239716Y53866D01*
X1240102Y53795D01*
X1240486Y53713D01*
X1240868Y53622D01*
X1241248Y53522D01*
X1241625Y53413D01*
X1242000Y53294D01*
X1242371Y53167D01*
X1242739Y53030D01*
X1243104Y52884D01*
X1243465Y52729D01*
X1243822Y52566D01*
X1244175Y52393D01*
X1244523Y52213D01*
X1244867Y52023D01*
X1245207Y51825D01*
X1245541Y51619D01*
X1245870Y51405D01*
X1246194Y51183D01*
X1246512Y50953D01*
X1246825Y50715D01*
X1247132Y50470D01*
X1247432Y50217D01*
X1247726Y49957D01*
X1248014Y49689D01*
X1248295Y49415D01*
X1248569Y49134D01*
X1248837Y48846D01*
X1249097Y48552D01*
X1249350Y48252D01*
X1249595Y47945D01*
X1249833Y47632D01*
X1250063Y47314D01*
X1250285Y46990D01*
X1250499Y46661D01*
X1250705Y46327D01*
X1250903Y45987D01*
X1251093Y45643D01*
X1251273Y45295D01*
X1251446Y44942D01*
X1251609Y44585D01*
X1251764Y44224D01*
X1251910Y43859D01*
X1252047Y43491D01*
X1252174Y43120D01*
X1252293Y42745D01*
X1252402Y42368D01*
X1252502Y41988D01*
X1252593Y41606D01*
X1252675Y41222D01*
X1252746Y40836D01*
X1252809Y40448D01*
X1252862Y40059D01*
X1252905Y39668D01*
X1252939Y39277D01*
X1252963Y38885D01*
X1252977Y38493D01*
X1252982Y38100D01*
X1252977Y37707D01*
X1252963Y37315D01*
X1252939Y36923D01*
X1252905Y36532D01*
X1252862Y36141D01*
X1252809Y35752D01*
X1252746Y35364D01*
X1252675Y34978D01*
X1252593Y34594D01*
X1252502Y34212D01*
X1252402Y33832D01*
X1252293Y33455D01*
X1252174Y33080D01*
X1252047Y32709D01*
X1251910Y32341D01*
X1251764Y31976D01*
X1251609Y31615D01*
X1251446Y31258D01*
X1251273Y30905D01*
X1251093Y30557D01*
X1250903Y30213D01*
X1250705Y29873D01*
X1250499Y29539D01*
X1250285Y29210D01*
X1250063Y28886D01*
X1249833Y28568D01*
X1249595Y28255D01*
X1249350Y27948D01*
X1249097Y27648D01*
X1248837Y27354D01*
X1248569Y27066D01*
X1248295Y26785D01*
X1248014Y26511D01*
X1247726Y26243D01*
X1247432Y25983D01*
X1247132Y25730D01*
X1246825Y25485D01*
X1246512Y25247D01*
X1246194Y25017D01*
X1245870Y24795D01*
X1245541Y24581D01*
X1245207Y24375D01*
X1244867Y24177D01*
X1244523Y23987D01*
X1244175Y23807D01*
X1243822Y23634D01*
X1243465Y23471D01*
X1243104Y23316D01*
X1242739Y23170D01*
X1242371Y23033D01*
X1242000Y22906D01*
X1241625Y22787D01*
X1241248Y22678D01*
X1240868Y22578D01*
X1240486Y22487D01*
X1240102Y22405D01*
X1239716Y22334D01*
X1239328Y22271D01*
X1238939Y22218D01*
X1238548Y22175D01*
X1238157Y22141D01*
X1237765Y22117D01*
X1237373Y22103D01*
X1236980Y22098D01*
X1236587Y22103D01*
X1236195Y22117D01*
X1235803Y22141D01*
X1235412Y22175D01*
X1235021Y22218D01*
X1234632Y22271D01*
X1234244Y22334D01*
X1233858Y22405D01*
X1233474Y22487D01*
X1233092Y22578D01*
X1232712Y22678D01*
X1232335Y22787D01*
X1231960Y22906D01*
X1231589Y23033D01*
X1231221Y23170D01*
X1230856Y23316D01*
X1230495Y23471D01*
X1230138Y23634D01*
X1229785Y23807D01*
X1229437Y23987D01*
X1229093Y24177D01*
X1228753Y24375D01*
X1228419Y24581D01*
X1228090Y24795D01*
X1227766Y25017D01*
X1227448Y25247D01*
X1227135Y25485D01*
X1226828Y25730D01*
X1226528Y25983D01*
X1226234Y26243D01*
X1225946Y26511D01*
X1225665Y26785D01*
X1225391Y27066D01*
X1225123Y27354D01*
X1224863Y27648D01*
X1224610Y27948D01*
X1224365Y28255D01*
X1224127Y28568D01*
X1223897Y28886D01*
X1223675Y29210D01*
X1223461Y29539D01*
X1223255Y29873D01*
X1223057Y30213D01*
X1222867Y30557D01*
X1222687Y30905D01*
X1222514Y31258D01*
X1222351Y31615D01*
X1222196Y31976D01*
X1222050Y32341D01*
X1221913Y32709D01*
X1221786Y33080D01*
X1221667Y33455D01*
X1221558Y33832D01*
X1221458Y34212D01*
X1221367Y34594D01*
X1221285Y34978D01*
X1221214Y35364D01*
X1221151Y35752D01*
X1221098Y36141D01*
X1221055Y36532D01*
X1221021Y36923D01*
X1220997Y37315D01*
X1220983Y37707D01*
X1220978Y38100D01*
X1048258Y38100D02*
X1048263Y38493D01*
X1048277Y38885D01*
X1048301Y39277D01*
X1048335Y39668D01*
X1048378Y40059D01*
X1048431Y40448D01*
X1048494Y40836D01*
X1048565Y41222D01*
X1048647Y41606D01*
X1048738Y41988D01*
X1048838Y42368D01*
X1048947Y42745D01*
X1049066Y43120D01*
X1049193Y43491D01*
X1049330Y43859D01*
X1049476Y44224D01*
X1049631Y44585D01*
X1049794Y44942D01*
X1049967Y45295D01*
X1050147Y45643D01*
X1050337Y45987D01*
X1050535Y46327D01*
X1050741Y46661D01*
X1050955Y46990D01*
X1051177Y47314D01*
X1051407Y47632D01*
X1051645Y47945D01*
X1051890Y48252D01*
X1052143Y48552D01*
X1052403Y48846D01*
X1052671Y49134D01*
X1052945Y49415D01*
X1053226Y49689D01*
X1053514Y49957D01*
X1053808Y50217D01*
X1054108Y50470D01*
X1054415Y50715D01*
X1054728Y50953D01*
X1055046Y51183D01*
X1055370Y51405D01*
X1055699Y51619D01*
X1056033Y51825D01*
X1056373Y52023D01*
X1056717Y52213D01*
X1057065Y52393D01*
X1057418Y52566D01*
X1057775Y52729D01*
X1058136Y52884D01*
X1058501Y53030D01*
X1058869Y53167D01*
X1059240Y53294D01*
X1059615Y53413D01*
X1059992Y53522D01*
X1060372Y53622D01*
X1060754Y53713D01*
X1061138Y53795D01*
X1061524Y53866D01*
X1061912Y53929D01*
X1062301Y53982D01*
X1062692Y54025D01*
X1063083Y54059D01*
X1063475Y54083D01*
X1063867Y54097D01*
X1064260Y54102D01*
X1064653Y54097D01*
X1065045Y54083D01*
X1065437Y54059D01*
X1065828Y54025D01*
X1066219Y53982D01*
X1066608Y53929D01*
X1066996Y53866D01*
X1067382Y53795D01*
X1067766Y53713D01*
X1068148Y53622D01*
X1068528Y53522D01*
X1068905Y53413D01*
X1069280Y53294D01*
X1069651Y53167D01*
X1070019Y53030D01*
X1070384Y52884D01*
X1070745Y52729D01*
X1071102Y52566D01*
X1071455Y52393D01*
X1071803Y52213D01*
X1072147Y52023D01*
X1072487Y51825D01*
X1072821Y51619D01*
X1073150Y51405D01*
X1073474Y51183D01*
X1073792Y50953D01*
X1074105Y50715D01*
X1074412Y50470D01*
X1074712Y50217D01*
X1075006Y49957D01*
X1075294Y49689D01*
X1075575Y49415D01*
X1075849Y49134D01*
X1076117Y48846D01*
X1076377Y48552D01*
X1076630Y48252D01*
X1076875Y47945D01*
X1077113Y47632D01*
X1077343Y47314D01*
X1077565Y46990D01*
X1077779Y46661D01*
X1077985Y46327D01*
X1078183Y45987D01*
X1078373Y45643D01*
X1078553Y45295D01*
X1078726Y44942D01*
X1078889Y44585D01*
X1079044Y44224D01*
X1079190Y43859D01*
X1079327Y43491D01*
X1079454Y43120D01*
X1079573Y42745D01*
X1079682Y42368D01*
X1079782Y41988D01*
X1079873Y41606D01*
X1079955Y41222D01*
X1080026Y40836D01*
X1080089Y40448D01*
X1080142Y40059D01*
X1080185Y39668D01*
X1080219Y39277D01*
X1080243Y38885D01*
X1080257Y38493D01*
X1080262Y38100D01*
X1080257Y37707D01*
X1080243Y37315D01*
X1080219Y36923D01*
X1080185Y36532D01*
X1080142Y36141D01*
X1080089Y35752D01*
X1080026Y35364D01*
X1079955Y34978D01*
X1079873Y34594D01*
X1079782Y34212D01*
X1079682Y33832D01*
X1079573Y33455D01*
X1079454Y33080D01*
X1079327Y32709D01*
X1079190Y32341D01*
X1079044Y31976D01*
X1078889Y31615D01*
X1078726Y31258D01*
X1078553Y30905D01*
X1078373Y30557D01*
X1078183Y30213D01*
X1077985Y29873D01*
X1077779Y29539D01*
X1077565Y29210D01*
X1077343Y28886D01*
X1077113Y28568D01*
X1076875Y28255D01*
X1076630Y27948D01*
X1076377Y27648D01*
X1076117Y27354D01*
X1075849Y27066D01*
X1075575Y26785D01*
X1075294Y26511D01*
X1075006Y26243D01*
X1074712Y25983D01*
X1074412Y25730D01*
X1074105Y25485D01*
X1073792Y25247D01*
X1073474Y25017D01*
X1073150Y24795D01*
X1072821Y24581D01*
X1072487Y24375D01*
X1072147Y24177D01*
X1071803Y23987D01*
X1071455Y23807D01*
X1071102Y23634D01*
X1070745Y23471D01*
X1070384Y23316D01*
X1070019Y23170D01*
X1069651Y23033D01*
X1069280Y22906D01*
X1068905Y22787D01*
X1068528Y22678D01*
X1068148Y22578D01*
X1067766Y22487D01*
X1067382Y22405D01*
X1066996Y22334D01*
X1066608Y22271D01*
X1066219Y22218D01*
X1065828Y22175D01*
X1065437Y22141D01*
X1065045Y22117D01*
X1064653Y22103D01*
X1064260Y22098D01*
X1063867Y22103D01*
X1063475Y22117D01*
X1063083Y22141D01*
X1062692Y22175D01*
X1062301Y22218D01*
X1061912Y22271D01*
X1061524Y22334D01*
X1061138Y22405D01*
X1060754Y22487D01*
X1060372Y22578D01*
X1059992Y22678D01*
X1059615Y22787D01*
X1059240Y22906D01*
X1058869Y23033D01*
X1058501Y23170D01*
X1058136Y23316D01*
X1057775Y23471D01*
X1057418Y23634D01*
X1057065Y23807D01*
X1056717Y23987D01*
X1056373Y24177D01*
X1056033Y24375D01*
X1055699Y24581D01*
X1055370Y24795D01*
X1055046Y25017D01*
X1054728Y25247D01*
X1054415Y25485D01*
X1054108Y25730D01*
X1053808Y25983D01*
X1053514Y26243D01*
X1053226Y26511D01*
X1052945Y26785D01*
X1052671Y27066D01*
X1052403Y27354D01*
X1052143Y27648D01*
X1051890Y27948D01*
X1051645Y28255D01*
X1051407Y28568D01*
X1051177Y28886D01*
X1050955Y29210D01*
X1050741Y29539D01*
X1050535Y29873D01*
X1050337Y30213D01*
X1050147Y30557D01*
X1049967Y30905D01*
X1049794Y31258D01*
X1049631Y31615D01*
X1049476Y31976D01*
X1049330Y32341D01*
X1049193Y32709D01*
X1049066Y33080D01*
X1048947Y33455D01*
X1048838Y33832D01*
X1048738Y34212D01*
X1048647Y34594D01*
X1048565Y34978D01*
X1048494Y35364D01*
X1048431Y35752D01*
X1048378Y36141D01*
X1048335Y36532D01*
X1048301Y36923D01*
X1048277Y37315D01*
X1048263Y37707D01*
X1048258Y38100D01*
D12*
X0Y0D02*
X1270000Y0D01*
X1270000Y762000D01*
X0Y762000D01*
X0Y0D01*
X1013460Y20320D02*
X1013466Y20089D01*
X1013503Y19721D01*
X1013571Y19358D01*
X1013670Y19003D01*
X1013800Y18657D01*
X1013960Y18324D01*
X1014148Y18006D01*
X1014363Y17706D01*
X1014604Y17426D01*
X1014868Y17168D01*
X1015153Y16933D01*
X1015458Y16725D01*
X1015780Y16544D01*
X1016116Y16391D01*
X1016465Y16269D01*
X1016823Y16177D01*
X1017187Y16117D01*
X1017555Y16089D01*
X1017924Y16093D01*
X1018292Y16129D01*
X1018655Y16197D01*
X1019011Y16297D01*
X1019356Y16427D01*
X1019689Y16587D01*
X1020007Y16775D01*
X1020307Y16990D01*
X1020587Y17231D01*
X1020846Y17495D01*
X1021080Y17780D01*
X1021080Y40640D01*
X1021066Y40972D01*
X1021022Y41302D01*
X1020950Y41626D01*
X1020850Y41943D01*
X1020723Y42250D01*
X1020570Y42545D01*
X1020391Y42825D01*
X1020189Y43089D01*
X1019964Y43334D01*
X1019719Y43559D01*
X1019455Y43761D01*
X1019175Y43940D01*
X1018880Y44093D01*
X1018573Y44220D01*
X1018256Y44320D01*
X1017932Y44392D01*
X1017602Y44436D01*
X1017270Y44450D01*
X1016938Y44436D01*
X1016608Y44392D01*
X1016284Y44320D01*
X1015967Y44220D01*
X1015660Y44093D01*
X1015365Y43940D01*
X1015085Y43761D01*
X1014821Y43559D01*
X1014576Y43334D01*
X1014351Y43089D01*
X1014149Y42825D01*
X1013970Y42545D01*
X1013817Y42250D01*
X1013690Y41943D01*
X1013590Y41626D01*
X1013518Y41302D01*
X1013475Y40972D01*
X1013460Y40640D01*
X1013460Y20320D01*
X1013460Y91440D02*
X1013466Y91209D01*
X1013503Y90841D01*
X1013571Y90478D01*
X1013670Y90123D01*
X1013800Y89777D01*
X1013960Y89444D01*
X1014148Y89126D01*
X1014363Y88826D01*
X1014604Y88546D01*
X1014868Y88288D01*
X1015153Y88053D01*
X1015458Y87845D01*
X1015780Y87664D01*
X1016116Y87511D01*
X1016465Y87389D01*
X1016823Y87297D01*
X1017187Y87237D01*
X1017555Y87209D01*
X1017924Y87213D01*
X1018292Y87249D01*
X1018655Y87317D01*
X1019011Y87417D01*
X1019356Y87547D01*
X1019689Y87707D01*
X1020007Y87895D01*
X1020307Y88110D01*
X1020587Y88351D01*
X1020846Y88615D01*
X1021080Y88900D01*
X1021080Y111760D01*
X1021066Y112092D01*
X1021022Y112422D01*
X1020950Y112746D01*
X1020850Y113063D01*
X1020723Y113370D01*
X1020570Y113665D01*
X1020391Y113945D01*
X1020189Y114209D01*
X1019964Y114454D01*
X1019719Y114679D01*
X1019455Y114881D01*
X1019175Y115060D01*
X1018880Y115213D01*
X1018573Y115340D01*
X1018256Y115440D01*
X1017932Y115512D01*
X1017602Y115556D01*
X1017270Y115570D01*
X1016938Y115556D01*
X1016608Y115512D01*
X1016284Y115440D01*
X1015967Y115340D01*
X1015660Y115213D01*
X1015365Y115060D01*
X1015085Y114881D01*
X1014821Y114679D01*
X1014576Y114454D01*
X1014351Y114209D01*
X1014149Y113945D01*
X1013970Y113665D01*
X1013817Y113370D01*
X1013690Y113063D01*
X1013590Y112746D01*
X1013518Y112422D01*
X1013475Y112092D01*
X1013460Y111760D01*
X1013460Y91440D01*
X1013460Y127000D02*
X1013476Y126631D01*
X1013524Y126265D01*
X1013604Y125904D01*
X1013715Y125552D01*
X1013857Y125211D01*
X1014027Y124883D01*
X1014226Y124572D01*
X1014450Y124279D01*
X1014700Y124007D01*
X1014972Y123757D01*
X1015265Y123532D01*
X1015577Y123334D01*
X1015904Y123163D01*
X1016245Y123022D01*
X1016598Y122911D01*
X1016958Y122831D01*
X1017324Y122783D01*
X1017693Y122767D01*
X1018062Y122783D01*
X1018428Y122831D01*
X1018789Y122911D01*
X1019141Y123022D01*
X1019482Y123163D01*
X1019810Y123334D01*
X1020121Y123532D01*
X1020414Y123757D01*
X1020687Y124007D01*
X1020936Y124279D01*
X1021080Y124460D01*
X1021080Y147320D01*
X1021066Y147652D01*
X1021022Y147982D01*
X1020950Y148306D01*
X1020850Y148623D01*
X1020723Y148930D01*
X1020570Y149225D01*
X1020391Y149505D01*
X1020189Y149769D01*
X1019964Y150014D01*
X1019719Y150239D01*
X1019455Y150441D01*
X1019175Y150620D01*
X1018880Y150773D01*
X1018573Y150900D01*
X1018256Y151000D01*
X1017932Y151072D01*
X1017602Y151116D01*
X1017270Y151130D01*
X1016938Y151116D01*
X1016608Y151072D01*
X1016284Y151000D01*
X1015967Y150900D01*
X1015660Y150773D01*
X1015365Y150620D01*
X1015085Y150441D01*
X1014821Y150239D01*
X1014576Y150014D01*
X1014351Y149769D01*
X1014149Y149505D01*
X1013970Y149225D01*
X1013817Y148930D01*
X1013690Y148623D01*
X1013590Y148306D01*
X1013518Y147982D01*
X1013475Y147652D01*
X1013460Y147320D01*
X1013460Y127000D01*
X1013460Y162560D02*
X1013466Y162329D01*
X1013503Y161961D01*
X1013571Y161598D01*
X1013670Y161243D01*
X1013800Y160897D01*
X1013960Y160564D01*
X1014148Y160246D01*
X1014363Y159946D01*
X1014604Y159666D01*
X1014868Y159408D01*
X1015153Y159173D01*
X1015458Y158965D01*
X1015780Y158784D01*
X1016116Y158631D01*
X1016465Y158509D01*
X1016823Y158417D01*
X1017187Y158357D01*
X1017555Y158329D01*
X1017924Y158333D01*
X1018292Y158369D01*
X1018655Y158437D01*
X1019011Y158537D01*
X1019356Y158667D01*
X1019689Y158827D01*
X1020007Y159015D01*
X1020307Y159230D01*
X1020587Y159471D01*
X1020846Y159735D01*
X1021080Y160020D01*
X1021080Y182880D01*
X1021066Y183212D01*
X1021022Y183542D01*
X1020950Y183866D01*
X1020850Y184183D01*
X1020723Y184490D01*
X1020570Y184785D01*
X1020391Y185065D01*
X1020189Y185329D01*
X1019964Y185574D01*
X1019719Y185799D01*
X1019455Y186001D01*
X1019175Y186180D01*
X1018880Y186333D01*
X1018573Y186460D01*
X1018256Y186560D01*
X1017932Y186632D01*
X1017602Y186676D01*
X1017270Y186690D01*
X1016938Y186676D01*
X1016608Y186632D01*
X1016284Y186560D01*
X1015967Y186460D01*
X1015660Y186333D01*
X1015365Y186180D01*
X1015085Y186001D01*
X1014821Y185799D01*
X1014576Y185574D01*
X1014351Y185329D01*
X1014149Y185065D01*
X1013970Y184785D01*
X1013817Y184490D01*
X1013690Y184183D01*
X1013590Y183866D01*
X1013518Y183542D01*
X1013475Y183212D01*
X1013460Y182880D01*
X1013460Y162560D01*
X1013460Y198120D02*
X1013466Y197889D01*
X1013503Y197521D01*
X1013571Y197158D01*
X1013670Y196803D01*
X1013800Y196457D01*
X1013960Y196124D01*
X1014148Y195806D01*
X1014363Y195506D01*
X1014604Y195226D01*
X1014868Y194968D01*
X1015153Y194733D01*
X1015458Y194525D01*
X1015780Y194344D01*
X1016116Y194191D01*
X1016465Y194069D01*
X1016823Y193977D01*
X1017187Y193917D01*
X1017555Y193889D01*
X1017924Y193893D01*
X1018292Y193929D01*
X1018655Y193997D01*
X1019011Y194097D01*
X1019356Y194227D01*
X1019689Y194387D01*
X1020007Y194575D01*
X1020307Y194790D01*
X1020587Y195031D01*
X1020846Y195295D01*
X1021080Y195580D01*
X1021080Y218440D01*
X1021066Y218772D01*
X1021022Y219102D01*
X1020950Y219426D01*
X1020850Y219743D01*
X1020723Y220050D01*
X1020570Y220345D01*
X1020391Y220625D01*
X1020189Y220889D01*
X1019964Y221134D01*
X1019719Y221359D01*
X1019455Y221561D01*
X1019175Y221740D01*
X1018880Y221893D01*
X1018573Y222020D01*
X1018256Y222120D01*
X1017932Y222192D01*
X1017602Y222236D01*
X1017270Y222250D01*
X1016938Y222236D01*
X1016608Y222192D01*
X1016284Y222120D01*
X1015967Y222020D01*
X1015660Y221893D01*
X1015365Y221740D01*
X1015085Y221561D01*
X1014821Y221359D01*
X1014576Y221134D01*
X1014351Y220889D01*
X1014149Y220625D01*
X1013970Y220345D01*
X1013817Y220050D01*
X1013690Y219743D01*
X1013590Y219426D01*
X1013518Y219102D01*
X1013475Y218772D01*
X1013460Y218440D01*
X1013460Y198120D01*
X1013460Y233680D02*
X1013466Y233449D01*
X1013503Y233081D01*
X1013571Y232718D01*
X1013670Y232363D01*
X1013800Y232017D01*
X1013960Y231684D01*
X1014148Y231366D01*
X1014363Y231066D01*
X1014604Y230786D01*
X1014868Y230528D01*
X1015153Y230293D01*
X1015458Y230085D01*
X1015780Y229904D01*
X1016116Y229751D01*
X1016465Y229629D01*
X1016823Y229537D01*
X1017187Y229477D01*
X1017555Y229449D01*
X1017924Y229453D01*
X1018292Y229489D01*
X1018655Y229557D01*
X1019011Y229657D01*
X1019356Y229787D01*
X1019689Y229947D01*
X1020007Y230135D01*
X1020307Y230350D01*
X1020587Y230591D01*
X1020846Y230855D01*
X1021080Y231140D01*
X1021080Y254000D01*
X1021066Y254332D01*
X1021022Y254662D01*
X1020950Y254986D01*
X1020850Y255303D01*
X1020723Y255610D01*
X1020570Y255905D01*
X1020391Y256185D01*
X1020189Y256449D01*
X1019964Y256694D01*
X1019719Y256919D01*
X1019455Y257121D01*
X1019175Y257300D01*
X1018880Y257453D01*
X1018573Y257580D01*
X1018256Y257680D01*
X1017932Y257752D01*
X1017602Y257796D01*
X1017270Y257810D01*
X1016938Y257796D01*
X1016608Y257752D01*
X1016284Y257680D01*
X1015967Y257580D01*
X1015660Y257453D01*
X1015365Y257300D01*
X1015085Y257121D01*
X1014821Y256919D01*
X1014576Y256694D01*
X1014351Y256449D01*
X1014149Y256185D01*
X1013970Y255905D01*
X1013817Y255610D01*
X1013690Y255303D01*
X1013590Y254986D01*
X1013518Y254662D01*
X1013475Y254332D01*
X1013460Y254000D01*
X1013460Y233680D01*
X1013460Y269240D02*
X1013466Y269009D01*
X1013503Y268641D01*
X1013571Y268278D01*
X1013670Y267923D01*
X1013800Y267577D01*
X1013960Y267244D01*
X1014148Y266926D01*
X1014363Y266626D01*
X1014604Y266346D01*
X1014868Y266088D01*
X1015153Y265853D01*
X1015458Y265645D01*
X1015780Y265464D01*
X1016116Y265311D01*
X1016465Y265189D01*
X1016823Y265097D01*
X1017187Y265037D01*
X1017555Y265009D01*
X1017924Y265013D01*
X1018292Y265049D01*
X1018655Y265117D01*
X1019011Y265217D01*
X1019356Y265347D01*
X1019689Y265507D01*
X1020007Y265695D01*
X1020307Y265910D01*
X1020587Y266151D01*
X1020846Y266415D01*
X1021080Y266700D01*
X1021080Y289560D01*
X1021066Y289892D01*
X1021022Y290222D01*
X1020950Y290546D01*
X1020850Y290863D01*
X1020723Y291170D01*
X1020570Y291465D01*
X1020391Y291745D01*
X1020189Y292009D01*
X1019964Y292254D01*
X1019719Y292479D01*
X1019455Y292681D01*
X1019175Y292860D01*
X1018880Y293013D01*
X1018573Y293140D01*
X1018256Y293240D01*
X1017932Y293312D01*
X1017602Y293356D01*
X1017270Y293370D01*
X1016938Y293356D01*
X1016608Y293312D01*
X1016284Y293240D01*
X1015967Y293140D01*
X1015660Y293013D01*
X1015365Y292860D01*
X1015085Y292681D01*
X1014821Y292479D01*
X1014576Y292254D01*
X1014351Y292009D01*
X1014149Y291745D01*
X1013970Y291465D01*
X1013817Y291170D01*
X1013690Y290863D01*
X1013590Y290546D01*
X1013518Y290222D01*
X1013475Y289892D01*
X1013460Y289560D01*
X1013460Y269240D01*
X1013460Y304800D02*
X1013466Y304569D01*
X1013503Y304201D01*
X1013571Y303838D01*
X1013670Y303483D01*
X1013800Y303137D01*
X1013960Y302804D01*
X1014148Y302486D01*
X1014363Y302186D01*
X1014604Y301906D01*
X1014868Y301648D01*
X1015153Y301413D01*
X1015458Y301205D01*
X1015780Y301024D01*
X1016116Y300871D01*
X1016465Y300749D01*
X1016823Y300657D01*
X1017187Y300597D01*
X1017555Y300569D01*
X1017924Y300573D01*
X1018292Y300609D01*
X1018655Y300677D01*
X1019011Y300777D01*
X1019356Y300907D01*
X1019689Y301067D01*
X1020007Y301255D01*
X1020307Y301470D01*
X1020587Y301711D01*
X1020846Y301975D01*
X1021080Y302260D01*
X1021080Y325120D01*
X1021066Y325452D01*
X1021022Y325782D01*
X1020950Y326106D01*
X1020850Y326423D01*
X1020723Y326730D01*
X1020570Y327025D01*
X1020391Y327305D01*
X1020189Y327569D01*
X1019964Y327814D01*
X1019719Y328039D01*
X1019455Y328241D01*
X1019175Y328420D01*
X1018880Y328573D01*
X1018573Y328700D01*
X1018256Y328800D01*
X1017932Y328872D01*
X1017602Y328916D01*
X1017270Y328930D01*
X1016938Y328916D01*
X1016608Y328872D01*
X1016284Y328800D01*
X1015967Y328700D01*
X1015660Y328573D01*
X1015365Y328420D01*
X1015085Y328241D01*
X1014821Y328039D01*
X1014576Y327814D01*
X1014351Y327569D01*
X1014149Y327305D01*
X1013970Y327025D01*
X1013817Y326730D01*
X1013690Y326423D01*
X1013590Y326106D01*
X1013518Y325782D01*
X1013475Y325452D01*
X1013460Y325120D01*
X1013460Y304800D01*
X1013460Y340360D02*
X1013466Y340129D01*
X1013503Y339761D01*
X1013571Y339398D01*
X1013670Y339043D01*
X1013800Y338697D01*
X1013960Y338364D01*
X1014148Y338046D01*
X1014363Y337746D01*
X1014604Y337466D01*
X1014868Y337208D01*
X1015153Y336973D01*
X1015458Y336765D01*
X1015780Y336584D01*
X1016116Y336431D01*
X1016465Y336309D01*
X1016823Y336217D01*
X1017187Y336157D01*
X1017555Y336129D01*
X1017924Y336133D01*
X1018292Y336169D01*
X1018655Y336237D01*
X1019011Y336337D01*
X1019356Y336467D01*
X1019689Y336627D01*
X1020007Y336815D01*
X1020307Y337030D01*
X1020587Y337271D01*
X1020846Y337535D01*
X1021080Y337820D01*
X1021080Y360680D01*
X1021066Y361012D01*
X1021022Y361342D01*
X1020950Y361666D01*
X1020850Y361983D01*
X1020723Y362290D01*
X1020570Y362585D01*
X1020391Y362865D01*
X1020189Y363129D01*
X1019964Y363374D01*
X1019719Y363599D01*
X1019455Y363801D01*
X1019175Y363980D01*
X1018880Y364133D01*
X1018573Y364260D01*
X1018256Y364360D01*
X1017932Y364432D01*
X1017602Y364476D01*
X1017270Y364490D01*
X1016938Y364476D01*
X1016608Y364432D01*
X1016284Y364360D01*
X1015967Y364260D01*
X1015660Y364133D01*
X1015365Y363980D01*
X1015085Y363801D01*
X1014821Y363599D01*
X1014576Y363374D01*
X1014351Y363129D01*
X1014149Y362865D01*
X1013970Y362585D01*
X1013817Y362290D01*
X1013690Y361983D01*
X1013590Y361666D01*
X1013518Y361342D01*
X1013475Y361012D01*
X1013460Y360680D01*
X1013460Y340360D01*
X1013460Y55880D02*
X1013466Y55649D01*
X1013503Y55281D01*
X1013571Y54918D01*
X1013670Y54563D01*
X1013800Y54217D01*
X1013960Y53884D01*
X1014148Y53566D01*
X1014363Y53266D01*
X1014604Y52986D01*
X1014868Y52728D01*
X1015153Y52493D01*
X1015458Y52285D01*
X1015780Y52104D01*
X1016116Y51951D01*
X1016465Y51829D01*
X1016823Y51737D01*
X1017187Y51677D01*
X1017555Y51649D01*
X1017924Y51653D01*
X1018292Y51689D01*
X1018655Y51757D01*
X1019011Y51857D01*
X1019356Y51987D01*
X1019689Y52147D01*
X1020007Y52335D01*
X1020307Y52550D01*
X1020587Y52791D01*
X1020846Y53055D01*
X1021080Y53340D01*
X1021080Y76200D01*
X1021066Y76532D01*
X1021022Y76862D01*
X1020950Y77186D01*
X1020850Y77503D01*
X1020723Y77810D01*
X1020570Y78105D01*
X1020391Y78385D01*
X1020189Y78649D01*
X1019964Y78894D01*
X1019719Y79119D01*
X1019455Y79321D01*
X1019175Y79500D01*
X1018880Y79653D01*
X1018573Y79780D01*
X1018256Y79880D01*
X1017932Y79952D01*
X1017602Y79996D01*
X1017270Y80010D01*
X1016938Y79996D01*
X1016608Y79952D01*
X1016284Y79880D01*
X1015967Y79780D01*
X1015660Y79653D01*
X1015365Y79500D01*
X1015085Y79321D01*
X1014821Y79119D01*
X1014576Y78894D01*
X1014351Y78649D01*
X1014149Y78385D01*
X1013970Y78105D01*
X1013817Y77810D01*
X1013690Y77503D01*
X1013590Y77186D01*
X1013518Y76862D01*
X1013475Y76532D01*
X1013460Y76200D01*
X1013460Y55880D01*
X1013460Y518160D02*
X1013476Y517791D01*
X1013524Y517425D01*
X1013604Y517064D01*
X1013715Y516712D01*
X1013857Y516371D01*
X1014027Y516043D01*
X1014226Y515732D01*
X1014450Y515439D01*
X1014700Y515167D01*
X1014972Y514917D01*
X1015265Y514692D01*
X1015577Y514494D01*
X1015904Y514323D01*
X1016245Y514182D01*
X1016598Y514071D01*
X1016958Y513991D01*
X1017324Y513943D01*
X1017693Y513927D01*
X1018062Y513943D01*
X1018428Y513991D01*
X1018789Y514071D01*
X1019141Y514182D01*
X1019482Y514323D01*
X1019810Y514494D01*
X1020121Y514692D01*
X1020414Y514917D01*
X1020687Y515167D01*
X1020936Y515439D01*
X1021080Y515620D01*
X1021080Y538480D01*
X1021066Y538812D01*
X1021022Y539142D01*
X1020950Y539466D01*
X1020850Y539783D01*
X1020723Y540090D01*
X1020570Y540385D01*
X1020391Y540665D01*
X1020189Y540929D01*
X1019964Y541174D01*
X1019719Y541399D01*
X1019455Y541601D01*
X1019175Y541780D01*
X1018880Y541933D01*
X1018573Y542060D01*
X1018256Y542160D01*
X1017932Y542232D01*
X1017602Y542276D01*
X1017270Y542290D01*
X1016938Y542276D01*
X1016608Y542232D01*
X1016284Y542160D01*
X1015967Y542060D01*
X1015660Y541933D01*
X1015365Y541780D01*
X1015085Y541601D01*
X1014821Y541399D01*
X1014576Y541174D01*
X1014351Y540929D01*
X1014149Y540665D01*
X1013970Y540385D01*
X1013817Y540090D01*
X1013690Y539783D01*
X1013590Y539466D01*
X1013518Y539142D01*
X1013475Y538812D01*
X1013460Y538480D01*
X1013460Y518160D01*
X1013460Y624840D02*
X1013466Y624609D01*
X1013503Y624241D01*
X1013571Y623878D01*
X1013670Y623523D01*
X1013800Y623177D01*
X1013960Y622844D01*
X1014148Y622526D01*
X1014363Y622226D01*
X1014604Y621946D01*
X1014868Y621688D01*
X1015153Y621453D01*
X1015458Y621245D01*
X1015780Y621064D01*
X1016116Y620911D01*
X1016465Y620789D01*
X1016823Y620697D01*
X1017187Y620637D01*
X1017555Y620609D01*
X1017924Y620613D01*
X1018292Y620649D01*
X1018655Y620717D01*
X1019011Y620817D01*
X1019356Y620947D01*
X1019689Y621107D01*
X1020007Y621295D01*
X1020307Y621510D01*
X1020587Y621751D01*
X1020846Y622015D01*
X1021080Y622300D01*
X1021080Y645160D01*
X1021066Y645492D01*
X1021022Y645822D01*
X1020950Y646146D01*
X1020850Y646463D01*
X1020723Y646770D01*
X1020570Y647065D01*
X1020391Y647345D01*
X1020189Y647609D01*
X1019964Y647854D01*
X1019719Y648079D01*
X1019455Y648281D01*
X1019175Y648460D01*
X1018880Y648613D01*
X1018573Y648740D01*
X1018256Y648840D01*
X1017932Y648912D01*
X1017602Y648956D01*
X1017270Y648970D01*
X1016938Y648956D01*
X1016608Y648912D01*
X1016284Y648840D01*
X1015967Y648740D01*
X1015660Y648613D01*
X1015365Y648460D01*
X1015085Y648281D01*
X1014821Y648079D01*
X1014576Y647854D01*
X1014351Y647609D01*
X1014149Y647345D01*
X1013970Y647065D01*
X1013817Y646770D01*
X1013690Y646463D01*
X1013590Y646146D01*
X1013518Y645822D01*
X1013475Y645492D01*
X1013460Y645160D01*
X1013460Y624840D01*
X1013460Y660400D02*
X1013466Y660169D01*
X1013503Y659801D01*
X1013571Y659438D01*
X1013670Y659083D01*
X1013800Y658737D01*
X1013960Y658404D01*
X1014148Y658086D01*
X1014363Y657786D01*
X1014604Y657506D01*
X1014868Y657248D01*
X1015153Y657013D01*
X1015458Y656805D01*
X1015780Y656624D01*
X1016116Y656471D01*
X1016465Y656349D01*
X1016823Y656257D01*
X1017187Y656197D01*
X1017555Y656169D01*
X1017924Y656173D01*
X1018292Y656209D01*
X1018655Y656277D01*
X1019011Y656377D01*
X1019356Y656507D01*
X1019689Y656667D01*
X1020007Y656855D01*
X1020307Y657070D01*
X1020587Y657311D01*
X1020846Y657575D01*
X1021080Y657860D01*
X1021080Y680720D01*
X1021066Y681052D01*
X1021022Y681382D01*
X1020950Y681706D01*
X1020850Y682023D01*
X1020723Y682330D01*
X1020570Y682625D01*
X1020391Y682905D01*
X1020189Y683169D01*
X1019964Y683414D01*
X1019719Y683639D01*
X1019455Y683841D01*
X1019175Y684020D01*
X1018880Y684173D01*
X1018573Y684300D01*
X1018256Y684400D01*
X1017932Y684472D01*
X1017602Y684516D01*
X1017270Y684530D01*
X1016938Y684516D01*
X1016608Y684472D01*
X1016284Y684400D01*
X1015967Y684300D01*
X1015660Y684173D01*
X1015365Y684020D01*
X1015085Y683841D01*
X1014821Y683639D01*
X1014576Y683414D01*
X1014351Y683169D01*
X1014149Y682905D01*
X1013970Y682625D01*
X1013817Y682330D01*
X1013690Y682023D01*
X1013590Y681706D01*
X1013518Y681382D01*
X1013475Y681052D01*
X1013460Y680720D01*
X1013460Y660400D01*
X1013460Y482600D02*
X1013476Y482231D01*
X1013524Y481865D01*
X1013604Y481504D01*
X1013715Y481152D01*
X1013857Y480811D01*
X1014027Y480483D01*
X1014226Y480172D01*
X1014450Y479879D01*
X1014700Y479607D01*
X1014972Y479357D01*
X1015265Y479132D01*
X1015577Y478934D01*
X1015904Y478763D01*
X1016245Y478622D01*
X1016598Y478511D01*
X1016958Y478431D01*
X1017324Y478383D01*
X1017693Y478367D01*
X1018062Y478383D01*
X1018428Y478431D01*
X1018789Y478511D01*
X1019141Y478622D01*
X1019482Y478763D01*
X1019810Y478934D01*
X1020121Y479132D01*
X1020414Y479357D01*
X1020687Y479607D01*
X1020936Y479879D01*
X1021080Y480060D01*
X1021080Y502920D01*
X1021066Y503252D01*
X1021022Y503582D01*
X1020950Y503906D01*
X1020850Y504223D01*
X1020723Y504530D01*
X1020570Y504825D01*
X1020391Y505105D01*
X1020189Y505369D01*
X1019964Y505614D01*
X1019719Y505839D01*
X1019455Y506041D01*
X1019175Y506220D01*
X1018880Y506373D01*
X1018573Y506500D01*
X1018256Y506600D01*
X1017932Y506672D01*
X1017602Y506716D01*
X1017270Y506730D01*
X1016938Y506716D01*
X1016608Y506672D01*
X1016284Y506600D01*
X1015967Y506500D01*
X1015660Y506373D01*
X1015365Y506220D01*
X1015085Y506041D01*
X1014821Y505839D01*
X1014576Y505614D01*
X1014351Y505369D01*
X1014149Y505105D01*
X1013970Y504825D01*
X1013817Y504530D01*
X1013690Y504223D01*
X1013590Y503906D01*
X1013518Y503582D01*
X1013475Y503252D01*
X1013460Y502920D01*
X1013460Y482600D01*
X1013460Y375920D02*
X1013466Y375689D01*
X1013503Y375321D01*
X1013571Y374958D01*
X1013670Y374603D01*
X1013800Y374257D01*
X1013960Y373924D01*
X1014148Y373606D01*
X1014363Y373306D01*
X1014604Y373026D01*
X1014868Y372768D01*
X1015153Y372533D01*
X1015458Y372325D01*
X1015780Y372144D01*
X1016116Y371991D01*
X1016465Y371869D01*
X1016823Y371777D01*
X1017187Y371717D01*
X1017555Y371689D01*
X1017924Y371693D01*
X1018292Y371729D01*
X1018655Y371797D01*
X1019011Y371897D01*
X1019356Y372027D01*
X1019689Y372187D01*
X1020007Y372375D01*
X1020307Y372590D01*
X1020587Y372831D01*
X1020846Y373095D01*
X1021080Y373380D01*
X1021080Y396240D01*
X1021066Y396572D01*
X1021022Y396902D01*
X1020950Y397226D01*
X1020850Y397543D01*
X1020723Y397850D01*
X1020570Y398145D01*
X1020391Y398425D01*
X1020189Y398689D01*
X1019964Y398934D01*
X1019719Y399159D01*
X1019455Y399361D01*
X1019175Y399540D01*
X1018880Y399693D01*
X1018573Y399820D01*
X1018256Y399920D01*
X1017932Y399992D01*
X1017602Y400036D01*
X1017270Y400050D01*
X1016938Y400036D01*
X1016608Y399992D01*
X1016284Y399920D01*
X1015967Y399820D01*
X1015660Y399693D01*
X1015365Y399540D01*
X1015085Y399361D01*
X1014821Y399159D01*
X1014576Y398934D01*
X1014351Y398689D01*
X1014149Y398425D01*
X1013970Y398145D01*
X1013817Y397850D01*
X1013690Y397543D01*
X1013590Y397226D01*
X1013518Y396902D01*
X1013475Y396572D01*
X1013460Y396240D01*
X1013460Y375920D01*
X1013460Y589280D02*
X1013466Y589049D01*
X1013503Y588681D01*
X1013571Y588318D01*
X1013670Y587963D01*
X1013800Y587617D01*
X1013960Y587284D01*
X1014148Y586966D01*
X1014363Y586666D01*
X1014604Y586386D01*
X1014868Y586128D01*
X1015153Y585893D01*
X1015458Y585685D01*
X1015780Y585504D01*
X1016116Y585351D01*
X1016465Y585229D01*
X1016823Y585137D01*
X1017187Y585077D01*
X1017555Y585049D01*
X1017924Y585053D01*
X1018292Y585089D01*
X1018655Y585157D01*
X1019011Y585257D01*
X1019356Y585387D01*
X1019689Y585547D01*
X1020007Y585735D01*
X1020307Y585950D01*
X1020587Y586191D01*
X1020846Y586455D01*
X1021080Y586740D01*
X1021080Y609600D01*
X1021066Y609932D01*
X1021022Y610262D01*
X1020950Y610586D01*
X1020850Y610903D01*
X1020723Y611210D01*
X1020570Y611505D01*
X1020391Y611785D01*
X1020189Y612049D01*
X1019964Y612294D01*
X1019719Y612519D01*
X1019455Y612721D01*
X1019175Y612900D01*
X1018880Y613053D01*
X1018573Y613180D01*
X1018256Y613280D01*
X1017932Y613352D01*
X1017602Y613396D01*
X1017270Y613410D01*
X1016938Y613396D01*
X1016608Y613352D01*
X1016284Y613280D01*
X1015967Y613180D01*
X1015660Y613053D01*
X1015365Y612900D01*
X1015085Y612721D01*
X1014821Y612519D01*
X1014576Y612294D01*
X1014351Y612049D01*
X1014149Y611785D01*
X1013970Y611505D01*
X1013817Y611210D01*
X1013690Y610903D01*
X1013590Y610586D01*
X1013518Y610262D01*
X1013475Y609932D01*
X1013460Y609600D01*
X1013460Y589280D01*
X1013460Y411480D02*
X1013476Y411111D01*
X1013524Y410745D01*
X1013604Y410384D01*
X1013715Y410032D01*
X1013857Y409691D01*
X1014027Y409363D01*
X1014226Y409052D01*
X1014450Y408759D01*
X1014700Y408487D01*
X1014972Y408237D01*
X1015265Y408012D01*
X1015577Y407814D01*
X1015904Y407643D01*
X1016245Y407502D01*
X1016598Y407391D01*
X1016958Y407311D01*
X1017324Y407263D01*
X1017693Y407247D01*
X1018062Y407263D01*
X1018428Y407311D01*
X1018789Y407391D01*
X1019141Y407502D01*
X1019482Y407643D01*
X1019810Y407814D01*
X1020121Y408012D01*
X1020414Y408237D01*
X1020687Y408487D01*
X1020936Y408759D01*
X1021080Y408940D01*
X1021080Y431800D01*
X1021066Y432132D01*
X1021022Y432462D01*
X1020950Y432786D01*
X1020850Y433103D01*
X1020723Y433410D01*
X1020570Y433705D01*
X1020391Y433985D01*
X1020189Y434249D01*
X1019964Y434494D01*
X1019719Y434719D01*
X1019455Y434921D01*
X1019175Y435100D01*
X1018880Y435253D01*
X1018573Y435380D01*
X1018256Y435480D01*
X1017932Y435552D01*
X1017602Y435596D01*
X1017270Y435610D01*
X1016938Y435596D01*
X1016608Y435552D01*
X1016284Y435480D01*
X1015967Y435380D01*
X1015660Y435253D01*
X1015365Y435100D01*
X1015085Y434921D01*
X1014821Y434719D01*
X1014576Y434494D01*
X1014351Y434249D01*
X1014149Y433985D01*
X1013970Y433705D01*
X1013817Y433410D01*
X1013690Y433103D01*
X1013590Y432786D01*
X1013518Y432462D01*
X1013475Y432132D01*
X1013460Y431800D01*
X1013460Y411480D01*
X1013460Y695960D02*
X1013466Y695729D01*
X1013503Y695361D01*
X1013571Y694998D01*
X1013670Y694643D01*
X1013800Y694297D01*
X1013960Y693964D01*
X1014148Y693646D01*
X1014363Y693346D01*
X1014604Y693066D01*
X1014868Y692808D01*
X1015153Y692573D01*
X1015458Y692365D01*
X1015780Y692184D01*
X1016116Y692031D01*
X1016465Y691909D01*
X1016823Y691817D01*
X1017187Y691757D01*
X1017555Y691729D01*
X1017924Y691733D01*
X1018292Y691769D01*
X1018655Y691837D01*
X1019011Y691937D01*
X1019356Y692067D01*
X1019689Y692227D01*
X1020007Y692415D01*
X1020307Y692630D01*
X1020587Y692871D01*
X1020846Y693135D01*
X1021080Y693420D01*
X1021080Y716280D01*
X1021066Y716612D01*
X1021022Y716942D01*
X1020950Y717266D01*
X1020850Y717583D01*
X1020723Y717890D01*
X1020570Y718185D01*
X1020391Y718465D01*
X1020189Y718729D01*
X1019964Y718974D01*
X1019719Y719199D01*
X1019455Y719401D01*
X1019175Y719580D01*
X1018880Y719733D01*
X1018573Y719860D01*
X1018256Y719960D01*
X1017932Y720032D01*
X1017602Y720076D01*
X1017270Y720090D01*
X1016938Y720076D01*
X1016608Y720032D01*
X1016284Y719960D01*
X1015967Y719860D01*
X1015660Y719733D01*
X1015365Y719580D01*
X1015085Y719401D01*
X1014821Y719199D01*
X1014576Y718974D01*
X1014351Y718729D01*
X1014149Y718465D01*
X1013970Y718185D01*
X1013817Y717890D01*
X1013690Y717583D01*
X1013590Y717266D01*
X1013518Y716942D01*
X1013475Y716612D01*
X1013460Y716280D01*
X1013460Y695960D01*
X1013460Y731520D02*
X1013466Y731289D01*
X1013503Y730921D01*
X1013571Y730558D01*
X1013670Y730203D01*
X1013800Y729857D01*
X1013960Y729524D01*
X1014148Y729206D01*
X1014363Y728906D01*
X1014604Y728626D01*
X1014868Y728368D01*
X1015153Y728133D01*
X1015458Y727925D01*
X1015780Y727744D01*
X1016116Y727591D01*
X1016465Y727469D01*
X1016823Y727377D01*
X1017187Y727317D01*
X1017555Y727289D01*
X1017924Y727293D01*
X1018292Y727329D01*
X1018655Y727397D01*
X1019011Y727497D01*
X1019356Y727627D01*
X1019689Y727787D01*
X1020007Y727975D01*
X1020307Y728190D01*
X1020587Y728431D01*
X1020846Y728695D01*
X1021080Y728980D01*
X1021080Y751840D01*
X1021066Y752172D01*
X1021022Y752502D01*
X1020950Y752826D01*
X1020850Y753143D01*
X1020723Y753450D01*
X1020570Y753745D01*
X1020391Y754025D01*
X1020189Y754289D01*
X1019964Y754534D01*
X1019719Y754759D01*
X1019455Y754961D01*
X1019175Y755140D01*
X1018880Y755293D01*
X1018573Y755420D01*
X1018256Y755520D01*
X1017932Y755592D01*
X1017602Y755636D01*
X1017270Y755650D01*
X1016938Y755636D01*
X1016608Y755592D01*
X1016284Y755520D01*
X1015967Y755420D01*
X1015660Y755293D01*
X1015365Y755140D01*
X1015085Y754961D01*
X1014821Y754759D01*
X1014576Y754534D01*
X1014351Y754289D01*
X1014149Y754025D01*
X1013970Y753745D01*
X1013817Y753450D01*
X1013690Y753143D01*
X1013590Y752826D01*
X1013518Y752502D01*
X1013475Y752172D01*
X1013460Y751840D01*
X1013460Y731520D01*
X1013460Y447040D02*
X1013466Y446809D01*
X1013503Y446441D01*
X1013571Y446078D01*
X1013670Y445723D01*
X1013800Y445377D01*
X1013960Y445044D01*
X1014148Y444726D01*
X1014363Y444426D01*
X1014604Y444146D01*
X1014868Y443888D01*
X1015153Y443653D01*
X1015458Y443445D01*
X1015780Y443264D01*
X1016116Y443111D01*
X1016465Y442989D01*
X1016823Y442897D01*
X1017187Y442837D01*
X1017555Y442809D01*
X1017924Y442813D01*
X1018292Y442849D01*
X1018655Y442917D01*
X1019011Y443017D01*
X1019356Y443147D01*
X1019689Y443307D01*
X1020007Y443495D01*
X1020307Y443710D01*
X1020587Y443951D01*
X1020846Y444215D01*
X1021080Y444500D01*
X1021080Y467360D01*
X1021066Y467692D01*
X1021022Y468022D01*
X1020950Y468346D01*
X1020850Y468663D01*
X1020723Y468970D01*
X1020570Y469265D01*
X1020391Y469545D01*
X1020189Y469809D01*
X1019964Y470054D01*
X1019719Y470279D01*
X1019455Y470481D01*
X1019175Y470660D01*
X1018880Y470813D01*
X1018573Y470940D01*
X1018256Y471040D01*
X1017932Y471112D01*
X1017602Y471156D01*
X1017270Y471170D01*
X1016938Y471156D01*
X1016608Y471112D01*
X1016284Y471040D01*
X1015967Y470940D01*
X1015660Y470813D01*
X1015365Y470660D01*
X1015085Y470481D01*
X1014821Y470279D01*
X1014576Y470054D01*
X1014351Y469809D01*
X1014149Y469545D01*
X1013970Y469265D01*
X1013817Y468970D01*
X1013690Y468663D01*
X1013590Y468346D01*
X1013518Y468022D01*
X1013475Y467692D01*
X1013460Y467360D01*
X1013460Y447040D01*
X1013460Y553720D02*
X1013466Y553489D01*
X1013503Y553121D01*
X1013571Y552758D01*
X1013670Y552403D01*
X1013800Y552057D01*
X1013960Y551724D01*
X1014148Y551406D01*
X1014363Y551106D01*
X1014604Y550826D01*
X1014868Y550568D01*
X1015153Y550333D01*
X1015458Y550125D01*
X1015780Y549944D01*
X1016116Y549791D01*
X1016465Y549669D01*
X1016823Y549577D01*
X1017187Y549517D01*
X1017555Y549489D01*
X1017924Y549493D01*
X1018292Y549529D01*
X1018655Y549597D01*
X1019011Y549697D01*
X1019356Y549827D01*
X1019689Y549987D01*
X1020007Y550175D01*
X1020307Y550390D01*
X1020587Y550631D01*
X1020846Y550895D01*
X1021080Y551180D01*
X1021080Y574040D01*
X1021066Y574372D01*
X1021022Y574702D01*
X1020950Y575026D01*
X1020850Y575343D01*
X1020723Y575650D01*
X1020570Y575945D01*
X1020391Y576225D01*
X1020189Y576489D01*
X1019964Y576734D01*
X1019719Y576959D01*
X1019455Y577161D01*
X1019175Y577340D01*
X1018880Y577493D01*
X1018573Y577620D01*
X1018256Y577720D01*
X1017932Y577792D01*
X1017602Y577836D01*
X1017270Y577850D01*
X1016938Y577836D01*
X1016608Y577792D01*
X1016284Y577720D01*
X1015967Y577620D01*
X1015660Y577493D01*
X1015365Y577340D01*
X1015085Y577161D01*
X1014821Y576959D01*
X1014576Y576734D01*
X1014351Y576489D01*
X1014149Y576225D01*
X1013970Y575945D01*
X1013817Y575650D01*
X1013690Y575343D01*
X1013590Y575026D01*
X1013518Y574702D01*
X1013475Y574372D01*
X1013460Y574040D01*
X1013460Y553720D01*
X986282Y728456D02*
X986213Y727411D01*
X986077Y726372D01*
X985872Y725344D01*
X985601Y724332D01*
X985264Y723340D01*
X984863Y722372D01*
X984400Y721433D01*
X983876Y720525D01*
X983294Y719654D01*
X982656Y718823D01*
X981966Y718035D01*
X981225Y717294D01*
X980437Y716604D01*
X979606Y715966D01*
X978735Y715384D01*
X977827Y714860D01*
X976888Y714397D01*
X975920Y713996D01*
X974928Y713659D01*
X973916Y713388D01*
X972888Y713183D01*
X971849Y713047D01*
X970804Y712978D01*
X969756Y712978D01*
X968711Y713047D01*
X967672Y713183D01*
X966644Y713388D01*
X965632Y713659D01*
X964640Y713996D01*
X963672Y714397D01*
X962733Y714860D01*
X961825Y715384D01*
X960954Y715966D01*
X960123Y716604D01*
X959335Y717294D01*
X958594Y718035D01*
X957904Y718823D01*
X957266Y719654D01*
X956684Y720525D01*
X956160Y721433D01*
X955697Y722372D01*
X955296Y723340D01*
X954959Y724332D01*
X954688Y725344D01*
X954483Y726372D01*
X954347Y727411D01*
X954278Y728456D01*
X954278Y729504D01*
X954347Y730549D01*
X954483Y731588D01*
X954688Y732616D01*
X954959Y733628D01*
X955296Y734620D01*
X955697Y735588D01*
X956160Y736527D01*
X956684Y737435D01*
X957266Y738306D01*
X957904Y739137D01*
X958594Y739925D01*
X959335Y740666D01*
X960123Y741356D01*
X960954Y741994D01*
X961825Y742576D01*
X962733Y743100D01*
X963672Y743563D01*
X964640Y743964D01*
X965632Y744301D01*
X966644Y744572D01*
X967672Y744777D01*
X968711Y744913D01*
X969756Y744982D01*
X970804Y744982D01*
X971849Y744913D01*
X972888Y744777D01*
X973916Y744572D01*
X974928Y744301D01*
X975920Y743964D01*
X976888Y743563D01*
X977827Y743100D01*
X978735Y742576D01*
X979606Y741994D01*
X980437Y741356D01*
X981225Y740666D01*
X981966Y739925D01*
X982656Y739137D01*
X983294Y738306D01*
X983876Y737435D01*
X984400Y736527D01*
X984863Y735588D01*
X985264Y734620D01*
X985601Y733628D01*
X985872Y732616D01*
X986077Y731588D01*
X986213Y730549D01*
X986282Y729504D01*
X986282Y728456D01*
X986282Y37576D02*
X986213Y36531D01*
X986077Y35492D01*
X985872Y34464D01*
X985601Y33452D01*
X985264Y32460D01*
X984863Y31492D01*
X984400Y30553D01*
X983876Y29645D01*
X983294Y28774D01*
X982656Y27943D01*
X981966Y27155D01*
X981225Y26414D01*
X980437Y25724D01*
X979606Y25086D01*
X978735Y24504D01*
X977827Y23980D01*
X976888Y23517D01*
X975920Y23116D01*
X974928Y22779D01*
X973916Y22508D01*
X972888Y22303D01*
X971849Y22167D01*
X970804Y22098D01*
X969756Y22098D01*
X968711Y22167D01*
X967672Y22303D01*
X966644Y22508D01*
X965632Y22779D01*
X964640Y23116D01*
X963672Y23517D01*
X962733Y23980D01*
X961825Y24504D01*
X960954Y25086D01*
X960123Y25724D01*
X959335Y26414D01*
X958594Y27155D01*
X957904Y27943D01*
X957266Y28774D01*
X956684Y29645D01*
X956160Y30553D01*
X955697Y31492D01*
X955296Y32460D01*
X954959Y33452D01*
X954688Y34464D01*
X954483Y35492D01*
X954347Y36531D01*
X954278Y37576D01*
X954278Y38624D01*
X954347Y39669D01*
X954483Y40708D01*
X954688Y41736D01*
X954959Y42748D01*
X955296Y43740D01*
X955697Y44708D01*
X956160Y45647D01*
X956684Y46555D01*
X957266Y47426D01*
X957904Y48257D01*
X958594Y49045D01*
X959335Y49786D01*
X960123Y50476D01*
X960954Y51114D01*
X961825Y51696D01*
X962733Y52220D01*
X963672Y52683D01*
X964640Y53084D01*
X965632Y53421D01*
X966644Y53692D01*
X967672Y53897D01*
X968711Y54033D01*
X969756Y54102D01*
X970804Y54102D01*
X971849Y54033D01*
X972888Y53897D01*
X973916Y53692D01*
X974928Y53421D01*
X975920Y53084D01*
X976888Y52683D01*
X977827Y52220D01*
X978735Y51696D01*
X979606Y51114D01*
X980437Y50476D01*
X981225Y49786D01*
X981966Y49045D01*
X982656Y48257D01*
X983294Y47426D01*
X983876Y46555D01*
X984400Y45647D01*
X984863Y44708D01*
X985264Y43740D01*
X985601Y42748D01*
X985872Y41736D01*
X986077Y40708D01*
X986213Y39669D01*
X986282Y38624D01*
X986282Y37576D01*
X54102Y37576D02*
X54033Y36531D01*
X53897Y35492D01*
X53692Y34464D01*
X53421Y33452D01*
X53084Y32460D01*
X52683Y31492D01*
X52220Y30553D01*
X51696Y29645D01*
X51114Y28774D01*
X50476Y27943D01*
X49786Y27155D01*
X49045Y26414D01*
X48257Y25724D01*
X47426Y25086D01*
X46555Y24504D01*
X45647Y23980D01*
X44708Y23517D01*
X43740Y23116D01*
X42748Y22779D01*
X41736Y22508D01*
X40708Y22303D01*
X39669Y22167D01*
X38624Y22098D01*
X37576Y22098D01*
X36531Y22167D01*
X35492Y22303D01*
X34464Y22508D01*
X33452Y22779D01*
X32460Y23116D01*
X31492Y23517D01*
X30553Y23980D01*
X29645Y24504D01*
X28774Y25086D01*
X27943Y25724D01*
X27155Y26414D01*
X26414Y27155D01*
X25724Y27943D01*
X25086Y28774D01*
X24504Y29645D01*
X23980Y30553D01*
X23517Y31492D01*
X23116Y32460D01*
X22779Y33452D01*
X22508Y34464D01*
X22303Y35492D01*
X22167Y36531D01*
X22098Y37576D01*
X22098Y38624D01*
X22167Y39669D01*
X22303Y40708D01*
X22508Y41736D01*
X22779Y42748D01*
X23116Y43740D01*
X23517Y44708D01*
X23980Y45647D01*
X24504Y46555D01*
X25086Y47426D01*
X25724Y48257D01*
X26414Y49045D01*
X27155Y49786D01*
X27943Y50476D01*
X28774Y51114D01*
X29645Y51696D01*
X30553Y52220D01*
X31492Y52683D01*
X32460Y53084D01*
X33452Y53421D01*
X34464Y53692D01*
X35492Y53897D01*
X36531Y54033D01*
X37576Y54102D01*
X38624Y54102D01*
X39669Y54033D01*
X40708Y53897D01*
X41736Y53692D01*
X42748Y53421D01*
X43740Y53084D01*
X44708Y52683D01*
X45647Y52220D01*
X46555Y51696D01*
X47426Y51114D01*
X48257Y50476D01*
X49045Y49786D01*
X49786Y49045D01*
X50476Y48257D01*
X51114Y47426D01*
X51696Y46555D01*
X52220Y45647D01*
X52683Y44708D01*
X53084Y43740D01*
X53421Y42748D01*
X53692Y41736D01*
X53897Y40708D01*
X54033Y39669D01*
X54102Y38624D01*
X54102Y37576D01*
X371602Y728456D02*
X371533Y727411D01*
X371397Y726372D01*
X371192Y725344D01*
X370921Y724332D01*
X370584Y723340D01*
X370183Y722372D01*
X369720Y721433D01*
X369196Y720525D01*
X368614Y719654D01*
X367976Y718823D01*
X367286Y718035D01*
X366545Y717294D01*
X365757Y716604D01*
X364926Y715966D01*
X364055Y715384D01*
X363147Y714860D01*
X362208Y714397D01*
X361240Y713996D01*
X360248Y713659D01*
X359236Y713388D01*
X358208Y713183D01*
X357169Y713047D01*
X356124Y712978D01*
X355076Y712978D01*
X354031Y713047D01*
X352992Y713183D01*
X351964Y713388D01*
X350952Y713659D01*
X349960Y713996D01*
X348992Y714397D01*
X348053Y714860D01*
X347145Y715384D01*
X346274Y715966D01*
X345443Y716604D01*
X344655Y717294D01*
X343914Y718035D01*
X343224Y718823D01*
X342586Y719654D01*
X342004Y720525D01*
X341480Y721433D01*
X341017Y722372D01*
X340616Y723340D01*
X340279Y724332D01*
X340008Y725344D01*
X339803Y726372D01*
X339667Y727411D01*
X339598Y728456D01*
X339598Y729504D01*
X339667Y730549D01*
X339803Y731588D01*
X340008Y732616D01*
X340279Y733628D01*
X340616Y734620D01*
X341017Y735588D01*
X341480Y736527D01*
X342004Y737435D01*
X342586Y738306D01*
X343224Y739137D01*
X343914Y739925D01*
X344655Y740666D01*
X345443Y741356D01*
X346274Y741994D01*
X347145Y742576D01*
X348053Y743100D01*
X348992Y743563D01*
X349960Y743964D01*
X350952Y744301D01*
X351964Y744572D01*
X352992Y744777D01*
X354031Y744913D01*
X355076Y744982D01*
X356124Y744982D01*
X357169Y744913D01*
X358208Y744777D01*
X359236Y744572D01*
X360248Y744301D01*
X361240Y743964D01*
X362208Y743563D01*
X363147Y743100D01*
X364055Y742576D01*
X364926Y741994D01*
X365757Y741356D01*
X366545Y740666D01*
X367286Y739925D01*
X367976Y739137D01*
X368614Y738306D01*
X369196Y737435D01*
X369720Y736527D01*
X370183Y735588D01*
X370584Y734620D01*
X370921Y733628D01*
X371192Y732616D01*
X371397Y731588D01*
X371533Y730549D01*
X371602Y729504D01*
X371602Y728456D01*
X1080262Y728456D02*
X1080193Y727411D01*
X1080057Y726372D01*
X1079852Y725344D01*
X1079581Y724332D01*
X1079244Y723340D01*
X1078843Y722372D01*
X1078380Y721433D01*
X1077856Y720525D01*
X1077274Y719654D01*
X1076636Y718823D01*
X1075946Y718035D01*
X1075205Y717294D01*
X1074417Y716604D01*
X1073586Y715966D01*
X1072715Y715384D01*
X1071807Y714860D01*
X1070868Y714397D01*
X1069900Y713996D01*
X1068908Y713659D01*
X1067896Y713388D01*
X1066868Y713183D01*
X1065829Y713047D01*
X1064784Y712978D01*
X1063736Y712978D01*
X1062691Y713047D01*
X1061652Y713183D01*
X1060624Y713388D01*
X1059612Y713659D01*
X1058620Y713996D01*
X1057652Y714397D01*
X1056713Y714860D01*
X1055805Y715384D01*
X1054934Y715966D01*
X1054103Y716604D01*
X1053315Y717294D01*
X1052574Y718035D01*
X1051884Y718823D01*
X1051246Y719654D01*
X1050664Y720525D01*
X1050140Y721433D01*
X1049677Y722372D01*
X1049276Y723340D01*
X1048939Y724332D01*
X1048668Y725344D01*
X1048463Y726372D01*
X1048327Y727411D01*
X1048258Y728456D01*
X1048258Y729504D01*
X1048327Y730549D01*
X1048463Y731588D01*
X1048668Y732616D01*
X1048939Y733628D01*
X1049276Y734620D01*
X1049677Y735588D01*
X1050140Y736527D01*
X1050664Y737435D01*
X1051246Y738306D01*
X1051884Y739137D01*
X1052574Y739925D01*
X1053315Y740666D01*
X1054103Y741356D01*
X1054934Y741994D01*
X1055805Y742576D01*
X1056713Y743100D01*
X1057652Y743563D01*
X1058620Y743964D01*
X1059612Y744301D01*
X1060624Y744572D01*
X1061652Y744777D01*
X1062691Y744913D01*
X1063736Y744982D01*
X1064784Y744982D01*
X1065829Y744913D01*
X1066868Y744777D01*
X1067896Y744572D01*
X1068908Y744301D01*
X1069900Y743964D01*
X1070868Y743563D01*
X1071807Y743100D01*
X1072715Y742576D01*
X1073586Y741994D01*
X1074417Y741356D01*
X1075205Y740666D01*
X1075946Y739925D01*
X1076636Y739137D01*
X1077274Y738306D01*
X1077856Y737435D01*
X1078380Y736527D01*
X1078843Y735588D01*
X1079244Y734620D01*
X1079581Y733628D01*
X1079852Y732616D01*
X1080057Y731588D01*
X1080193Y730549D01*
X1080262Y729504D01*
X1080262Y728456D01*
X1252982Y728456D02*
X1252913Y727411D01*
X1252777Y726372D01*
X1252572Y725344D01*
X1252301Y724332D01*
X1251964Y723340D01*
X1251563Y722372D01*
X1251100Y721433D01*
X1250576Y720525D01*
X1249994Y719654D01*
X1249356Y718823D01*
X1248666Y718035D01*
X1247925Y717294D01*
X1247137Y716604D01*
X1246306Y715966D01*
X1245435Y715384D01*
X1244527Y714860D01*
X1243588Y714397D01*
X1242620Y713996D01*
X1241628Y713659D01*
X1240616Y713388D01*
X1239588Y713183D01*
X1238549Y713047D01*
X1237504Y712978D01*
X1236456Y712978D01*
X1235411Y713047D01*
X1234372Y713183D01*
X1233344Y713388D01*
X1232332Y713659D01*
X1231340Y713996D01*
X1230372Y714397D01*
X1229433Y714860D01*
X1228525Y715384D01*
X1227654Y715966D01*
X1226823Y716604D01*
X1226035Y717294D01*
X1225294Y718035D01*
X1224604Y718823D01*
X1223966Y719654D01*
X1223384Y720525D01*
X1222860Y721433D01*
X1222397Y722372D01*
X1221996Y723340D01*
X1221659Y724332D01*
X1221388Y725344D01*
X1221183Y726372D01*
X1221047Y727411D01*
X1220978Y728456D01*
X1220978Y729504D01*
X1221047Y730549D01*
X1221183Y731588D01*
X1221388Y732616D01*
X1221659Y733628D01*
X1221996Y734620D01*
X1222397Y735588D01*
X1222860Y736527D01*
X1223384Y737435D01*
X1223966Y738306D01*
X1224604Y739137D01*
X1225294Y739925D01*
X1226035Y740666D01*
X1226823Y741356D01*
X1227654Y741994D01*
X1228525Y742576D01*
X1229433Y743100D01*
X1230372Y743563D01*
X1231340Y743964D01*
X1232332Y744301D01*
X1233344Y744572D01*
X1234372Y744777D01*
X1235411Y744913D01*
X1236456Y744982D01*
X1237504Y744982D01*
X1238549Y744913D01*
X1239588Y744777D01*
X1240616Y744572D01*
X1241628Y744301D01*
X1242620Y743964D01*
X1243588Y743563D01*
X1244527Y743100D01*
X1245435Y742576D01*
X1246306Y741994D01*
X1247137Y741356D01*
X1247925Y740666D01*
X1248666Y739925D01*
X1249356Y739137D01*
X1249994Y738306D01*
X1250576Y737435D01*
X1251100Y736527D01*
X1251563Y735588D01*
X1251964Y734620D01*
X1252301Y733628D01*
X1252572Y732616D01*
X1252777Y731588D01*
X1252913Y730549D01*
X1252982Y729504D01*
X1252982Y728456D01*
X1252982Y37576D02*
X1252913Y36531D01*
X1252777Y35492D01*
X1252572Y34464D01*
X1252301Y33452D01*
X1251964Y32460D01*
X1251563Y31492D01*
X1251100Y30553D01*
X1250576Y29645D01*
X1249994Y28774D01*
X1249356Y27943D01*
X1248666Y27155D01*
X1247925Y26414D01*
X1247137Y25724D01*
X1246306Y25086D01*
X1245435Y24504D01*
X1244527Y23980D01*
X1243588Y23517D01*
X1242620Y23116D01*
X1241628Y22779D01*
X1240616Y22508D01*
X1239588Y22303D01*
X1238549Y22167D01*
X1237504Y22098D01*
X1236456Y22098D01*
X1235411Y22167D01*
X1234372Y22303D01*
X1233344Y22508D01*
X1232332Y22779D01*
X1231340Y23116D01*
X1230372Y23517D01*
X1229433Y23980D01*
X1228525Y24504D01*
X1227654Y25086D01*
X1226823Y25724D01*
X1226035Y26414D01*
X1225294Y27155D01*
X1224604Y27943D01*
X1223966Y28774D01*
X1223384Y29645D01*
X1222860Y30553D01*
X1222397Y31492D01*
X1221996Y32460D01*
X1221659Y33452D01*
X1221388Y34464D01*
X1221183Y35492D01*
X1221047Y36531D01*
X1220978Y37576D01*
X1220978Y38624D01*
X1221047Y39669D01*
X1221183Y40708D01*
X1221388Y41736D01*
X1221659Y42748D01*
X1221996Y43740D01*
X1222397Y44708D01*
X1222860Y45647D01*
X1223384Y46555D01*
X1223966Y47426D01*
X1224604Y48257D01*
X1225294Y49045D01*
X1226035Y49786D01*
X1226823Y50476D01*
X1227654Y51114D01*
X1228525Y51696D01*
X1229433Y52220D01*
X1230372Y52683D01*
X1231340Y53084D01*
X1232332Y53421D01*
X1233344Y53692D01*
X1234372Y53897D01*
X1235411Y54033D01*
X1236456Y54102D01*
X1237504Y54102D01*
X1238549Y54033D01*
X1239588Y53897D01*
X1240616Y53692D01*
X1241628Y53421D01*
X1242620Y53084D01*
X1243588Y52683D01*
X1244527Y52220D01*
X1245435Y51696D01*
X1246306Y51114D01*
X1247137Y50476D01*
X1247925Y49786D01*
X1248666Y49045D01*
X1249356Y48257D01*
X1249994Y47426D01*
X1250576Y46555D01*
X1251100Y45647D01*
X1251563Y44708D01*
X1251964Y43740D01*
X1252301Y42748D01*
X1252572Y41736D01*
X1252777Y40708D01*
X1252913Y39669D01*
X1252982Y38624D01*
X1252982Y37576D01*
X1080262Y37576D02*
X1080193Y36531D01*
X1080057Y35492D01*
X1079852Y34464D01*
X1079581Y33452D01*
X1079244Y32460D01*
X1078843Y31492D01*
X1078380Y30553D01*
X1077856Y29645D01*
X1077274Y28774D01*
X1076636Y27943D01*
X1075946Y27155D01*
X1075205Y26414D01*
X1074417Y25724D01*
X1073586Y25086D01*
X1072715Y24504D01*
X1071807Y23980D01*
X1070868Y23517D01*
X1069900Y23116D01*
X1068908Y22779D01*
X1067896Y22508D01*
X1066868Y22303D01*
X1065829Y22167D01*
X1064784Y22098D01*
X1063736Y22098D01*
X1062691Y22167D01*
X1061652Y22303D01*
X1060624Y22508D01*
X1059612Y22779D01*
X1058620Y23116D01*
X1057652Y23517D01*
X1056713Y23980D01*
X1055805Y24504D01*
X1054934Y25086D01*
X1054103Y25724D01*
X1053315Y26414D01*
X1052574Y27155D01*
X1051884Y27943D01*
X1051246Y28774D01*
X1050664Y29645D01*
X1050140Y30553D01*
X1049677Y31492D01*
X1049276Y32460D01*
X1048939Y33452D01*
X1048668Y34464D01*
X1048463Y35492D01*
X1048327Y36531D01*
X1048258Y37576D01*
X1048258Y38624D01*
X1048327Y39669D01*
X1048463Y40708D01*
X1048668Y41736D01*
X1048939Y42748D01*
X1049276Y43740D01*
X1049677Y44708D01*
X1050140Y45647D01*
X1050664Y46555D01*
X1051246Y47426D01*
X1051884Y48257D01*
X1052574Y49045D01*
X1053315Y49786D01*
X1054103Y50476D01*
X1054934Y51114D01*
X1055805Y51696D01*
X1056713Y52220D01*
X1057652Y52683D01*
X1058620Y53084D01*
X1059612Y53421D01*
X1060624Y53692D01*
X1061652Y53897D01*
X1062691Y54033D01*
X1063736Y54102D01*
X1064784Y54102D01*
X1065829Y54033D01*
X1066868Y53897D01*
X1067896Y53692D01*
X1068908Y53421D01*
X1069900Y53084D01*
X1070868Y52683D01*
X1071807Y52220D01*
X1072715Y51696D01*
X1073586Y51114D01*
X1074417Y50476D01*
X1075205Y49786D01*
X1075946Y49045D01*
X1076636Y48257D01*
X1077274Y47426D01*
X1077856Y46555D01*
X1078380Y45647D01*
X1078843Y44708D01*
X1079244Y43740D01*
X1079581Y42748D01*
X1079852Y41736D01*
X1080057Y40708D01*
X1080193Y39669D01*
X1080262Y38624D01*
X1080262Y37576D01*
M02*
