G04 EAGLE Gerber RS-274X export*
G04 #@! %TF.Part,Single*
G04 #@! %TF.FileFunction,Paste,Top*
G04 #@! %TF.FilePolarity,Positive*
G04 #@! %TF.GenerationSoftware,Autodesk,EAGLE,9.6.2*
G04 #@! %TF.CreationDate,2022-03-11T18:21:18Z*
G75*
%MOMM*%
%FSLAX34Y34*%
%LPD*%
%INSolderpaste Top*%
%IPPOS*%
%AMOC8*
5,1,8,0,0,1.08239X$1,22.5*%
G01*
%ADD10R,1.100000X1.000000*%
%ADD11R,1.000000X1.100000*%
%ADD12R,1.475000X0.300000*%
%ADD13R,0.300000X1.475000*%
%ADD14R,1.150000X0.600000*%
%ADD15R,0.700000X1.525000*%
%ADD16C,0.300000*%
%ADD17R,1.524000X0.762000*%
%ADD18R,1.168400X1.600200*%
%ADD19C,1.600000*%
%ADD20R,1.200000X0.550000*%


D10*
X152790Y624840D03*
X169790Y624840D03*
D11*
X146050Y605400D03*
X146050Y588400D03*
X513080Y313300D03*
X513080Y296300D03*
X533400Y313300D03*
X533400Y296300D03*
D10*
X489340Y50800D03*
X506340Y50800D03*
X465210Y81280D03*
X482210Y81280D03*
D11*
X1066800Y353940D03*
X1066800Y336940D03*
X1082040Y353940D03*
X1082040Y336940D03*
D10*
X1144660Y322580D03*
X1161660Y322580D03*
X517280Y701040D03*
X534280Y701040D03*
X1180220Y327660D03*
X1197220Y327660D03*
D11*
X290830Y657470D03*
X290830Y640470D03*
X137160Y698890D03*
X137160Y715890D03*
X299720Y546980D03*
X299720Y529980D03*
X203200Y719700D03*
X203200Y702700D03*
D10*
X464430Y316230D03*
X447430Y316230D03*
D11*
X547370Y331080D03*
X547370Y314080D03*
D10*
X555380Y444500D03*
X572380Y444500D03*
X448700Y471170D03*
X465700Y471170D03*
D11*
X269240Y657470D03*
X269240Y640470D03*
D10*
X309000Y382270D03*
X326000Y382270D03*
X309000Y430530D03*
X326000Y430530D03*
X251070Y637540D03*
X234070Y637540D03*
D11*
X162560Y657470D03*
X162560Y640470D03*
X161290Y605400D03*
X161290Y588400D03*
X416560Y359800D03*
X416560Y376800D03*
X269240Y604130D03*
X269240Y587130D03*
D10*
X252340Y586740D03*
X235340Y586740D03*
D12*
X437920Y431200D03*
X437920Y426200D03*
X437920Y421200D03*
X437920Y416200D03*
X437920Y411200D03*
X437920Y406200D03*
X437920Y401200D03*
X437920Y396200D03*
X437920Y391200D03*
X437920Y386200D03*
X437920Y381200D03*
X437920Y376200D03*
X437920Y371200D03*
X437920Y366200D03*
X437920Y361200D03*
X437920Y356200D03*
D13*
X457800Y336320D03*
X462800Y336320D03*
X467800Y336320D03*
X472800Y336320D03*
X477800Y336320D03*
X482800Y336320D03*
X487800Y336320D03*
X492800Y336320D03*
X497800Y336320D03*
X502800Y336320D03*
X507800Y336320D03*
X512800Y336320D03*
X517800Y336320D03*
X522800Y336320D03*
X527800Y336320D03*
X532800Y336320D03*
D12*
X552680Y356200D03*
X552680Y361200D03*
X552680Y366200D03*
X552680Y371200D03*
X552680Y376200D03*
X552680Y381200D03*
X552680Y386200D03*
X552680Y391200D03*
X552680Y396200D03*
X552680Y401200D03*
X552680Y406200D03*
X552680Y411200D03*
X552680Y416200D03*
X552680Y421200D03*
X552680Y426200D03*
X552680Y431200D03*
D13*
X532800Y451080D03*
X527800Y451080D03*
X522800Y451080D03*
X517800Y451080D03*
X512800Y451080D03*
X507800Y451080D03*
X502800Y451080D03*
X497800Y451080D03*
X492800Y451080D03*
X487800Y451080D03*
X482800Y451080D03*
X477800Y451080D03*
X472800Y451080D03*
X467800Y451080D03*
X462800Y451080D03*
X457800Y451080D03*
D14*
X190700Y657200D03*
X190700Y647700D03*
X190700Y638200D03*
X215700Y638200D03*
X215700Y657200D03*
X190700Y606400D03*
X190700Y596900D03*
X190700Y587400D03*
X215700Y587400D03*
X215700Y606400D03*
D15*
X1098550Y353880D03*
X1111250Y353880D03*
X1123950Y353880D03*
X1136650Y353880D03*
X1149350Y353880D03*
X1162050Y353880D03*
X1174750Y353880D03*
X1187450Y353880D03*
X1187450Y408120D03*
X1174750Y408120D03*
X1162050Y408120D03*
X1149350Y408120D03*
X1136650Y408120D03*
X1123950Y408120D03*
X1111250Y408120D03*
X1098550Y408120D03*
D16*
X51760Y617030D02*
X44760Y617030D01*
X51760Y617030D02*
X51760Y610030D01*
X44760Y610030D01*
X44760Y617030D01*
X44760Y612880D02*
X51760Y612880D01*
X51760Y615730D02*
X44760Y615730D01*
X44760Y634570D02*
X51760Y634570D01*
X51760Y627570D01*
X44760Y627570D01*
X44760Y634570D01*
X44760Y630420D02*
X51760Y630420D01*
X51760Y633270D02*
X44760Y633270D01*
X72700Y617030D02*
X79700Y617030D01*
X79700Y610030D01*
X72700Y610030D01*
X72700Y617030D01*
X72700Y612880D02*
X79700Y612880D01*
X79700Y615730D02*
X72700Y615730D01*
X72700Y634570D02*
X79700Y634570D01*
X79700Y627570D01*
X72700Y627570D01*
X72700Y634570D01*
X72700Y630420D02*
X79700Y630420D01*
X79700Y633270D02*
X72700Y633270D01*
X468940Y590360D02*
X475940Y590360D01*
X475940Y583360D01*
X468940Y583360D01*
X468940Y590360D01*
X468940Y586210D02*
X475940Y586210D01*
X475940Y589060D02*
X468940Y589060D01*
X468940Y607900D02*
X475940Y607900D01*
X475940Y600900D01*
X468940Y600900D01*
X468940Y607900D01*
X468940Y603750D02*
X475940Y603750D01*
X475940Y606600D02*
X468940Y606600D01*
X425140Y590360D02*
X418140Y590360D01*
X425140Y590360D02*
X425140Y583360D01*
X418140Y583360D01*
X418140Y590360D01*
X418140Y586210D02*
X425140Y586210D01*
X425140Y589060D02*
X418140Y589060D01*
X418140Y607900D02*
X425140Y607900D01*
X425140Y600900D01*
X418140Y600900D01*
X418140Y607900D01*
X418140Y603750D02*
X425140Y603750D01*
X425140Y606600D02*
X418140Y606600D01*
X1098860Y528130D02*
X1105860Y528130D01*
X1105860Y521130D01*
X1098860Y521130D01*
X1098860Y528130D01*
X1098860Y523980D02*
X1105860Y523980D01*
X1105860Y526830D02*
X1098860Y526830D01*
X1098860Y545670D02*
X1105860Y545670D01*
X1105860Y538670D01*
X1098860Y538670D01*
X1098860Y545670D01*
X1098860Y541520D02*
X1105860Y541520D01*
X1105860Y544370D02*
X1098860Y544370D01*
D11*
X585860Y454660D03*
X602860Y454660D03*
X846700Y208280D03*
X829700Y208280D03*
D10*
X492760Y504580D03*
X492760Y521580D03*
D11*
X471560Y723900D03*
X488560Y723900D03*
X544440Y665480D03*
X527440Y665480D03*
X48650Y651510D03*
X65650Y651510D03*
X115180Y632460D03*
X98180Y632460D03*
X185810Y736600D03*
X202810Y736600D03*
X621910Y530860D03*
X604910Y530860D03*
D10*
X472440Y621420D03*
X472440Y638420D03*
X421640Y622690D03*
X421640Y639690D03*
X1079500Y559680D03*
X1079500Y542680D03*
D11*
X1242940Y454660D03*
X1225940Y454660D03*
X400440Y419100D03*
X417440Y419100D03*
D10*
X1132840Y294250D03*
X1132840Y277250D03*
X436880Y516500D03*
X436880Y499500D03*
X464820Y516500D03*
X464820Y499500D03*
D11*
X1123560Y472440D03*
X1106560Y472440D03*
X1128640Y497840D03*
X1111640Y497840D03*
X251070Y652780D03*
X234070Y652780D03*
X252340Y607060D03*
X235340Y607060D03*
D10*
X1156970Y277250D03*
X1156970Y294250D03*
D11*
X847480Y462280D03*
X864480Y462280D03*
D10*
X1181100Y300600D03*
X1181100Y283600D03*
X1198880Y300600D03*
X1198880Y283600D03*
D11*
X864480Y556260D03*
X847480Y556260D03*
D17*
X568960Y720090D03*
X624840Y720090D03*
X568960Y681990D03*
X624840Y681990D03*
D18*
X1186180Y454660D03*
X1201420Y454660D03*
X1186180Y485140D03*
X1201420Y485140D03*
D19*
X977900Y271780D03*
X391160Y500380D03*
X411480Y469900D03*
X492760Y485140D03*
X516890Y725170D03*
X353060Y637540D03*
X256540Y358140D03*
X1041400Y360680D03*
D20*
X152099Y720700D03*
X152099Y711200D03*
X152099Y701700D03*
X178101Y701700D03*
X178101Y720700D03*
D11*
X847480Y436880D03*
X864480Y436880D03*
X847480Y411480D03*
X864480Y411480D03*
X1084580Y408060D03*
X1084580Y425060D03*
X1069340Y408060D03*
X1069340Y425060D03*
D10*
X363220Y93100D03*
X363220Y110100D03*
X388620Y93100D03*
X388620Y110100D03*
X414020Y93100D03*
X414020Y110100D03*
X439420Y93100D03*
X439420Y110100D03*
X736600Y673980D03*
X736600Y656980D03*
X762000Y673980D03*
X762000Y656980D03*
M02*
